<svg xmlns="http://www.w3.org/2000/svg" viewBox="0 0 42 21" overflow="hidden" preserveAspectRatio="xMidYMid meet" id="eaf-becf-0"><!-- Created with Expressive Animator v1.3.1 | https://expressive.app/expressive-animator/ --><defs><clipPath id="eaf-becf-1"><rect x="0" y="0" width="42" height="21"></rect></clipPath><clipPath id="eaf-becf-2"><path d="m1.21 0l39.58 0c0.6677 0 1.21 0.5423 1.21 1.21l0 18.58c0 0.6677 -0.5423 1.21 -1.21 1.21l-39.58 0c-0.6677 0 -1.21 -0.5423 -1.21 -1.21l0 -18.58c0 -0.6677 0.5423 -1.21 1.21 -1.21z"></path></clipPath></defs><g clip-path="url('#eaf-becf-1')" style="isolation: isolate;"><g><g transform="translate(0 0)"><rect fill="#fff" width="42" height="21" rx="1.21" transform="matrix(0 0 0 0 21 10.5)"><animateTransform attributeName="transform" type="translate" from="21 10.5" to="21 10.5" calcMode="discrete" dur="2000ms" fill="freeze"></animateTransform><animateTransform keyTimes="0;0.1835;1" calcMode="spline" keySplines="0 0 0.58 1;0 0 1 1" dur="2000ms" fill="freeze" attributeName="transform" values="0 0;1 1;1 1" type="scale" additive="sum"></animateTransform><animateTransform attributeName="transform" type="translate" from="-21 -10.5" to="-21 -10.5" calcMode="discrete" dur="2000ms" fill="freeze" additive="sum"></animateTransform></rect><g transform="matrix(0 0 0 0 21 10.5)"><path fill="#0f0f0f" d="m21 2c-4.69 0 -8.5 3.81 -8.5 8.5c0 4.69 3.81 8.5 8.5 8.5c4.69 0 8.5 -3.81 8.5 -8.5c0 -4.69 -3.81 -8.5 -8.5 -8.5zm3.57 10.99l-0.87 0.87c-0.72 0.72 -1.88 0.72 -2.6 0l-3.47 -3.47c-0.72 -0.72 -0.72 -1.88 0 -2.6l0.87 -0.87c0.24 -0.24 0.63 -0.24 0.87 0l1.3 1.3c0.24 0.24 0.24 0.63 0 0.87l-0.87 0.87l1.73 1.73l0.87 -0.87c0.24 -0.24 0.63 -0.24 0.87 0l1.3 1.3c0.24 0.24 0.24 0.63 0 0.87l0 0z"></path><animateTransform attributeName="transform" type="translate" from="21 10.5" to="21 10.5" calcMode="discrete" dur="2000ms" fill="freeze"></animateTransform><animateTransform keyTimes="0;0.2165;0.3995;0.6245;0.8325;1" calcMode="spline" keySplines="0 0 1 1;0 0 0.58 1;0.42 0 1 1;0 0 0.58 1;0 0 1 1" dur="2000ms" fill="freeze" attributeName="transform" values="0;0;18;-18;0;0" type="rotate" additive="sum"></animateTransform><animateTransform keyTimes="0;0.0335;0.2085;0.3085;1" calcMode="spline" keySplines="0 0 1 1;0 0 0.58 1;0 0 0.58 1;0 0 1 1" dur="2000ms" fill="freeze" attributeName="transform" values="0 0;0 0;1.05 1.05;1 1;1 1" type="scale" additive="sum"></animateTransform><animateTransform attributeName="transform" type="translate" from="-21 -10.5" to="-21 -10.5" calcMode="discrete" dur="2000ms" fill="freeze" additive="sum"></animateTransform></g><g><path fill="#bababa" fill-rule="evenodd" stroke="#000" stroke-linecap="round" stroke-miterlimit="1" d="m0 0l0 0" transform="translate(31.1361 10.5)" visibility="hidden"><animate keyTimes="0;0.2085;0.4415;0.6085;1" calcMode="spline" keySplines="0 0 1 1;0 0 0.58 1;0.42 0 1 1;0 0 1 1" dur="2000ms" fill="freeze" attributeName="d" values="m0 0l0 0;m0 0l0 0;m0 0l8.0673 0;m8.0673 0l0 0;m8.0673 0l0 0"></animate><animate keyTimes="0;0.2;0.2;0.6165;0.6165;1" calcMode="linear" dur="2000ms" fill="freeze" attributeName="visibility" values="hidden;hidden;visible;visible;hidden;hidden"></animate></path></g><g clip-path="url('#eaf-becf-2')"><g transform="matrix(0.8192 0.5736 -0.5736 0.8192 9.8204 -10.1462)"><path fill="#bababa" fill-rule="evenodd" stroke="#000" stroke-linecap="round" stroke-miterlimit="1" d="m0 0l0 0" transform="translate(31.1361 10.5)" visibility="hidden"><animate keyTimes="0;0.2085;0.4415;0.6085;1" calcMode="spline" keySplines="0 0 1 1;0 0 0.58 1;0.42 0 1 1;0 0 1 1" dur="2000ms" fill="freeze" attributeName="d" values="m0 0l0 0;m0 0l0 0;m0 0l8.0673 0;m8.0673 0l0 0;m8.0673 0l0 0"></animate><animate keyTimes="0;0.2;0.2;0.6165;0.6165;1" calcMode="linear" dur="2000ms" fill="freeze" attributeName="visibility" values="hidden;hidden;visible;visible;hidden;hidden"></animate></path></g><g transform="matrix(0.8192 -0.5736 0.5736 0.8192 -2.2247 13.944)"><path fill="#bababa" fill-rule="evenodd" stroke="#000" stroke-linecap="round" stroke-miterlimit="1" d="m0 0l0 0" transform="translate(31.1361 10.5)" visibility="hidden"><animate keyTimes="0;0.2085;0.4415;0.6085;1" calcMode="spline" keySplines="0 0 1 1;0 0 0.58 1;0.42 0 1 1;0 0 1 1" dur="2000ms" fill="freeze" attributeName="d" values="m0 0l0 0;m0 0l0 0;m0 0l8.0673 0;m8.0673 0l0 0;m8.0673 0l0 0"></animate><animate keyTimes="0;0.2;0.2;0.6165;0.6165;1" calcMode="linear" dur="2000ms" fill="freeze" attributeName="visibility" values="hidden;hidden;visible;visible;hidden;hidden"></animate></path></g><g transform="matrix(-1 0 0 -1 42 21)"><path fill="#bababa" fill-rule="evenodd" stroke="#000" stroke-linecap="round" stroke-miterlimit="1" d="m0 0l0 0" transform="translate(31.1361 10.5)" visibility="hidden"><animate keyTimes="0;0.2085;0.4415;0.6085;1" calcMode="spline" keySplines="0 0 1 1;0 0 0.58 1;0.42 0 1 1;0 0 1 1" dur="2000ms" fill="freeze" attributeName="d" values="m0 0l0 0;m0 0l0 0;m0 0l8.0673 0;m8.0673 0l0 0;m8.0673 0l0 0"></animate><animate keyTimes="0;0.2;0.2;0.6165;0.6165;1" calcMode="linear" dur="2000ms" fill="freeze" attributeName="visibility" values="hidden;hidden;visible;visible;hidden;hidden"></animate></path></g><g transform="matrix(-0.8192 -0.5736 0.5736 -0.8192 32.1796 31.1462)"><path fill="#bababa" fill-rule="evenodd" stroke="#000" stroke-linecap="round" stroke-miterlimit="1" d="m0 0l0 0" transform="translate(31.1361 10.5)" visibility="hidden"><animate keyTimes="0;0.2085;0.4415;0.6085;1" calcMode="spline" keySplines="0 0 1 1;0 0 0.58 1;0.42 0 1 1;0 0 1 1" dur="2000ms" fill="freeze" attributeName="d" values="m0 0l0 0;m0 0l0 0;m0 0l8.0673 0;m8.0673 0l0 0;m8.0673 0l0 0"></animate><animate keyTimes="0;0.2;0.2;0.6165;0.6165;1" calcMode="linear" dur="2000ms" fill="freeze" attributeName="visibility" values="hidden;hidden;visible;visible;hidden;hidden"></animate></path></g><g transform="matrix(-0.8192 0.5736 -0.5736 -0.8192 44.2247 7.056)"><path fill="#bababa" fill-rule="evenodd" stroke="#000" stroke-linecap="round" stroke-miterlimit="1" d="m0 0l0 0" transform="translate(31.1361 10.5)" visibility="hidden"><animate keyTimes="0;0.2085;0.4415;0.6085;1" calcMode="spline" keySplines="0 0 1 1;0 0 0.58 1;0.42 0 1 1;0 0 1 1" dur="2000ms" fill="freeze" attributeName="d" values="m0 0l0 0;m0 0l0 0;m0 0l8.0673 0;m8.0673 0l0 0;m8.0673 0l0 0"></animate><animate keyTimes="0;0.2;0.2;0.6165;0.6165;1" calcMode="linear" dur="2000ms" fill="freeze" attributeName="visibility" values="hidden;hidden;visible;visible;hidden;hidden"></animate></path></g></g></g></g></g></svg>