<svg xmlns="http://www.w3.org/2000/svg" viewBox="0 0 1920 920" overflow="hidden" preserveAspectRatio="xMidYMid meet" id="eaf-6a40-0"><!-- Created with Expressive Animator v1.3.1 | https://expressive.app/expressive-animator/ --><defs><clipPath id="eaf-6a40-1"><rect x="0" y="0" width="1920" height="920"></rect></clipPath><clipPath id="eaf-6a40-2"><path d="m0 0l1920 0l0 820l-1920 0l0 -820z" clip-rule="evenodd" transform="matrix(1 0 0 1.012 0 -4.9088)"></path></clipPath><clipPath id="eaf-6a40-3"><path d="m0 0l816.4364 0l0 264.8727l-816.4364 0l0 -264.8727z" clip-rule="evenodd" transform="matrix(2.3517 0 0 3.4734 0 -40)"></path></clipPath></defs><g clip-path="url('#eaf-6a40-1')" style="isolation: isolate;"><g><g transform="translate(0.0001 40)" clip-path="url('#eaf-6a40-3')"><ellipse fill="#ad0000" rx="142.5743" ry="142.5743" transform="matrix(0 0 0 0 960 173.7566)"><animateTransform attributeName="transform" type="translate" from="960 173.7566" to="960 173.7566" calcMode="discrete" dur="5000ms" fill="freeze"></animateTransform><animateTransform keyTimes="0;0.1866;1" calcMode="spline" keySplines="0.923 0.082 0.543 0.91;0 0 1 1" dur="5000ms" fill="freeze" attributeName="transform" values="0 0;8.05 8.05;8.05 8.05" type="scale" additive="sum"></animateTransform></ellipse><path d="M5.20898 16L7.68164 5.99219Q7.75195 5.6582 8.03906 5.6582L8.71289 5.6582Q9.55078 5.6582 10.0312 5.99219Q10.5117 6.32617 10.7754 7.43359L12.9141 16L15.2168 5.99219Q15.334 5.6582 15.5742 5.6582L17.4492 5.6582Q17.6895 5.6582 17.6133 5.94531L14.373 18.7363Q14.3027 19 14.0859 19L11.9531 19Q11.7363 19 11.6133 18.7363L8.97656 8.96875L6.43359 18.7363Q6.31055 19 6.09375 19L3.98438 19Q3.7207 19 3.65039 18.7363L0.527344 5.96875Q0.503906 5.8457 0.539062 5.75195Q0.574219 5.6582 0.720703 5.6582L1.20117 5.6582Q2.01562 5.6582 2.53125 5.99219Q3.04688 6.32617 3.28711 7.43359L5.20898 16ZM21.1897 15.3027Q21.3127 16.2637 22.0334 16.7676Q22.7542 17.2715 23.8557 17.2715Q24.7698 17.2715 25.3674 17.084Q25.9651 16.8906 26.5686 16.5508Q26.7854 16.4102 26.9495 16.4102Q27.2131 16.4102 27.2131 16.7441Q27.2131 17.248 26.844 17.8281Q26.4749 18.4023 25.678 18.8242Q24.887 19.2402 23.5686 19.2402Q22.2737 19.2402 21.2014 18.7012Q20.135 18.1621 19.5081 17.0957Q18.887 16.0234 18.887 14.4648Q18.887 13.0938 19.426 12.0391Q19.9651 10.9844 20.9612 10.3867Q21.9573 9.7832 23.3049 9.7832Q24.7463 9.7832 25.6428 10.375Q26.5452 10.9609 26.9612 11.8984Q27.3831 12.8301 27.3831 13.8906Q27.3831 14.248 27.3713 14.5234Q27.3596 14.7988 27.3362 14.9922Q27.3127 15.3027 26.926 15.3027L21.1897 15.3027ZM21.1897 13.6504L25.0803 13.6504Q25.1272 13.2402 24.9924 12.7949Q24.8635 12.3496 24.4534 12.0391Q24.0491 11.7285 23.3049 11.7285Q22.3909 11.7285 21.8518 12.2441Q21.3127 12.7598 21.1897 13.6504ZM33.5303 16.6973Q33.5771 16.6738 33.6357 16.627Q33.6943 16.5742 33.7705 16.5742Q33.9111 16.5742 33.9697 16.6855Q34.0342 16.791 34.0342 16.9141Q34.0342 17.3945 33.8174 17.9336Q33.6006 18.4727 33.0967 18.8359Q32.5928 19.1934 31.7021 19.1934Q30.5771 19.1934 29.915 18.4492Q29.2588 17.7051 29.2588 16.1465L29.2588 5.94531Q29.2588 5.6582 29.4931 5.6582L29.6162 5.6582Q30.5537 5.6582 31.0576 6.12695Q31.5615 6.58984 31.5615 7.67383L31.5615 15.9297Q31.5615 17.1777 32.4463 17.1777Q32.8096 17.1777 33.0498 17.0605Q33.29 16.9375 33.5303 16.6973ZM41.8307 16.5039Q42.0006 16.334 42.1178 16.334Q42.3815 16.334 42.3815 16.7207Q42.3815 17.2012 42.0944 17.8047Q41.8073 18.4023 41.1217 18.8242Q40.442 19.2402 39.2409 19.2402Q37.2253 19.2402 36.0241 17.9805Q34.8229 16.7207 34.8229 14.4883Q34.8229 12.3027 36.0827 11.043Q37.3424 9.7832 39.3815 9.7832Q39.9147 9.7832 40.3776 9.84766Q40.8463 9.90625 41.2565 10.0703Q41.8776 10.3105 42.071 10.709Q42.2643 11.1016 42.071 11.7754L41.9303 12.3027Q41.8542 12.4961 41.737 12.4961Q41.6374 12.4961 41.5202 12.4258Q40.9694 12.1621 40.5358 12.0566Q40.1022 11.9453 39.4811 11.9453Q38.5202 11.9453 37.8463 12.584Q37.1784 13.2168 37.1784 14.5352Q37.1784 15.7832 37.8229 16.5039Q38.4733 17.2246 39.7448 17.2246Q40.5124 17.2246 41.0163 16.9727Q41.5202 16.7207 41.8307 16.5039ZM48.1696 19.2402Q46.0544 19.2402 44.7946 17.9453Q43.5349 16.6504 43.5349 14.4883Q43.5349 12.3496 44.7829 11.0664Q46.031 9.7832 48.1462 9.7832Q50.2556 9.7832 51.5036 11.0664Q52.7517 12.3496 52.7517 14.4883Q52.7517 16.6211 51.5271 17.9336Q50.3025 19.2402 48.1696 19.2402ZM48.1462 17.0547Q49.0544 17.0547 49.7282 16.4688Q50.4021 15.8828 50.4021 14.5352Q50.4021 13.1934 49.7282 12.5723Q49.0544 11.9453 48.1462 11.9453Q47.2087 11.9453 46.5466 12.5605Q45.8904 13.1699 45.8904 14.5117Q45.8904 15.8535 46.5466 16.457Q47.2087 17.0547 48.1462 17.0547ZM56.8315 11.1016Q57.2651 10.5273 57.8979 10.1699Q58.5366 9.80664 59.4214 9.80664Q61.5366 9.80664 62.4214 11.3945Q62.9018 10.7441 63.6225 10.2754Q64.3432 9.80664 65.351 9.80664Q67.0561 9.80664 68.0288 10.8145Q69.0014 11.8223 69.0014 13.8145L69.0014 18.7363Q69.0014 19 68.7143 19L66.9331 19Q66.6987 19 66.6987 18.7363L66.6987 14.0781Q66.6987 12.8828 66.1772 12.3789Q65.6616 11.8691 64.8706 11.8691Q64.0796 11.8691 63.5405 12.4023Q63.0014 12.9297 63.0014 14.1016L63.0014 18.7363Q63.0014 19 62.7612 19L60.9624 19Q60.6987 19 60.6987 18.7363L60.6987 14.0781Q60.6987 12.8828 60.1889 12.3789Q59.685 11.8691 58.8706 11.8691Q58.0561 11.8691 57.5288 12.4023Q57.0014 12.9297 57.0014 14.1016L57.0014 18.7363Q57.0014 19 56.7378 19L54.9096 19Q54.6987 19 54.6987 18.7363L54.6987 10.2637Q54.6987 9.97656 54.9096 9.97656L55.0327 9.97656Q55.7299 9.97656 56.1928 10.252Q56.6616 10.5273 56.8315 11.1016ZM73.1495 15.3027Q73.2726 16.2637 73.9933 16.7676Q74.714 17.2715 75.8156 17.2715Q76.7296 17.2715 77.3273 17.084Q77.9249 16.8906 78.5284 16.5508Q78.7452 16.4102 78.9093 16.4102Q79.173 16.4102 79.173 16.7441Q79.173 17.248 78.8038 17.8281Q78.4347 18.4023 77.6378 18.8242Q76.8468 19.2402 75.5284 19.2402Q74.2335 19.2402 73.1613 18.7012Q72.0948 18.1621 71.4679 17.0957Q70.8468 16.0234 70.8468 14.4648Q70.8468 13.0938 71.3859 12.0391Q71.9249 10.9844 72.921 10.3867Q73.9171 9.7832 75.2648 9.7832Q76.7062 9.7832 77.6027 10.375Q78.505 10.9609 78.921 11.8984Q79.3429 12.8301 79.3429 13.8906Q79.3429 14.248 79.3312 14.5234Q79.3195 14.7988 79.296 14.9922Q79.2726 15.3027 78.8859 15.3027L73.1495 15.3027ZM73.1495 13.6504L77.0402 13.6504Q77.087 13.2402 76.9523 12.7949Q76.8234 12.3496 76.4132 12.0391Q76.0089 11.7285 75.2648 11.7285Q74.3507 11.7285 73.8116 12.2441Q73.2726 12.7598 73.1495 13.6504ZM86.0173 12.0625L84.4294 12.0625Q84.1657 12.0625 84.1657 11.7754L84.1657 10.2637Q84.1657 9.97656 84.4294 9.97656L86.0173 9.97656L86.0173 7.07031Q86.0173 6.80664 86.2575 6.80664L86.3747 6.80664Q87.3122 6.80664 87.8044 7.28711Q88.2966 7.76758 88.2966 8.82227L88.2966 9.97656L90.2419 9.97656Q90.4528 9.97656 90.4528 10.2637L90.4528 11.7754Q90.4528 12.0625 90.2419 12.0625L88.2966 12.0625L88.2966 18.7363Q88.2966 19 88.0564 19L86.2575 19Q86.0173 19 86.0173 18.7363L86.0173 12.0625ZM96.3855 19.2402Q94.2703 19.2402 93.0105 17.9453Q91.7507 16.6504 91.7507 14.4883Q91.7507 12.3496 92.9988 11.0664Q94.2468 9.7832 96.3621 9.7832Q98.4714 9.7832 99.7195 11.0664Q100.968 12.3496 100.968 14.4883Q100.968 16.6211 99.7429 17.9336Q98.5183 19.2402 96.3855 19.2402ZM96.3621 17.0547Q97.2703 17.0547 97.9441 16.4688Q98.6179 15.8828 98.6179 14.5352Q98.6179 13.1934 97.9441 12.5723Q97.2703 11.9453 96.3621 11.9453Q95.4246 11.9453 94.7625 12.5605Q94.1062 13.1699 94.1062 14.5117Q94.1062 15.8535 94.7625 16.457Q95.4246 17.0547 96.3621 17.0547ZM113.233 15.5195L116.039 5.94531Q116.086 5.82227 116.157 5.74023Q116.233 5.6582 116.373 5.6582L117.721 5.6582Q118.418 5.6582 118.881 6.06836Q119.35 6.47266 119.373 7.16992L120 18.7363Q120 19 119.83 19L117.938 19Q117.698 19 117.698 18.7363L117.194 9.37891L114.381 18.7363Q114.334 19 114.071 19L112.295 19Q112.125 19 111.985 18.7363L109.295 9.44922L108.791 18.7363Q108.791 19 108.575 19L106.705 19Q106.489 19 106.489 18.7363L107.209 5.94531Q107.209 5.6582 107.45 5.6582L108.815 5.6582Q109.582 5.6582 110.039 5.89844Q110.496 6.13867 110.69 6.83008L113.233 15.5195ZM124.44 19.2168L121.223 10.2637Q121.2 10.1699 121.235 10.0762Q121.27 9.97656 121.37 9.97656L121.874 9.97656Q122.858 9.97656 123.321 10.3867Q123.79 10.791 124.2 11.9219L125.688 16.3867L127.704 10.2871Q127.85 9.97656 128.09 9.97656L129.866 9.97656Q129.983 9.97656 130.007 10.0762Q130.03 10.1699 130.007 10.2637L126.889 19.0234Q126.479 20.2012 126.01 21.1211Q125.542 22.0469 124.868 22.5742Q124.2 23.1016 123.169 23.1016Q122.401 23.1016 121.874 22.7793Q121.346 22.457 121.077 21.9531Q120.813 21.4492 120.813 20.9688Q120.813 20.7988 120.889 20.6523Q120.96 20.5117 121.106 20.5117Q121.153 20.5117 121.212 20.5469Q121.27 20.582 121.317 20.6348Q121.967 21.1094 122.618 21.1094Q123.286 21.1094 123.667 20.6875Q124.053 20.2715 124.44 19.2168ZM139.225 16L141.697 5.99219Q141.768 5.6582 142.055 5.6582L142.728 5.6582Q143.566 5.6582 144.047 5.99219Q144.527 6.32617 144.791 7.43359L146.93 16L149.232 5.99219Q149.35 5.6582 149.59 5.6582L151.465 5.6582Q151.705 5.6582 151.629 5.94531L148.389 18.7363Q148.318 19 148.102 19L145.969 19Q145.752 19 145.629 18.7363L142.992 8.96875L140.449 18.7363Q140.326 19 140.109 19L138 19Q137.736 19 137.666 18.7363L134.543 5.96875Q134.52 5.8457 134.555 5.75195Q134.59 5.6582 134.736 5.6582L135.217 5.6582Q136.031 5.6582 136.547 5.99219Q137.062 6.32617 137.303 7.43359L139.225 16ZM157.537 19.2402Q155.422 19.2402 154.162 17.9453Q152.903 16.6504 152.903 14.4883Q152.903 12.3496 154.151 11.0664Q155.399 9.7832 157.514 9.7832Q159.623 9.7832 160.871 11.0664Q162.119 12.3496 162.119 14.4883Q162.119 16.6211 160.895 17.9336Q159.67 19.2402 157.537 19.2402ZM157.514 17.0547Q158.422 17.0547 159.096 16.4688Q159.77 15.8828 159.77 14.5352Q159.77 13.1934 159.096 12.5723Q158.422 11.9453 157.514 11.9453Q156.576 11.9453 155.914 12.5605Q155.258 13.1699 155.258 14.5117Q155.258 15.8535 155.914 16.457Q156.576 17.0547 157.514 17.0547ZM166.246 11.2949Q166.656 10.5273 167.23 10.252Q167.805 9.97656 168.789 9.97656L169.053 9.97656Q169.293 9.97656 169.293 10.2637L169.293 11.8984Q169.293 12.1855 169.053 12.1855L168.432 12.1855Q167.113 12.1855 166.715 12.8477Q166.322 13.5039 166.322 14.7754L166.322 18.7363Q166.322 19 166.082 19L164.277 19Q164.066 19 164.066 18.7363L164.066 10.2637Q164.066 9.97656 164.277 9.97656L164.4 9.97656Q165.959 9.97656 166.246 11.2949ZM175.274 16.6973Q175.321 16.6738 175.379 16.627Q175.438 16.5742 175.514 16.5742Q175.655 16.5742 175.713 16.6855Q175.778 16.791 175.778 16.9141Q175.778 17.3945 175.561 17.9336Q175.344 18.4727 174.84 18.8359Q174.336 19.1934 173.446 19.1934Q172.321 19.1934 171.659 18.4492Q171.002 17.7051 171.002 16.1465L171.002 5.94531Q171.002 5.6582 171.237 5.6582L171.36 5.6582Q172.297 5.6582 172.801 6.12695Q173.305 6.58984 173.305 7.67383L173.305 15.9297Q173.305 17.1777 174.19 17.1777Q174.553 17.1777 174.793 17.0605Q175.034 16.9375 175.274 16.6973ZM183.504 11.0078L183.504 5.94531Q183.504 5.6582 183.768 5.6582L183.885 5.6582Q184.822 5.6582 185.315 6.12695Q185.807 6.58984 185.807 7.67383L185.807 18.7363Q185.807 19 185.566 19L183.768 19Q183.504 19 183.504 18.7363L183.504 17.8691Q182.496 19.2168 180.697 19.2168Q179.35 19.2168 178.424 18.5723Q177.504 17.9219 177.035 16.8438Q176.566 15.7598 176.566 14.4648Q176.566 13.1172 177.07 12.0508Q177.574 10.9844 178.535 10.3633Q179.496 9.73633 180.838 9.73633Q181.752 9.73633 182.432 10.0762Q183.117 10.4102 183.504 11.0078ZM181.225 17.0547Q181.682 17.0547 182.209 16.8555Q182.736 16.6504 183.117 16.0996Q183.504 15.543 183.504 14.4648Q183.504 13.3867 183.117 12.8477Q182.736 12.3027 182.209 12.127Q181.682 11.9453 181.248 11.9453Q180.768 11.9453 180.217 12.1621Q179.666 12.3789 179.291 12.918Q178.922 13.457 178.922 14.4648Q178.922 15.4961 179.315 16.0586Q179.713 16.6211 180.252 16.8379Q180.791 17.0547 181.225 17.0547Z" fill="#fff" transform="matrix(7.5499 0 0 7.5499 254.507 68.1301)"></path><g transform="translate(0 115.0912)" clip-path="url('#eaf-6a40-2')"><g><g transform="matrix(1.15 0 0 1.15 -144 523.6088)"><path fill="#0f0f0f" d="m1477.17 1023.45c-16.1899 -8.09 -32.88 -15.43 -49.83 -22.01c-68.3 -26.81 -136.6 -53.37 -204.9 -79.94c-5.8199 -2.53 -11.89 -4.81 -17.71 -7.08c-26.5601 -10.37 -47.3 -28.08 -65.01 -49.83c-4.55 -5.82 -9.11 -11.64 -13.41 -17.45c49.58 27.57 104.72 1.52 118.13 -25.04c-4.05 -0.76 -7.84 -1.52 -11.64 -2.28c-9.36 -1.52 -17.2 -5.82 -25.04 -12.9c20.49 3.79 38.96 4.05 55.65 -9.61c-6.83 -2.02 -13.15 -3.04 -18.97 -5.57c-11.73 -4.97 -19.0699 -13.08 -22.85 -23.59c-31.64 1.1 -63.26 2.53 -94.87 4.23c-1.91 0.1 -3.8199 0.22 -5.73 0.32c-8.22 13.55 -18.1 25.83 -30.35 36.49c-12.4 10.62 -24.28 21.75 -36.9301 32.13c-25.04 20.49 -53.12 33.39 -86.01 35.16c-29.85 1.52 -59.7 -0.25 -86.76 -14.92c-29.09 -15.68 -54.64 -36.17 -77.66 -59.95c-1.44 -1.5 -2.84 -3.02 -4.21 -4.55c-27.56 2.44 -55.12 4.9 -82.68 7.36c-13.67 1.22 -27.34 2.43 -41.01 3.64c6.43 0.56 13.35 0.7 20.65 0.37c-2.28 6.32 -6.32 10.88 -11.64 13.91c-7.59 4.3 -15.94 6.58 -24.79 6.58c-1.52 0 -3.29 0.76 -4.81 1.26c0.76 1.52 1.01 3.54 2.28 4.81c13.41 13.41 30.1 19.48 48.57 22.51c23.78 3.79 46.04 -2.02 68.05 -9.61c0.25 0.25 0.76 0.76 1.01 1.01c-7.34 8.85 -13.91 18.21 -21.75 26.31c-7.84 8.35 -17.45 14.92 -25.8 22.77c-18.72 16.95 -42.5 23.53 -64.76 32.88c-62.23 25.8 -124.71 51.1 -187.19 76.65c-7.59 3.04 -14.67 7.08 -22.01 10.62c-0.76 0.51 -1.77 1.26 -2.78 1.26c-9.87 0.51 -15.94 6.58 -20.49 14.17c-5.31 9.11 -9.87 18.47 -14.92 27.5699l0 533.49l1089.9999 0l0 -526.9099c0 -20.24 -10.12 -35.41 -27.83 -44.27l0 0.0101zm-552.2001 99.15c-9.11 26.3101 -13.66 53.63 -16.95 81.2c-3.29 27.0699 -6.32 53.88 -8.35 80.95c-2.02 27.5699 -3.29 55.4 -4.55 82.97c-1.01 22.26 -1.77 44.77 -2.53 66.78c-4.3 -10.88 -76.14 -337.9501 -76.14 -354.9c4.55 9.11 8.6 17.45 12.65 25.55c5.06 9.87 7.34 10.12 15.43 2.53c16.19 -15.1801 32.38 -30.1 48.57 -45.28c1.01 -1.01 2.02 -1.77 3.79 -3.29c8.6 14.67 16.95 29.34 25.8 43.51c4.3 6.58 5.06 12.4 2.28 19.98l0 0.0001zm-86.52 -18.46c-1.26 -1.77 -2.28 -3.04 -3.04 -4.55c-8.6 -18.21 -18.47 -35.92 -25.3 -54.64c-6.58 -17.96 -10.62 -36.93 -14.92 -55.65c-5.31 -23.02 -10.37 -46.29 -14.42 -69.56c-3.79 -21 -4.55 -42.24 2.53 -62.99c0.47 -1.17 0.95 -2.36 1.62 -3.94c7.39 28.66 24.27 50.82 44.17 70.97c34.66 34.91 72.6 65.77 115.6 90.31c0.51 0.25 1.01 0.76 1.52 1.26c-40.47 24.03 -74.12 55.65 -107.76 88.79l-0.0001 0.0001zm112.82 -97.64c-23.02 -11.89 -42.75 -28.08 -62.99 -43.51c-26.05 -19.73 -50.59 -40.98 -70.58 -66.78c-10.88 -13.91 -21 -28.58 -23.78 -46.29c-2.28 -13.91 -2.78 -28.33 -4.05 -42.5l1.77 0l0 -0.51c19.22 21.25 40.73 39.46 64 55.9c22.26 15.94 46.54 25.3 73.86 27.07c28.08 1.77 55.65 1.01 82.21 -9.36c21.2499 -8.09 39.71 -21.5 56.66 -36.17c14.67 -12.65 28.33 -26.05 43 -39.71c-0.76 10.88 -1.26 21.75 -1.77 32.63c-0.76 24.28 -12.9 43.76 -26.5601 62.48c-17.2 23.78 -38.7 43.26 -61.22 61.97c-17.96 14.92 -36.93 29.09 -55.4 43.76c-5.06 4.05 -9.36 4.05 -15.18 1.01l0.0301 0.01zm64.51 407.26l-0.76 0l-0.25 -0.25c-1.01 -27.83 -1.52 -55.65 -2.78 -83.48c-1.26 -27.5699 -2.78 -55.65 -5.31 -83.22c-2.78 -28.58 -6.58 -56.92 -10.88 -85.25c-2.28 -14.67 -6.83 -28.84 -10.37 -43.26c-0.25 -2.02 -0.76 -4.3 0 -6.0699c8.09 -17.96 16.44 -35.92 25.04 -54.89c8.6 7.59 16.95 14.42 24.54 21.5c11.13 10.37 21.75 21 32.63 31.37c5.8199 5.3101 7.08 5.3101 10.88 -1.52c0.51 -0.51 0.76 -1.01 2.28 -1.26c-21.75 102.2 -43.26 204.39 -65.01 306.33l-0.01 0zm106.75 -510.72c-4.55 45.79 -17.71 90.05 -27.83 134.83c-4.3 18.47 -7.59 37.4399 -17.45 54.13c-1.75 2.99 -3.5 6.24 -5.73 10.21c-32.33 -32.3199 -64.91 -62.87 -103.55 -87.11c2.28 -1.52 4.05 -3.04 6.07 -4.3c36.93 -25.55 71.33 -54.13 101.1801 -88.03c18.21 -20.49 33.39 -43.51 40.73 -71.84c5.3101 17.96 8.35 34.66 6.58 52.11l-0.0001 -0.0001z" transform="translate(198.9701 995.7078)"></path><path fill="#0f0f0f" d="m657.33 698.39c11.13 8.09 22.26 16.19 29.34 28.58c14.67 26.05 1.77 55.15 -28.08 60.2c-8.6 1.26 -17.71 0 -26.81 0c2.57 7.7 11.12 13.67 23.66 17.33c46.44 -4.08 92.88 -8.28 139.32 -12.39c-25.04 -29.7 -39.57 -64.65 -49.15 -102.08c-11.13 -44.27 -17.2 -89.29 -17.2 -135.08c0 -3.04 1.01 -6.32 2.53 -8.85c13.15 -21.75 19.48 -45.79 21.75 -70.58c2.53 -28.58 4.3 -57.42 5.31 -86.01c2.53 -83.98 62.23 -129.51 119.65 -142.16c18.21 -4.05 36.68 -5.82 55.4 -5.82c10.88 0 22.26 -3.04 33.14 -2.53c36.68 1.77 71.33 10.88 102.2 31.62c22.51 15.43 33.14 37.44 32.63 64.5c-0.25 10.12 -0.76 20.24 -1.26 30.36c-1.52 35.41 5.8199 69.06 18.47 101.69c0.51 1.52 1.01 2.78 1.52 4.05l-0.09 0.18c-9.08 -7.53 -19.4301 -10.3 -31.28 -10.3c-26.8101 0.51 -53.37 2.28 -79.43 9.61c-3.79 1.26 -7.59 2.78 -11.13 4.81c-5.06 3.04 -6.83 8.35 -5.31 12.9c1.77 5.06 6.32 5.82 10.88 5.82c9.87 -0.51 19.73 -1.52 29.6 -2.28c29.85 -2.02 59.7 -0.51 89.04 4.81c6.83 1.26 11.89 4.05 15.1801 11.13c8.6 17.71 18.47 34.66 31.37 49.83c1.26 1.52 1.77 4.05 1.77 6.32c0.51 34.66 -4.55 68.8 -11.38 102.45c-6.3199 30.36 -14.92 60.2 -28.33 88.28c-2.02 4.24 -4.15 8.37 -6.42 12.41c31.9301 -1.74 63.88 -3.19 95.84 -4.31c-0.7 -2.97 -1.16 -6.09 -1.39 -9.36c-1.26 -19.22 5.5699 -36.43 14.17 -53.12c0.76 -1.52 2.53 -2.78 4.05 -4.05c22.51 -19.98 41.23 -42.5 52.62 -70.58c8.35 -20.74 12.14 -42.5 11.89 -64.76c-0.51 -50.84 -9.11 -100.17 -29.85 -146.72c-14.92 -33.64 -32.38 -66.28 -48.5699 -99.16c-10.88 -22.26 -21 -44.77 -32.88 -66.53c-19.98 -36.43 -47.3 -65.77 -83.73 -86.26c-49.0699 -27.83 -112.82 -27.83 -160.88 10.88c-11.64 -5.57 -22.26 -12.14 -33.9 -15.94c-34.66 -11.64 -67.54 -5.31 -98.91 12.39c-26.81 15.18 -48.82 36.17 -69.56 58.69c-40.73 44.52 -69.56 95.87 -88.03 153.04c-17.71 54.64 -34.4 109.78 -50.59 164.93c-9.87 33.9 -9.11 67.79 6.32 100.42c10.37 22.01 27.32 37.69 46.54 51.6l-0.0302 0.0401zm520.85 -51.1c3.79 -2.28 7.08 -5.31 10.12 -8.6c4.3 -4.81 7.34 -10.62 6.0699 -16.95c-2.28 -11.13 0.25 -21.5 1.52 -32.63l0 0.25c7.34 5.06 14.17 9.87 21 14.92c1.26 0.76 2.02 2.78 2.02 4.3c-2.02 23.27 -7.59 45.79 -19.48 66.02c-6.0699 10.62 -16.1899 16.7 -28.58 17.96c-5.8199 0.51 -6.58 -0.76 -5.3101 -6.32c2.28 -9.87 4.55 -19.73 6.58 -29.6c1.01 -4.05 2.53 -7.08 6.0699 -9.36l-0.0099 0.0099zm-494.03 -38.95c6.58 -5.31 13.15 -10.88 18.47 -15.18l0.25 0c0.76 5.31 2.02 13.91 3.04 22.51l0 2.53c-3.04 11.38 2.53 19.22 11.38 24.54c6.32 3.79 9.11 8.85 10.37 15.94c1.77 11.89 4.81 23.53 7.59 35.92c-12.14 0 -22.26 -4.3 -29.34 -13.91c-5.31 -7.08 -9.87 -15.18 -12.65 -23.27c-4.55 -13.66 -7.84 -27.83 -11.64 -41.74c-0.76 -3.04 0 -5.31 2.53 -7.34l0.0001 0z"></path><path fill="#fff" d="m1136.9501 508.17c8.6 17.71 18.47 34.66 31.37 49.83c1.26 1.52 1.52 4.3 1.77 6.32c0.51 34.66 -4.3 68.55 -11.38 102.45c-6.3199 30.36 -14.92 59.95 -28.33 88.28c-9.87 20.74 -22.77 39.21 -39.97 54.39c-12.39 10.62 -24.28 22.01 -36.9301 32.13c-25.04 20.24 -53.37 33.39 -86.01 35.16c-30.1 1.52 -59.7 0 -86.76 -14.92c-29.09 -15.68 -54.64 -36.17 -77.66 -59.95c-30.36 -31.37 -47.05 -70.07 -57.67 -111.55c-11.13 -44.27 -17.45 -89.29 -17.2 -135.08c0 -3.04 1.01 -6.32 2.53 -8.85c13.15 -21.75 19.48 -45.53 21.75 -70.58c2.53 -28.58 4.55 -57.42 5.31 -86.01c2.78 -83.73 62.23 -129.51 119.65 -142.16c18.21 -4.05 36.68 -5.82 55.4 -5.82c11.13 0 22.26 -3.04 33.14 -2.53c36.68 1.77 71.59 10.88 102.2 31.62c22.51 15.18 33.14 37.18 32.63 64.5c0 10.12 -0.76 20.24 -1.26 30.36c-1.52 35.41 5.8199 69.06 18.47 101.69c0.51 1.26 15.6599 33.64 18.95 40.72zm-277.5001 27.57c8.85 2.53 15.68 7.34 22.26 12.65c1.52 1.26 4.05 1.26 6.32 1.77c-0.25 -2.28 0.25 -5.31 -1.01 -6.58c-3.79 -4.3 -7.84 -8.85 -12.9 -11.64c-17.71 -10.62 -36.93 -11.38 -56.66 -7.08c-10.62 2.28 -19.98 7.34 -27.57 14.92c-1.26 1.26 -1.26 3.54 -1.77 5.57c2.02 0 4.3 1.01 6.07 0.25c4.05 -1.52 7.59 -4.05 11.38 -5.82c4.81 -2.28 9.87 -4.05 16.44 -6.32c-4.55 10.88 -1.52 18.47 6.07 24.03c7.08 5.31 14.92 5.31 22.51 1.01c8.85 -4.81 10.62 -12.9 8.85 -22.77l0 0l0.01 0.01zm157.59 221.85c2.28 -1.52 6.07 -3.04 6.58 -5.31c1.01 -4.81 -3.54 -4.81 -7.08 -5.82c-10.12 -2.78 -20.49 -5.31 -30.61 -8.85c-8.09 -2.78 -16.19 -4.05 -24.28 -0.76c-8.35 3.54 -16.44 2.53 -24.79 0c-4.81 -1.26 -10.62 -2.02 -15.43 -0.76c-13.91 3.29 -27.57 7.34 -41.23 11.38c-1.52 0.51 -4.05 3.04 -3.79 4.05c0.51 1.77 2.53 4.05 4.3 4.55c2.78 0.76 6.07 0.51 8.85 0c9.11 -2.02 18.21 -1.77 27.32 0c14.42 2.78 29.09 4.55 43.76 3.29c18.21 -1.52 36.17 -8.6 55.9 -1.77l0.51 0l-0.0101 0.0001zm19.48 -222.1c0 17.45 7.59 26.81 21.25 25.8c5.8199 -0.25 10.62 -2.53 14.42 -7.08c4.55 -5.57 5.0601 -12.14 3.54 -19.73c8.09 3.04 15.9399 6.83 23.78 10.37c2.02 0.76 4.8101 0.25 7.08 0.25c-1.01 -2.28 -1.26 -5.06 -2.78 -6.58c-8.35 -7.59 -18.21 -12.14 -29.34 -14.17c-17.45 -3.29 -34.66 -3.04 -50.59 6.32c-5.06 3.04 -9.36 8.09 -13.15 12.65c-1.01 1.26 0.25 4.55 0.51 7.08c1.77 -0.76 4.3 -1.26 5.57 -2.53c5.57 -5.57 11.64 -10.12 19.48 -12.39l0.25 0l-0.02 0.01zm-56.16 144.69c2.02 0 2.78 0.51 3.29 0.25c2.02 -1.01 3.79 -2.02 5.57 -3.04c-1.26 -1.77 -2.02 -4.3 -3.79 -4.81c-2.28 -1.01 -5.31 -1.26 -7.59 -0.51c-5.06 1.52 -9.87 3.79 -14.42 6.32c-9.36 4.81 -17.96 5.31 -26.81 -1.01c-2.78 -2.02 -6.07 -3.79 -9.11 -5.06c-5.57 -2.28 -11.13 -2.53 -16.19 0.51c-1.52 1.01 -2.53 3.79 -2.28 5.57c0 1.01 3.54 2.78 5.06 2.28c7.34 -1.77 13.66 0 19.73 3.54c10.88 6.32 21.5 7.08 32.63 0.76c2.53 -1.26 5.06 -2.53 7.84 -3.29c2.53 -0.76 5.06 -1.26 6.58 -1.52l-0.51 0l0 0.0099zm-33.39 105.23l0 -0.51l11.64 0c7.08 -0.51 14.17 -1.26 21 -2.28c1.52 -0.25 2.78 -3.29 4.05 -5.06c-2.02 -0.76 -4.3 -2.78 -6.32 -2.53c-18.47 3.79 -36.93 3.29 -55.4 -0.25c-4.55 -1.01 -9.11 1.52 -8.85 4.55c0.25 4.55 4.3 4.55 7.59 4.81c8.6 0.51 17.45 1.01 26.05 1.52l0 0l0.25 -0.25l-0.01 0.0001zm-22 -235.7599l0.76 0c-1.52 11.38 -2.78 22.77 -4.55 34.15c-1.52 9.36 -3.79 18.47 -5.31 27.57c-0.25 1.77 1.01 3.54 1.77 5.31c1.52 -1.26 3.54 -2.28 4.3 -3.79c1.01 -2.02 1.52 -4.81 1.77 -7.08c3.04 -19.48 6.07 -39.21 8.85 -58.69c0.25 -2.02 0.51 -4.55 0 -6.32c-0.76 -1.77 -2.53 -3.29 -4.05 -4.81c-1.01 1.77 -2.53 3.29 -3.04 5.06c-0.51 2.78 0 5.57 0 8.6l-0.51 0l0.0099 0zm-39.47 111.81c0.51 12.9 4.81 20.49 12.9 25.8c2.78 1.77 6.07 2.02 7.84 -1.26c2.02 -3.79 -1.77 -4.3 -3.79 -5.82c-3.29 -2.53 -7.59 -5.82 -8.35 -9.36c-1.01 -5.31 0 -11.13 1.26 -16.44c1.01 -3.79 4.05 -6.83 5.82 -10.62c0.76 -1.52 0 -3.54 0 -5.31c-1.77 0 -3.54 0 -5.06 0.76c-1.26 0.76 -2.53 2.02 -3.04 3.54c-2.78 7.08 -5.57 14.42 -7.34 18.72l-0.25 0l0.0099 -0.0099zm128.51 0c-1.01 -3.04 -2.28 -8.35 -4.3 -13.15c-1.26 -3.04 -3.54 -5.82 -6.07 -7.84c-1.01 -1.01 -3.79 0 -5.57 0c0.25 1.77 0.51 3.54 1.01 5.31c0.25 1.01 1.52 1.52 2.02 2.28c8.6 10.37 9.11 28.33 -5.31 32.88c-3.29 1.01 -3.29 5.06 -0.25 6.32c1.77 0.76 5.06 0.51 6.83 -0.76c7.84 -5.31 11.64 -12.9 11.89 -25.04l-0.25 0l-0.0001 0z"></path><path fill="#fff" d="m1195.88 589.11c7.34 5.06 14.17 9.87 21 14.92c1.01 0.76 2.02 3.04 2.02 4.3c-2.02 23.27 -7.34 45.79 -19.48 66.02c-6.0699 10.37 -16.1899 16.7 -28.58 17.96c-5.8199 0.51 -6.58 -0.76 -5.3101 -6.32c2.28 -9.87 4.55 -19.73 6.58 -29.6c0.76 -4.05 2.28 -7.08 6.0699 -9.36c3.79 -2.28 7.08 -5.57 10.12 -8.6c4.3 -4.55 7.59 -10.62 6.0699 -16.95c-2.28 -10.88 0 -21.5 1.52 -32.63l0 0l0 0.25l-0.0099 0.0099z"></path><path fill="#fff" d="m702.61 593.16c0.76 5.31 1.77 13.91 3.04 22.51c0 0.76 0.25 1.77 0 2.53c-3.04 11.38 2.53 18.97 11.38 24.54c6.32 3.79 9.11 8.85 10.37 15.94c2.02 11.89 5.06 23.53 7.59 35.92c-11.89 0 -22.26 -4.05 -29.34 -13.91c-5.06 -7.08 -9.61 -14.92 -12.65 -23.27c-4.81 -13.66 -7.84 -27.83 -11.64 -41.74c-0.76 -3.04 0 -5.31 2.53 -7.34c6.58 -5.31 13.15 -10.88 18.47 -15.18l0.25 0l0.0001 0z"></path><g transform="translate(0 0)"><g><path fill="#000" d="m837.69 490.71c-26.05 0.76 -51.6 2.53 -76.65 10.37c-1.52 0.51 -3.29 0 -4.81 0c0.51 -1.52 0.51 -3.54 1.26 -4.81c7.34 -12.65 17.2 -22.51 29.09 -30.61c4.3 -3.04 9.11 -4.3 14.42 -4.3c29.09 0 57.67 2.28 85.75 9.87c4.81 1.26 9.61 3.79 13.41 6.83c2.28 1.77 4.3 6.58 3.54 8.85c-0.76 2.78 -4.81 6.07 -7.84 6.58c-6.32 0.76 -13.15 0 -19.48 0c-12.9 -0.76 -25.8 -1.52 -38.7 -2.53l0 0l0 -0.25l0.0101 0z"></path></g><g transform="matrix(-1 0 0 1 1896.3729 0)"><path fill="#000" d="m837.69 490.71c-26.05 0.76 -51.6 2.53 -76.65 10.37c-1.52 0.51 -3.29 0 -4.81 0c0.51 -1.52 0.51 -3.54 1.26 -4.81c7.34 -12.65 17.2 -22.51 29.09 -30.61c4.3 -3.04 9.11 -4.3 14.42 -4.3c29.09 0 57.67 2.28 85.75 9.87c4.81 1.26 9.61 3.79 13.41 6.83c2.28 1.77 4.3 6.58 3.54 8.85c-0.76 2.78 -4.81 6.07 -7.84 6.58c-6.32 0.76 -13.15 0 -19.48 0c-12.9 -0.76 -25.8 -1.52 -38.7 -2.53l0 0l0 -0.25l0.0101 0z"></path></g><animateTransform attributeName="transform" type="translate" from="0 0" to="0 0" calcMode="discrete" dur="5000ms" fill="freeze"></animateTransform><animateMotion keyTimes="0;0.6;0.6534;0.6934;0.7466;0.8034;1" calcMode="spline" keySplines="0 0 1 1;0 0 0.58 1;0.42 0 1 1;0.42 0 1 1;0 0 0.58 1;0 0 1 1" dur="5000ms" fill="freeze" attributeName="transform" keyPoints="0;0;0.25;0.5;0.75;1;1" path="m948.1865 481.3333l0 -16l0 16l0 -16l0 16" additive="sum"></animateMotion><animateTransform attributeName="transform" type="translate" from="-948.1865 -481.3333" to="-948.1865 -481.3333" calcMode="discrete" dur="5000ms" fill="freeze" additive="sum"></animateTransform></g><path fill="#000" d="m859.45 535.74c1.77 9.87 0 17.71 -8.85 22.77c-7.59 4.05 -15.43 4.3 -22.51 -1.01c-7.59 -5.57 -10.62 -12.9 -6.07 -24.03c-6.32 2.53 -11.38 4.3 -16.44 6.32c-3.79 1.77 -7.34 4.3 -11.38 5.82c-1.77 0.76 -4.05 0 -6.07 -0.25c0.51 -1.77 0.51 -4.3 1.77 -5.57c7.59 -7.59 17.2 -12.65 27.57 -14.92c19.48 -4.3 38.96 -3.54 56.66 7.08c4.81 3.04 8.85 7.34 12.9 11.64c1.26 1.26 0.76 4.3 1.01 6.58c-2.02 -0.51 -4.81 -0.51 -6.32 -1.77c-6.58 -5.31 -13.41 -10.12 -22.26 -12.65l0 0l-0.01 -0.01z"></path><path fill="#000" d="m1017.04 757.59c-19.73 -6.83 -37.69 0.25 -55.9 1.77c-14.92 1.26 -29.34 -0.51 -43.76 -3.29c-9.11 -1.77 -18.21 -2.02 -27.32 0c-2.78 0.51 -6.07 0.76 -8.85 0c-1.77 -0.51 -3.79 -2.78 -4.3 -4.55c-0.25 -1.01 2.02 -3.54 3.79 -4.05c13.66 -4.05 27.32 -8.09 41.23 -11.38c4.81 -1.01 10.62 -0.51 15.43 0.76c8.35 2.28 16.44 3.54 24.79 0c8.09 -3.29 16.19 -2.02 24.28 0.76c10.12 3.54 20.24 6.07 30.61 8.85c3.54 1.01 8.09 1.01 7.08 5.82c-0.51 2.28 -4.55 3.79 -6.58 5.31l-0.51 0l0.0101 -0.0001zm-28.58 -9.8701c-7.59 -3.04 -15.43 -5.57 -23.53 -3.04c-10.12 3.29 -19.98 3.54 -30.1 0c-7.59 -2.53 -14.92 -1.01 -22.01 2.78c25.3 6.07 50.34 6.07 75.63 0l0 0l0 0.25l0.01 0.0099z"></path><path fill="#000" d="m1036.52 535.49c-7.59 2.53 -13.91 6.83 -19.48 12.39c-1.26 1.26 -3.79 1.77 -5.57 2.53c0 -2.53 -1.52 -5.82 -0.51 -7.08c3.79 -4.81 8.09 -9.87 13.15 -12.65c15.6801 -9.11 33.14 -9.61 50.59 -6.32c11.13 2.02 21 6.58 29.34 14.17c1.52 1.52 1.77 4.3 2.78 6.58c-2.53 0 -5.0601 0.51 -7.08 -0.25c-7.84 -3.29 -15.4301 -7.08 -23.78 -10.37c1.26 7.59 1.01 14.17 -3.54 19.73c-3.79 4.55 -8.6 6.83 -14.42 7.08c-13.91 0.76 -21.5 -8.35 -21.25 -25.8l-0.25 0l0.0201 -0.01z"></path><path fill="#000" d="m980.36 680.18c-1.52 0.25 -4.05 0.76 -6.58 1.52c-2.78 0.76 -5.31 2.02 -7.84 3.29c-11.13 6.07 -22.01 5.57 -32.63 -0.76c-6.07 -3.54 -12.65 -5.31 -19.73 -3.54c-1.52 0.25 -4.81 -1.26 -5.06 -2.28c0 -1.77 1.01 -4.55 2.28 -5.57c5.06 -3.29 10.88 -2.78 16.19 -0.51c3.29 1.26 6.32 3.04 9.11 5.06c8.85 6.32 17.71 5.82 26.81 1.01c4.55 -2.53 9.61 -4.55 14.42 -6.32c2.28 -0.76 5.31 -0.25 7.59 0.51c1.77 0.76 2.53 3.29 3.79 4.81c-1.77 1.01 -3.54 2.28 -5.57 3.04c-0.51 0.25 -1.26 0 -3.29 -0.25l0.51 0l0 -0.0099z"></path><path fill="#000" d="m946.97 785.41c-8.6 -0.51 -17.45 -0.76 -26.05 -1.52c-3.29 0 -7.34 0 -7.59 -4.81c0 -3.04 4.3 -5.57 8.85 -4.55c18.47 3.79 36.93 4.3 55.4 0.25c1.77 -0.51 4.05 1.52 6.32 2.53c-1.26 1.77 -2.53 4.81 -4.05 5.06c-6.83 1.26 -13.91 1.77 -21 2.28c-3.79 0.25 -7.84 0 -11.64 0l0 0.51l0 0l-0.25 0.25l0.01 -0.0001z"></path><path fill="#000" d="m924.97 549.65c0 -2.78 -0.25 -5.82 0 -8.6c0.25 -1.77 2.02 -3.54 3.04 -5.06c1.52 1.52 3.29 3.04 4.05 4.81c0.76 1.77 0.51 4.3 0 6.32c-2.78 19.48 -5.82 39.21 -8.85 58.69c-0.51 2.53 -0.76 5.06 -1.77 7.08c-0.76 1.52 -2.78 2.53 -4.3 3.79c-0.51 -1.77 -2.02 -3.79 -1.77 -5.31c1.52 -9.11 4.05 -18.47 5.31 -27.57c1.77 -11.38 3.04 -22.77 4.55 -34.15l-0.76 0l0.51 0l-0.0099 0z"></path><path fill="#000" d="m885.5 661.46c1.77 -4.3 4.3 -11.64 7.34 -18.72c0.51 -1.26 1.77 -2.78 3.04 -3.54c1.52 -0.76 3.29 -0.51 5.06 -0.76c0 1.77 0.51 3.79 0 5.31c-1.77 3.54 -4.81 6.83 -5.82 10.62c-1.26 5.31 -2.53 11.38 -1.26 16.44c0.76 3.54 5.06 6.83 8.35 9.36c2.28 1.77 5.82 2.02 3.79 5.82c-1.77 3.29 -5.06 3.04 -7.84 1.26c-8.09 -5.31 -12.39 -12.9 -12.9 -25.8l0.25 0l-0.0099 0.0099z"></path><path fill="#000" d="m1014.01 661.46c0 12.14 -4.05 19.73 -11.89 25.04c-1.77 1.26 -4.81 1.52 -6.83 0.76c-3.04 -1.26 -3.04 -5.31 0.25 -6.32c14.42 -4.55 13.91 -22.51 5.31 -32.88c-0.76 -0.76 -1.77 -1.52 -2.02 -2.28c-0.51 -1.77 -0.76 -3.54 -1.01 -5.31c2.02 0 4.55 -1.01 5.57 0c2.53 2.02 4.81 4.81 6.07 7.84c2.02 5.06 3.29 10.37 4.3 13.15l0.25 0l0.0001 0z"></path><path fill="#fff" d="m988.46 747.72c-25.3 6.07 -50.34 6.32 -75.63 0c7.34 -3.79 14.42 -5.31 22.01 -2.78c10.12 3.29 19.98 3.04 30.1 0c8.09 -2.78 15.94 0 23.53 3.04l0 0l0 -0.25l-0.01 -0.0099z"></path><animateTransform attributeName="transform" type="translate" from="0 0" to="0 0" calcMode="discrete" dur="5000ms" fill="freeze"></animateTransform><animateMotion keyTimes="0;0.2434;0.3466;0.4166;1" calcMode="spline" keySplines="0 0 1 1;0.42 0 0.58 1;0 0 0.58 1;0 0 1 1" dur="5000ms" fill="freeze" attributeName="transform" keyPoints="0;0;0.9127;1;1" path="m960 1522.5446l0 -666.8425l0 63.7992" additive="sum"></animateMotion><animateTransform attributeName="transform" type="scale" from="1.15 1.15" to="1.15 1.15" calcMode="discrete" dur="5000ms" fill="freeze" additive="sum"></animateTransform><animateTransform attributeName="transform" type="translate" from="-960 -868.6399" to="-960 -868.6399" calcMode="discrete" dur="5000ms" fill="freeze" additive="sum"></animateTransform></g><rect fill="#0f0f0f" width="1920" height="198" transform="matrix(1 0 0 1.0383 -0.0001 683.0724)"><animateTransform attributeName="transform" type="translate" from="0 0" to="0 0" calcMode="discrete" dur="5000ms" fill="freeze"></animateTransform><animateMotion keyTimes="0;0.1034;1" calcMode="spline" keySplines="0.42 0 0.58 1;0 0 1 1" dur="5000ms" fill="freeze" attributeName="transform" keyPoints="0;1;1" path="m959.9999 785.8629l0 -32" additive="sum"></animateMotion><animateTransform attributeName="transform" type="scale" from="1 1.0383" to="1 1.0383" calcMode="discrete" dur="5000ms" fill="freeze" additive="sum"></animateTransform><animateTransform attributeName="transform" type="translate" from="-960 -99" to="-960 -99" calcMode="discrete" dur="5000ms" fill="freeze" additive="sum"></animateTransform></rect><g transform="matrix(1 0 0 0 0 654.1438)"><path fill="#0f0f0f" d="m1672.13 628.44c-0.14 3.02 -0.21 5.68 -0.39 8.33c-1.24 18.57 -3.05 37.13 -3.6 55.72c-0.5601 18.78 13.48 32.23 32.29 32.61c9.4399 0.19 17.9 -2.33 25.95 -8.39c3.74 16.85 15.22 24.2 30.63 26.09c15.5601 1.92 28.22 -4.09 38.02 -16.11c20.6 17.24 46.66 13.32 60.55 -9.07c2.28 -3.68 4.51 -4.32 8.09 -2.54c6.34 3.15 13.05 3.71 19.9399 2.49c16.64 -2.94 28.2 -12.45 35.39 -27.55l0 -47c-3.6801 12.34 -7.36 24.68 -11.05 37.02c-2.1 7.03 -4.9 13.6 -12.14 17.88c2.6801 -9.78 3.98 -19.2 -1.05 -28c-5.35 -9.35 -14.58 -10.55 -24.51 -9.9c2.64 -20.07 5.95 -39.36 14.74 -57.38c5.22 -10.71 11.6899 -14.59 23.49 -12.3c3.54 0.69 7.01 1.77 10.51 2.67l0 -16c-6.9301 0 -13.9301 -0.62 -20.77 0.16c-5.8101 0.66 -9.52 -0.58 -11.61 -6.19c-0.55 -1.48 -1.95 -2.67 -3.03 -3.93c-13.05 -15.24 -34.3 -17.98 -52.08 -11.03c-5.61 2.19 -9.48 2.45 -14.84 -1.9c-14.87 -12.05 -40.66 -13.66 -59.0601 3.15c-6.04 5.52 -6.28 5.26 -13.2 1.25c-14.53 -8.42 -36.62 -6.03 -48.95 5.3c-8.1899 7.52 -13.3101 16.95 -16.41 27.45c-2.1801 7.4 -3.72 14.99 -5.5601 22.54m39.8901 82.7501c0 1.17 0 2.33 0 3.5c-0.0699 8.05 -1.61 9.72 -9.6801 10.5c-12.4399 1.2 -19.75 -5.22 -19.63 -17.49c0.04 -4.64 0.4399 -9.29 1.0699 -13.89c0.54 -3.96 2.87 -7.1 7.0601 -7.19c4.89 -0.11 9.89 0.29 14.65 1.33c1.6801 0.37 3.61 3.08 4.05 5.04c1.34 5.97 2.01 12.09 2.9399 18.15c-0.15 0.02 -0.29 0.04 -0.4399 0.06l-0.02 -0.01zm18.54 -72.27c-1.97 8.67 -1.79 17.82 -2.95 26.7c-1.8199 13.98 -3.9301 27.92 -5.98 41.87c-0.23 1.59 -0.8101 3.14 -1.22 4.7c-0.24 0 -0.49 0 -0.73 0c0 -4.79 0.1801 -9.59 -0.03 -14.38c-0.83 -19.05 -17.5601 -25.73 -33.39 -18.66c-1.03 0.46 -1.96 1.14 -3.47 2.02c-0.09 -1.58 -0.25 -2.78 -0.22 -3.97c0.39 -13.79 1.3 -27.44 3.5699 -41.15c1.71 -10.3 2.1 -20.77 6.48 -30.44c1.71 -3.77 3.47 -7.6 5.83 -10.97c8.88 -12.71 29.8199 -16.03 42.49 -7.02c2.3199 1.65 2.84 3.29 1.95 6.29c-4.39 14.93 -8.89 29.86 -12.33 45.02l0 -0.0101zm39.02 94.17c-1.99 8.56 -4.88 10.45 -13.6 9.67c-1.64 -0.15 -3.3101 -0.34 -4.88 -0.78c-10.98 -3.08 -14.37 -8.19 -12.22 -19.43c1.1801 -6.15 3.04 -12.19 4.89 -18.19c1.37 -4.45 4.6801 -6.74 9.39 -6.67c2.48 0.04 5.02 0 7.42 0.53c7.72 1.72 10.58 5.24 11.03 13.16c0.11 1.82 0.02 3.66 0.02 5.49c0.21 0.03 0.42 0.06 0.62 0.1c-0.87 5.38 -1.4399 10.83 -2.67 16.13l-0.0001 -0.0099zm23.1499 -64.08c-1.99 16.16 -3.04 32.44 -5.25 48.57c-1.15 8.36 -4.27 16.31 -11.95 22.15c1.3 -8.45 2.65 -16.35 3.71 -24.29c1.14 -8.51 1.16 -16.9 -6.97 -22.44c-7.4301 -5.07 -24.83 -5.32 -31.0601 2.61c-0.51 0.65 -0.79 1.48 -1.1801 2.22c-0.87 -0.33 -1.75 -0.66 -2.62 -1c3.75 -24.91 6.99 -49.91 11.48 -74.68c1.9301 -10.64 5.8101 -21.07 9.9399 -31.13c7.97 -19.41 35.6801 -24.29 52.25 -8.98c3.3 3.05 3.87 6.16 2.09 10.61c-5.26 13.21 -10.8101 26.43 -14.55 40.1c-3.21 11.75 -4.39 24.1 -5.89 36.26l0.0002 0zm35.9801 62.28c-1.11 4.59 -4.35 6.94 -9.28 6.36c-2.3 -0.27 -4.65 -0.45 -6.87 -1.05c-10.3 -2.77 -14.15 -5.75 -11.1 -15.72c1 -3.27 1.22 -6.9 1.15 -10.36c-0.27 -13.33 7.58 -15.2 18.12 -13.4c8.75 1.5 10.4399 4.39 10.23 13.5c-0.03 1.5 0 3 0 4.49c0.21 0.04 0.41 0.08 0.62 0.12c-0.9301 5.36 -1.59 10.78 -2.87 16.05l0 0.01zm47.45 -46.21c5.96 -0.14 9.75 2.12 10.67 6.54c0.47 2.26 0.63 4.58 0.87 6.47c-0.39 3.75 -0.64 7.07 -1.08 10.36c-1 7.46 -3.1801 9.29 -10.6899 9.21c-9.91 -0.11 -12.39 -3.23 -10.46 -12.9c0.84 -4.22 1.4399 -8.49 2.14 -12.74c0.83 -5.07 2.99 -6.82 8.55 -6.94l-0.0002 0.0001zm-1.09 -79.89c-12.53 20.18 -15.91 42.88 -19.6 65.71c-2.71 16.78 -6.74 33.38 -11.05 49.84c-1.33 5.08 -5.49 9.41 -8.35 14.08c-0.46 -0.27 -0.92 -0.53 -1.38 -0.8c1.34 -8.1 3 -16.15 3.95 -24.3c1.45 -12.46 -7.09 -21.92 -19.71 -21.98c-4.5699 -0.02 -9.15 0.88 -14.54 1.44c0.79 -8.44 1.51 -16.99 2.4 -25.53c2.37 -22.62 10.35 -43.75 17.27 -65.17c5.1 -15.78 12.5601 -18.5 30.23 -16.52c9.27 1.04 16.62 5.97 20.75 14.47c1.17 2.42 1.36 6.6 0.03 8.74l0 0.02z"></path><path fill="#fff" d="m1919 643.03c-3.6801 12.34 -7.36 24.68 -11.05 37.02c-2.1 7.03 -4.9 13.6 -12.14 17.88c2.6801 -9.78 3.98 -19.2 -1.05 -28c-5.35 -9.35 -14.58 -10.55 -24.51 -9.9c2.64 -20.07 5.95 -39.36 14.74 -57.38c5.22 -10.71 11.6899 -14.59 23.49 -12.3c3.54 0.69 7.01 1.77 10.51 2.67l0 50l0.0101 0.01z"></path><path fill="#fff" d="m1738.76 682.2c3.75 -24.91 6.99 -49.91 11.48 -74.68c1.9301 -10.64 5.8101 -21.07 9.9399 -31.13c7.97 -19.41 35.6801 -24.29 52.25 -8.98c3.3 3.05 3.87 6.16 2.09 10.61c-5.26 13.21 -10.8101 26.43 -14.55 40.1c-3.21 11.75 -4.39 24.1 -5.89 36.26c-1.99 16.16 -3.04 32.44 -5.25 48.57c-1.15 8.36 -4.27 16.31 -11.95 22.15c1.3 -8.45 2.65 -16.35 3.71 -24.29c1.14 -8.51 1.16 -16.9 -6.97 -22.44c-7.4301 -5.07 -24.83 -5.32 -31.0601 2.61c-0.51 0.65 -0.8 1.48 -1.1801 2.22c-0.87 -0.33 -1.75 -0.66 -2.62 -1l0.0002 0z"></path><path fill="#fff" d="m1836.05 719.39c1.34 -8.1 3 -16.15 3.95 -24.3c1.45 -12.46 -7.09 -21.92 -19.71 -21.98c-4.5699 -0.02 -9.15 0.88 -14.54 1.44c0.79 -8.44 1.51 -16.99 2.4 -25.53c2.37 -22.62 10.35 -43.75 17.27 -65.17c5.1 -15.78 12.5601 -18.5 30.23 -16.52c9.27 1.04 16.62 5.97 20.75 14.47c1.17 2.42 1.36 6.6 0.03 8.74c-12.53 20.18 -15.91 42.88 -19.6 65.71c-2.71 16.78 -6.74 33.38 -11.05 49.84c-1.33 5.08 -5.49 9.41 -8.35 14.08c-0.46 -0.27 -0.92 -0.53 -1.37 -0.8l-0.01 0.02z"></path><path fill="#fff" d="m1721.03 697.56c0 -4.79 0.1801 -9.59 -0.03 -14.38c-0.83 -19.05 -17.5601 -25.73 -33.39 -18.66c-1.03 0.46 -1.96 1.14 -3.47 2.02c-0.09 -1.58 -0.25 -2.78 -0.22 -3.97c0.39 -13.79 1.3 -27.44 3.5699 -41.15c1.71 -10.3 2.1 -20.77 6.48 -30.44c1.71 -3.77 3.47 -7.6 5.83 -10.97c8.88 -12.71 29.8199 -16.03 42.49 -7.02c2.3199 1.65 2.84 3.29 1.95 6.29c-4.39 14.93 -8.89 29.86 -12.33 45.02c-1.97 8.67 -1.79 17.82 -2.95 26.7c-1.8199 13.98 -3.9301 27.92 -5.98 41.87c-0.23 1.59 -0.8101 3.14 -1.22 4.7c-0.24 0 -0.49 0 -0.73 0l0 -0.0101z"></path><path fill="#fff" d="m1773.6 702.34c-0.87 5.38 -1.4399 10.83 -2.67 16.13c-1.99 8.56 -4.88 10.45 -13.6 9.67c-1.64 -0.15 -3.3101 -0.34 -4.88 -0.78c-10.98 -3.08 -14.37 -8.19 -12.22 -19.43c1.1801 -6.15 3.04 -12.19 4.89 -18.19c1.37 -4.45 4.6801 -6.74 9.39 -6.67c2.48 0.04 5.02 0 7.42 0.53c7.72 1.72 10.58 5.24 11.03 13.16c0.11 1.82 0.02 3.66 0.02 5.49c0.21 0.03 0.42 0.06 0.62 0.1l-0.0001 -0.0099z"></path><path fill="#fff" d="m1832.9301 700.61c-0.9301 5.36 -1.59 10.78 -2.87 16.05c-1.11 4.59 -4.35 6.94 -9.28 6.36c-2.3 -0.27 -4.65 -0.45 -6.87 -1.05c-10.3 -2.77 -14.15 -5.75 -11.1 -15.72c1 -3.27 1.22 -6.9 1.15 -10.36c-0.27 -13.33 7.58 -15.2 18.12 -13.4c8.75 1.5 10.4399 4.39 10.23 13.5c-0.03 1.5 0 3 0 4.49c0.21 0.04 0.41 0.08 0.62 0.12l0 0.01z"></path><path fill="#fff" d="m1713.37 696.56c0 1.17 0 2.33 0 3.5c-0.0699 8.05 -1.61 9.72 -9.6801 10.5c-12.4399 1.2 -19.75 -5.22 -19.63 -17.49c0.04 -4.64 0.4399 -9.29 1.0699 -13.89c0.54 -3.96 2.87 -7.1 7.0601 -7.19c4.89 -0.11 9.89 0.29 14.65 1.33c1.6801 0.37 3.61 3.08 4.05 5.04c1.34 5.97 2.01 12.09 2.9399 18.15c-0.15 0.02 -0.29 0.04 -0.4399 0.06l-0.02 -0.01z"></path><path fill="#fff" d="m1889.0601 683.47c-0.39 3.75 -0.64 7.07 -1.08 10.36c-1 7.46 -3.1801 9.29 -10.6899 9.21c-9.91 -0.11 -12.39 -3.23 -10.46 -12.9c0.84 -4.22 1.4399 -8.49 2.14 -12.74c0.83 -5.07 2.99 -6.82 8.55 -6.94c5.96 -0.14 9.75 2.12 10.67 6.54c0.47 2.26 0.63 4.58 0.87 6.47l-0.0002 0.0001z"></path><animateTransform attributeName="transform" type="translate" from="0 0" to="0 0" calcMode="discrete" dur="5000ms" fill="freeze"></animateTransform><animateMotion keyTimes="0;0.15;0.2366;0.2898;1" calcMode="spline" keySplines="0 0 1 1;0 0 0.58 1;0.42 0 1 1;0 0 1 1" dur="5000ms" fill="freeze" attributeName="transform" keyPoints="0;0;0.8511;1;1" path="m1795.6095 654.1438l0 -80l0 14" additive="sum"></animateMotion><animateTransform keyTimes="0;0.15;0.2866;1" calcMode="spline" keySplines="0 0 1 1;0 0 0.58 1;0 0 1 1" dur="5000ms" fill="freeze" attributeName="transform" values="1 0;1 0;1 1;1 1" type="scale" additive="sum"></animateTransform><animateTransform attributeName="transform" type="translate" from="-1795.6095 -588.1438" to="-1795.6095 -588.1438" calcMode="discrete" dur="5000ms" fill="freeze" additive="sum"></animateTransform></g><g transform="matrix(1 0 0 0 0 655.2219)"><path fill="#0f0f0f" d="m250.41 662.94c-0.33 -8.42 -1.55 -16.81 -2.4 -25.5l0.01 0c0 -0.11 -0.03 -0.21 -0.02 -0.33c0.08 -2.3 -0.18 -4.58 -0.3 -6.87c-0.01 -0.11 -0.03 -0.21 -0.05 -0.32c-0.3 -2.69 -0.6 -5.03 -1.44 -7.63c-0.06 -0.18 -0.09 -0.36 -0.1 -0.53c-0.12 -0.48 -0.19 -0.96 -0.24 -1.45c-0.17 -0.49 -0.28 -1 -0.37 -1.52l-0.15 -0.43c0 0 -0.03 -0.07 -0.04 -0.1c0 0 0 -0.01 0 -0.02l-16.75 -48.6c0 0 -0.03 -0.04 -0.04 -0.06c-0.49 -0.95 -0.91 -1.91 -1.41 -2.84c-0.4 -0.63 -0.88 -1.23 -1.54 -1.81c-1.16 -1.02 -2.55 -1.72 -3.93 -2.43c-1.25 -0.59 -2.49 -1.21 -3.77 -1.74c-2.67 -1.1 -5.41 -1.96 -8.22 -2.59c-0.26 -0.06 -0.48 -0.15 -0.68 -0.25c-0.03 0 -0.06 -0.01 -0.08 -0.02c-0.14 -0.03 -0.27 -0.08 -0.4 -0.14c-0.23 -0.02 -0.45 -0.05 -0.65 -0.12c-2.8 -0.73 -3.9 -1.05 -5.02 -1.31c-12.17 -2.77 -23.99 -1.82 -34.45 5.23c-4.64 3.12 -7.66 2.53 -11.28 -0.84c-18.49 -17.22 -50.59 -14.82 -65.01 1.96c-2.13 2.47 -4.53 3.04 -7.54 1.63c-1.64 -0.76 -3.44 -1.21 -5.21 -1.64c-20.22 -4.95 -40.22 -0.15 -51.26 18.65c-2.31 3.94 -4.94 5.01 -9.23 4.76c-6.26 -0.36 -12.56 -0.04 -18.84 -0.02l0 16c7.54 -2 15.16 -4.26 22.79 -0.86c2.38 1.06 4.64 3.11 6.14 5.27c12.48 18.04 15.04 39.28 18.95 60.06c0.18 0.94 0.02 1.94 0.02 3.36c-2.29 -0.17 -4.37 -0.4 -6.45 -0.48c-11.49 -0.46 -19.89 7.7 -20.36 20.36c-0.21 5.71 0.58 11.46 0.26 18.01c-2.7 -3.95 -6.3 -7.57 -7.92 -11.93c-4.26 -11.45 -7.65 -23.23 -11.43 -34.86c-0.55 -1.68 -1.33 -3.29 -2 -4.93l0 46c1.14 1.37 2.42 2.65 3.39 4.13c9.99 15.18 32.65 27.62 52.47 17.37c3.79 -1.96 5.58 0.4 7.35 3.47c9.24 16 23.14 22.56 41.43 20.23c8.59 -1.1 15.66 -5 21.55 -11.47c10.41 11.89 22.83 18.05 38.33 16.01c15.61 -2.06 26.95 -9.7 30.57 -26.51c7.19 5.3 14.39 7.8 22.44 8.07c17.91 0.61 31.79 -9.55 33.4 -27.08c1.31 -14.3 0.05 -28.87 -0.51 -43.3l-0.01 -0.0399zm-200.34 46.69c-2.76 2.83 -11.95 3.66 -15.1 1.33c-1.41 -1.04 -2.22 -3.1 -2.92 -4.85c-0.61 -1.51 -0.79 -3.23 -0.94 -4.88c-0.29 -3.15 -0.43 -6.31 -0.63 -9.47c-0.14 -8.76 2.96 -11.94 11.45 -11.72c4.72 0.12 7.92 1.82 8.4 7.14c0.51 5.78 1.6 11.52 1.97 17.31c0.11 1.69 -0.98 3.88 -2.22 5.15l-0.01 -0.0101zm23.31 6.89c-2.86 -9.48 -5.3 -19.13 -7.26 -28.84c-3.67 -18.19 -6.01 -36.7 -10.59 -54.64c-2.7 -10.57 -8.13 -20.57 -13.25 -30.35c-5.35 -10.22 -4.71 -15.56 5.1 -22.01c10.71 -7.04 22.28 -7.64 33.65 -2.23c3.71 1.77 7.32 5.64 9.04 9.43c13.59 29.81 23.23 60.68 22.94 93.91c0 0.63 -0.16 1.26 -0.13 1.06c-5.99 -0.23 -11.91 -1.44 -17.44 -0.45c-9.78 1.74 -19.31 9.67 -16.1 24.8c1.6 7.54 3.56 15.01 5.43 22.86c-5.74 -3.16 -9.66 -7.74 -11.4 -13.54l0.01 0zm39.59 12.48c-5.48 2 -11.34 3.19 -17.15 3.87c-1.42 0.17 -4.21 -2.62 -4.66 -4.46c-1.72 -7.04 -2.74 -14.26 -4.03 -21.41c0.32 -13.52 7.34 -19.09 20.49 -15.79c4.21 1.06 6.64 3.93 7.14 8.01c0.96 7.72 1.85 15.48 2.03 23.25c0.05 2.23 -1.94 5.84 -3.83 6.53l0.01 -0.0001zm27.76 -20.11c1.66 8.23 3.7 16.39 4.78 25.36c-2.58 -3.18 -5.46 -6.16 -7.67 -9.58c-5.28 -8.16 -6.57 -17.57 -7.84 -26.96c-2.96 -21.87 -5.63 -43.79 -9.19 -65.56c-1.21 -7.4 -4.51 -14.51 -7.23 -21.61c-3.97 -10.35 -8.63 -20.45 -12.21 -30.92c-0.82 -2.4 0.68 -6.6 2.52 -8.75c8.63 -10.07 25.53 -11.75 38.5 -4.24c5.72 3.31 10.73 7.42 12.96 13.94c5.62 16.43 12.27 32.62 16.39 49.43c4.64 18.93 6.96 38.43 10.29 57.68c-0.53 0.24 -1.06 0.47 -1.59 0.71c-6.88 -5.64 -14.62 -7.77 -23.24 -5.59c-12.19 3.09 -18.95 13.75 -16.46 26.09l-0.01 0zm35.44 24.34c-4.78 2.05 -9.92 3.79 -15.03 4.28c-2.41 0.23 -6.17 -2.18 -7.52 -4.46c-6.06 -10.25 -7.27 -21.53 -5.29 -33.18c0.67 -3.95 3.59 -5.66 6.9 -7.17c12.65 -5.76 23.23 0.11 24.82 13.77c0.59 5.11 1.5 10.18 2.27 15.26c0.73 5.38 -1.42 9.48 -6.14 11.5l-0.01 -0.0001zm55.21 -18.33c-6.42 3.6 -13.25 4.26 -19.98 1.08c-1.82 -0.86 -4.03 -3.15 -4.16 -4.93c-0.52 -6.89 -0.9 -13.91 -0.15 -20.75c0.77 -7.01 4.97 -10.03 11.82 -10.27c8.88 -0.31 14.23 2.62 15.99 9.33c0.95 3.64 1.07 7.5 1.56 11.26c-0.58 5.25 0.7 11.04 -5.08 14.28l0 -0.0001zm5.61 -42.2c-0.04 0.78 -0.12 1.56 -0.2 2.67c-7.35 -3.56 -14.53 -6.35 -22.61 -4.36c-7.45 1.84 -12.84 5.95 -13.47 13.95c-0.55 7.06 -0.12 14.2 -0.81 21.58c-0.96 -3.27 -2.29 -6.47 -2.81 -9.81c-3.15 -20.15 -5.52 -40.44 -9.38 -60.44c-2.11 -10.96 -6.55 -21.48 -10.12 -32.14c-2.42 -7.22 -5.25 -14.29 -7.63 -21.52c-0.45 -1.38 -0.24 -3.7 0.66 -4.7c10.29 -11.46 35.56 -12.72 45.08 0.37c0.88 1.21 2.01 2.34 2.49 3.7c4.44 12.59 9.75 24.99 12.88 37.91c4.18 17.24 6.77 34.88 5.91 52.79l0.01 0.0001z"></path><path fill="#fff" d="m0 602.03c7.54 -2 15.16 -4.26 22.79 -0.86c2.38 1.06 4.64 3.11 6.14 5.27c12.48 18.04 15.04 39.28 18.95 60.06c0.18 0.94 0.02 1.94 0.02 3.36c-2.29 -0.17 -4.37 -0.39 -6.45 -0.48c-11.49 -0.46 -19.89 7.7 -20.36 20.36c-0.21 5.71 0.58 11.46 0.26 18.01c-2.7 -3.95 -6.3 -7.57 -7.92 -11.93c-4.26 -11.45 -7.65 -23.23 -11.43 -34.86c-0.55 -1.68 -1.33 -3.29 -2 -4.93c0 -18 0 -36 0 -54l0 -0.0001z"></path><path fill="#fff" d="m180.43 688.39c-6.88 -5.64 -14.62 -7.77 -23.24 -5.59c-12.19 3.09 -18.95 13.75 -16.46 26.09c1.66 8.23 3.7 16.39 4.78 25.36c-2.58 -3.18 -5.46 -6.16 -7.67 -9.58c-5.28 -8.16 -6.57 -17.57 -7.84 -26.96c-2.96 -21.87 -5.63 -43.79 -9.19 -65.56c-1.21 -7.4 -4.51 -14.51 -7.23 -21.61c-3.97 -10.35 -8.63 -20.45 -12.21 -30.92c-0.82 -2.4 0.68 -6.6 2.52 -8.75c8.63 -10.07 25.53 -11.75 38.5 -4.24c5.72 3.31 10.73 7.42 12.96 13.94c5.62 16.43 12.27 32.62 16.39 49.43c4.64 18.93 6.96 38.43 10.29 57.68c-0.53 0.24 -1.06 0.47 -1.59 0.71l-0.01 0z"></path><path fill="#fff" d="m112.89 682.85c-5.99 -0.23 -11.91 -1.44 -17.44 -0.45c-9.78 1.74 -19.31 9.67 -16.1 24.8c1.6 7.54 3.56 15.01 5.43 22.86c-5.74 -3.16 -9.66 -7.74 -11.4 -13.54c-2.86 -9.48 -5.3 -19.13 -7.26 -28.84c-3.67 -18.19 -6.01 -36.7 -10.59 -54.64c-2.7 -10.57 -8.13 -20.57 -13.25 -30.35c-5.35 -10.22 -4.71 -15.56 5.1 -22.01c10.71 -7.04 22.28 -7.64 33.65 -2.23c3.71 1.77 7.32 5.64 9.04 9.43c13.59 29.81 23.23 60.68 22.94 93.91c0 0.63 -0.16 1.26 -0.13 1.06l0.01 0.0001z"></path><path fill="#fff" d="m236.79 675.37c-7.35 -3.56 -14.53 -6.35 -22.61 -4.36c-7.45 1.84 -12.84 5.95 -13.47 13.95c-0.55 7.06 -0.12 14.2 -0.81 21.58c-0.96 -3.27 -2.29 -6.47 -2.81 -9.81c-3.15 -20.15 -5.52 -40.44 -9.38 -60.44c-2.11 -10.96 -6.55 -21.48 -10.12 -32.14c-2.42 -7.22 -5.25 -14.29 -7.63 -21.52c-0.45 -1.38 -0.24 -3.7 0.66 -4.7c10.29 -11.46 35.56 -12.72 45.08 0.37c0.88 1.21 2.01 2.34 2.49 3.7c4.44 12.59 9.75 24.99 12.88 37.91c4.18 17.24 6.77 34.88 5.91 52.79c-0.04 0.78 -0.12 1.56 -0.2 2.67l0.01 0.0001z"></path><path fill="#fff" d="m182.31 721.73c0.73 5.38 -1.42 9.48 -6.14 11.5c-4.78 2.05 -9.92 3.79 -15.03 4.28c-2.41 0.23 -6.17 -2.18 -7.52 -4.46c-6.06 -10.25 -7.27 -21.53 -5.29 -33.18c0.67 -3.95 3.59 -5.66 6.9 -7.17c12.65 -5.76 23.23 0.11 24.82 13.77c0.59 5.11 1.5 10.18 2.27 15.26l-0.01 -0.0001z"></path><path fill="#fff" d="m87.13 707c0.32 -13.52 7.34 -19.09 20.49 -15.79c4.21 1.06 6.64 3.93 7.14 8.01c0.96 7.72 1.85 15.48 2.03 23.25c0.05 2.23 -1.94 5.84 -3.83 6.53c-5.48 2 -11.34 3.19 -17.15 3.87c-1.42 0.17 -4.21 -2.62 -4.66 -4.46c-1.72 -7.04 -2.74 -14.26 -4.03 -21.41l0.01 -0.0001z"></path><path fill="#fff" d="m236.46 700.62c-0.58 5.25 0.7 11.04 -5.08 14.28c-6.42 3.6 -13.25 4.26 -19.98 1.08c-1.82 -0.86 -4.03 -3.15 -4.16 -4.93c-0.52 -6.89 -0.9 -13.91 -0.15 -20.75c0.77 -7.01 4.97 -10.03 11.82 -10.27c8.88 -0.31 14.23 2.62 15.99 9.33c0.95 3.64 1.07 7.5 1.56 11.26l0 -0.0001z"></path><path fill="#fff" d="m30.48 691.76c-0.14 -8.76 2.96 -11.94 11.45 -11.72c4.72 0.12 7.92 1.82 8.4 7.14c0.51 5.78 1.6 11.52 1.97 17.31c0.11 1.69 -0.98 3.88 -2.22 5.15c-2.76 2.83 -11.95 3.66 -15.1 1.33c-1.41 -1.04 -2.22 -3.1 -2.92 -4.85c-0.61 -1.51 -0.79 -3.23 -0.94 -4.88c-0.29 -3.15 -0.43 -6.31 -0.63 -9.47l-0.01 -0.0101z"></path><animateTransform attributeName="transform" type="translate" from="0 0" to="0 0" calcMode="discrete" dur="5000ms" fill="freeze"></animateTransform><animateMotion keyTimes="0;0.15;0.2366;0.2898;1" calcMode="spline" keySplines="0 0 1 1;0 0 0.58 1;0.42 0 1 1;0 0 1 1" dur="5000ms" fill="freeze" attributeName="transform" keyPoints="0;0;0.8578;1;1" path="m123.9943 655.2219l0 -80l0 13.2597" additive="sum"></animateMotion><animateTransform keyTimes="0;0.15;0.2866;1" calcMode="spline" keySplines="0 0 1 1;0 0 0.58 1;0 0 1 1" dur="5000ms" fill="freeze" attributeName="transform" values="1 0;1 0;1 1;1 1" type="scale" additive="sum"></animateTransform><animateTransform attributeName="transform" type="translate" from="-123.9943 -575.2219" to="-123.9943 -575.2219" calcMode="discrete" dur="5000ms" fill="freeze" additive="sum"></animateTransform></g></g></g></g></g></g></svg>