<svg xmlns="http://www.w3.org/2000/svg" viewBox="0 0 1920 910" overflow="hidden" preserveAspectRatio="xMidYMid meet" id="eaf-b479-0"><!-- Created with Expressive Animator v1.3.1 | https://expressive.app/expressive-animator/ --><defs><clipPath id="eaf-b479-1"><rect x="0" y="0" width="1920" height="910"></rect></clipPath><clipPath id="eaf-b479-2"><path d="m0 0l1920 0l0 910l-1920 0l0 -910z" clip-rule="evenodd"></path></clipPath></defs><g clip-path="url('#eaf-b479-1')" style="isolation: isolate;"><g><g clip-path="url('#eaf-b479-2')"><path fill="#ad0000" d="m59.87 316.93l17.13 -24.01c4.01 -5.62 4.02 -14.72 -0.06 -20.26l-7.65 -12.2c-3.23 -6.02 -11.33 -10.1 -18.09 -8.97l-29.11 4.89c-6.77 1.12 -13.22 -3.48 -14.31 -10.21l-7.62 -45.02c-1.11 -6.69 3.52 -13.18 10.23 -14.35l29.14 -4.86c6.77 -1.17 13.13 -7.56 14.2 -14.37l3.2 -14.02c2.03 -6.52 -0.88 -15.11 -6.47 -19.1l-24 -17.12c-5.56 -3.96 -6.87 -11.86 -2.92 -17.41l26.54 -37.21c3.95 -5.54 11.79 -6.79 17.35 -2.82l24 17.12c5.59 3.99 14.68 3.92 20.2 -0.15l12.25 -7.64c6.08 -3.21 10.09 -11.35 8.93 -18.05l-4.88 -29.16c-1.09 -6.71 3.5 -13.15 10.2 -14.3l45.09 -7.54c6.7 -1.13 13.14 3.47 14.31 10.21l4.87 29.1c1.13 6.76 7.58 13.15 14.33 14.23l14.03 3.26c6.58 2.04 15.16 -0.92 19.14 -6.49l17.16 -24.06c3.95 -5.54 11.8 -6.85 17.37 -2.88l37.13 26.48c5.58 3.98 6.87 11.81 2.92 17.35l-17.16 24.06c-3.98 5.58 -3.94 14.68 0.08 20.2l7.69 12.22c3.2 6.02 11.37 10.06 18.15 8.93l29.1 -4.87c6.7 -1.12 13.18 3.5 14.33 10.22l7.51 45.05c1.13 6.74 -3.46 13.18 -10.2 14.3l-29.15 4.89c-6.72 1.09 -13.1 7.53 -14.2 14.29l-3.25 14.06c-2.01 6.58 0.88 15.19 6.48 19.19l24.02 17.13c5.6 3.99 6.92 11.77 2.96 17.31l-26.54 37.21c-3.95 5.54 -11.79 6.91 -17.39 2.92l-24.02 -17.13c-5.6 -3.99 -14.67 -3.95 -20.21 0.07l-12.2 7.6c-6.05 3.26 -10.02 11.35 -8.92 18.13l4.88 29.13c1.12 6.75 -3.5 13.24 -10.23 14.35l-45 7.5c-6.75 1.14 -13.23 -3.49 -14.33 -10.22l-4.86 -29.12c-1.15 -6.77 -7.67 -13.12 -14.39 -14.2l-14.06 -3.29c-6.52 -2.02 -15.15 0.93 -19.16 6.55l-17.13 24.01c-3.97 5.57 -11.78 6.87 -17.36 2.89l-37.13 -26.48c-5.57 -3.97 -6.9 -11.78 -2.93 -17.36l0.01 0.02zm181.27 -89.85c19.31 -27.08 13 -64.63 -14.02 -83.9c-27.06 -19.3 -64.59 -13.02 -83.91 14.06c-19.25 27 -13.01 64.58 14.05 83.88c27.03 19.28 64.62 12.96 83.87 -14.03l0.01 -0.01z" transform="matrix(1.024 0 0 1.024 1426.7706 -223.7828)"><animateTransform attributeName="transform" type="translate" from="1623.5466 -27.0297" to="1623.5466 -27.0297" calcMode="discrete" dur="10000ms" repeatCount="indefinite"></animateTransform><animateTransform keyTimes="0;0.1033;0.9983;1" calcMode="linear" dur="10000ms" repeatCount="indefinite" attributeName="transform" values="0;37.2513;360;360" type="rotate" additive="sum"></animateTransform><animateTransform attributeName="transform" type="skewX" from="0" to="0" calcMode="discrete" dur="10000ms" repeatCount="indefinite" additive="sum"></animateTransform><animateTransform attributeName="transform" type="scale" from="1.024 1.024" to="1.024 1.024" calcMode="discrete" dur="10000ms" repeatCount="indefinite" additive="sum"></animateTransform><animateTransform attributeName="transform" type="translate" from="-192.1733 -192.1509" to="-192.1733 -192.1509" calcMode="discrete" dur="10000ms" repeatCount="indefinite" additive="sum"></animateTransform></path></g></g></g></svg>