<svg xmlns="http://www.w3.org/2000/svg" viewBox="0 0 42 21" overflow="hidden" preserveAspectRatio="xMidYMid meet" id="eaf-112c1-0"><!-- Created with Expressive Animator v1.3.1 | https://expressive.app/expressive-animator/ --><defs><clipPath id="eaf-112c1-1"><rect x="0" y="0" width="42" height="21"></rect></clipPath></defs><g clip-path="url('#eaf-112c1-1')" style="isolation: isolate;"><g><g transform="translate(0 0)"><rect fill="#fff" width="42" height="21" rx="1.21" transform="matrix(0 0 0 0 21 10.5)"><animateTransform attributeName="transform" type="translate" from="21 10.5" to="21 10.5" calcMode="discrete" dur="2000ms" fill="freeze"></animateTransform><animateTransform keyTimes="0;0.1835;1" calcMode="spline" keySplines="0 0 0.58 1;0 0 1 1" dur="2000ms" fill="freeze" attributeName="transform" values="0 0;1 1;1 1" type="scale" additive="sum"></animateTransform><animateTransform attributeName="transform" type="translate" from="-21 -10.5" to="-21 -10.5" calcMode="discrete" dur="2000ms" fill="freeze" additive="sum"></animateTransform></rect><g transform="matrix(0 0 0 0 21 10.5)"><path fill="#0f0f0f" fill-rule="evenodd" d="m0 0l6.0061 0l0 6.3925l-6.0061 0" transform="matrix(1.3886 0 0 1.4439 15.6979 9.6595)"><animate keyTimes="0;0.15;0.5;1" calcMode="spline" keySplines="0 0 1 1;0.42 0 0.58 1;0 0 1 1" dur="2000ms" fill="freeze" attributeName="d" values="m0 0l6.0061 0l0 6.3925l-6.0061 0;m0 0l6.0061 0l0 6.3925l-6.0061 0;m5.878 -1.7471l0.1281 1.7471l0 6.3925l-0.1281 -1.7471;m5.878 -1.7471l0.1281 1.7471l0 6.3925l-0.1281 -1.7471"></animate></path><path fill="#0f0f0f" d="m29 7.51c0 -0.68 -0.37 -1.3 -0.96 -1.64l-6.55 -3.64c-0.56 -0.31 -1.25 -0.31 -1.82 0l-6.55 3.64c-0.59 0.33 -0.96 0.96 -0.96 1.64l0 10.06c0 1.03 0.83 1.87 1.86 1.87l2.38 0c0.5 0.01 0.9 -0.39 0.9 -0.89l0 -7c0 -0.52 0.42 -0.94 0.94 -0.94l4.68 0c0.52 0 0.94 0.42 0.94 0.94l0 7.03c0 0.49 0.4 0.9 0.89 0.9l2.37 0c1.04 0.01 1.88 -0.82 1.88 -1.86l0 -10.11l0 0z"></path><animateTransform attributeName="transform" type="translate" from="21 10.5" to="21 10.5" calcMode="discrete" dur="2000ms" fill="freeze"></animateTransform><animateTransform keyTimes="0;0.0335;0.1835;0.267;1" calcMode="spline" keySplines="0 0 1 1;0 0 0.58 1;0 0 0.58 1;0 0 1 1" dur="2000ms" fill="freeze" attributeName="transform" values="0 0;0 0;1.05 1.05;1 1;1 1" type="scale" additive="sum"></animateTransform><animateTransform attributeName="transform" type="translate" from="-20.58 -10.7388" to="-20.58 -10.7388" calcMode="discrete" dur="2000ms" fill="freeze" additive="sum"></animateTransform></g></g></g></g></svg>