<svg xmlns="http://www.w3.org/2000/svg" viewBox="0 0 1900 665" overflow="hidden" preserveAspectRatio="xMidYMid meet" id="eaf-14851-0"><!-- Created with Expressive Animator v1.3.1 | https://expressive.app/expressive-animator/ --><defs><clipPath id="eaf-14851-1"><rect x="0" y="0" width="1900" height="665"></rect></clipPath><clipPath id="eaf-14851-2"><path d="m-246.0519 179.1631l140.1924 79.6593q188.8303 -73.1573 197.4136 -79.6593c8.5833 -6.502 32.9023 -117.2199 32.9023 -120.6075q0 -3.3876 -370.5083 120.6075z" transform="matrix(1.5289 -0.2696 0.2121 1.2027 1543.2043 192.5528)"></path></clipPath></defs><g clip-path="url('#eaf-14851-1')" style="isolation: isolate;"><g><g transform="translate(0 0)"><g><g transform="translate(0 0)"><g><g><path fill="#fff" d="m1625.53 512.59l123.4301 -71.28c1.13 -0.65 2.49 -0.75 3.6899 -0.26l45.1899 18.14c3.12 1.25 3.6 5.47 0.85 7.4l-121.91 85.08c-1.4399 1.01 -3.36 1.02 -4.8101 0.02l-46.71 -31.94c-2.5699 -1.76 -2.4301 -5.6 0.27 -7.16l0.0001 0z"></path><path fill="#ad0000" d="m1674.36 553.92c-1.13 0 -2.27 -0.33 -3.24 -0.99l-46.71 -31.94c-1.64 -1.12 -2.5699 -2.97 -2.49 -4.95c0.0699 -1.98 1.15 -3.76 2.86 -4.75l0.75 1.3l-0.75 -1.3l123.4301 -71.28c1.53 -0.89 3.36 -1.01 5.01 -0.35l45.1899 18.14c1.99 0.8 3.3199 2.54 3.5601 4.67c0.24 2.13 -0.66 4.13 -2.42 5.36l-121.9 85.07c-0.98 0.68 -2.13 1.02 -3.28 1.02l-0.01 0zm76.71 -111.67c-0.47 0 -0.9399 0.12 -1.36 0.37l-123.4301 71.28c-0.83 0.48 -1.33 1.3 -1.36 2.26c-0.04 0.96 0.4 1.82 1.1899 2.36l46.71 31.94c0.9301 0.64 2.1801 0.63 3.1 -0.01l121.9 -85.07c0.84 -0.58 1.27 -1.54 1.15 -2.55c-0.12 -1.01 -0.75 -1.84 -1.6899 -2.22l-45.1899 -18.14c-0.33 -0.13 -0.6801 -0.2 -1.02 -0.2l0 -0.02z"></path></g><g><g><g><polygon points="1635.01,514.84 1642.24,510.61 1650.48,516.25 1643.23,520.63 1635.01,514.84" fill="#ad0000"><animate keyTimes="0;0.23;0.23;0.4866;0.4866;0.7434;0.7434;1;1" calcMode="linear" dur="5000ms" repeatCount="indefinite" attributeName="fill" values="#ad0000;#ad0000;#0f0f0f;#0f0f0f;#ad0000;#ad0000;#0f0f0f;#0f0f0f;#ad0000"></animate></polygon><path fill="#0f0f0f" d="m1642.28 512.27l5.62 3.86l-4.7 2.82l-5.6 -3.92l4.6899 -2.76l0 0l-0.01 0zm-0.0901 -3.31l-9.77 5.69l10.84 7.66l9.8101 -5.95l-10.88 -7.4l0 0l0 0.0001z"></path></g><g><polygon points="1648.54,506.93 1655.77,502.7 1664.0601,508.07 1656.8101,512.44 1648.54,506.93" fill="#0f0f0f"></polygon><path fill="#0f0f0f" d="m1655.8199 504.31l5.65 3.67l-4.7 2.81l-5.64 -3.74l4.6899 -2.75l0 0l0 0.01zm-0.1 -3.21l-9.77 5.68l10.9 7.3l9.8101 -5.94l-10.9399 -7.05l0 0l-0.0001 0.01z"></path></g><g><polygon points="1662.0699,499.03 1669.3,494.81 1677.64,499.91 1670.39,504.27 1662.0699,499.03" fill="#ad0000"><animate keyTimes="0;0;0.23;0.23;0.4866;0.4866;0.7434;0.7434;1" calcMode="linear" dur="5000ms" repeatCount="indefinite" attributeName="fill" values="#ad0000;#0f0f0f;#0f0f0f;#ad0000;#ad0000;#0f0f0f;#0f0f0f;#ad0000;#ad0000"></animate></polygon><path fill="#0f0f0f" d="m1669.36 496.38l5.6801 3.49l-4.7 2.81l-5.67 -3.55l4.6899 -2.74l0 0l0 -0.01zm-0.12 -3.13l-9.77 5.67l10.96 6.95l9.8101 -5.92l-11 -6.69l0 0l0 -0.01z"></path></g><g><polygon points="1675.6,491.14 1682.83,486.94 1691.21,491.77 1683.96,496.11 1675.6,491.14" fill="#ad0000"><animate keyTimes="0;0.23;0.23;0.4866;0.4866;0.7434;0.7434;1;1" calcMode="linear" dur="5000ms" repeatCount="indefinite" attributeName="fill" values="#ad0000;#ad0000;#0f0f0f;#0f0f0f;#ad0000;#ad0000;#0f0f0f;#0f0f0f;#ad0000"></animate></polygon><path fill="#0f0f0f" d="m1682.89 488.46l5.71 3.3l-4.6899 2.8l-5.7 -3.37l4.6801 -2.74l0 0l-0.0001 0.01zm-0.13 -3.04l-9.76 5.65l11.02 6.59l9.8101 -5.91l-11.0601 -6.33l0 0l-0.01 0z"></path></g><g><polygon points="1689.13,483.28 1696.35,479.08 1704.78,483.64 1697.53,487.98 1689.13,483.28" fill="#0f0f0f"></polygon><path fill="#0f0f0f" d="m1696.42 480.56l5.74 3.12l-4.6899 2.8l-5.73 -3.18l4.6801 -2.73l0 0l-0.0001 -0.01zm-0.14 -2.95l-9.76 5.64l11.08 6.23l9.8 -5.9l-11.12 -5.97l0 0l0 0z"></path></g><g><polygon points="1702.65,475.43 1709.87,471.25 1718.34,475.53 1711.1,479.86 1702.65,475.43" fill="#ad0000"><animate keyTimes="0;0.23;0.23;0.4866;0.4866;0.7434;0.7434;1;1" calcMode="linear" dur="5000ms" repeatCount="indefinite" attributeName="fill" values="#ad0000;#ad0000;#0f0f0f;#0f0f0f;#ad0000;#ad0000;#0f0f0f;#0f0f0f;#ad0000"></animate></polygon><path fill="#0f0f0f" d="m1709.95 472.68l5.77 2.94l-4.6899 2.79l-5.76 -3l4.6801 -2.73l0 0l-0.0001 0zm-0.1599 -2.86l-9.76 5.63l11.14 5.87l9.8 -5.88l-11.1801 -5.62l0 0z"></path></g><g><polygon points="1716.17,467.6 1723.39,463.43 1731.91,467.44 1724.66,471.76 1716.17,467.6" fill="#0f0f0f"></polygon><path fill="#0f0f0f" d="m1723.48 464.81l5.8 2.75l-4.6899 2.78l-5.79 -2.81l4.6801 -2.72l0 0l-0.0001 0zm-0.1799 -2.77l-9.76 5.61l11.2 5.52l9.8 -5.87l-11.24 -5.26l0 0l0 0z"></path></g><g><polygon points="1729.6899,459.79 1736.9,455.62 1745.47,459.36 1738.23,463.67 1729.6899,459.79" fill="#ad0000"><animate keyTimes="0;0;0.23;0.23;0.4866;0.4866;0.7434;0.7434;1" calcMode="linear" dur="5000ms" repeatCount="indefinite" attributeName="fill" values="#ad0000;#0f0f0f;#0f0f0f;#ad0000;#ad0000;#0f0f0f;#0f0f0f;#ad0000;#ad0000"></animate></polygon><path fill="#0f0f0f" d="m1737 456.96l5.83 2.57l-4.6899 2.78l-5.8199 -2.63l4.6801 -2.71l0 0l-0.0001 -0.01zm-0.1899 -2.67l-9.75 5.6l11.25 5.16l9.79 -5.86l-11.3 -4.9l0 0l0.01 0z"></path></g><g><polygon points="1743.2,451.99 1750.42,447.84 1759.03,451.31 1751.78,455.61 1743.2,451.99" fill="#0f0f0f"></polygon><path fill="#0f0f0f" d="m1750.52 449.13l5.86 2.38l-4.6899 2.77l-5.85 -2.45l4.6801 -2.71l0 0l-0.0001 0.01zm-0.2001 -2.59l-9.75 5.59l11.3101 4.8l9.8 -5.85l-11.36 -4.54l0 0l-0.0001 0z"></path></g></g><g><g><polygon points="1650,525.29 1657.27,520.79 1665.55,526.23 1658.25,530.86 1650,525.29" fill="#ad0000"><animate keyTimes="0;0;0.23;0.23;0.4866;0.4866;0.7434;0.7434;1" calcMode="linear" dur="5000ms" repeatCount="indefinite" attributeName="fill" values="#ad0000;#0f0f0f;#0f0f0f;#ad0000;#ad0000;#0f0f0f;#0f0f0f;#ad0000;#ad0000"></animate></polygon><path fill="#0f0f0f" d="m1657.3101 522.46l5.64 3.72l-4.72 2.99l-5.63 -3.78l4.71 -2.93l0 0l0 0.0001zm-0.0801 -3.33l-9.83 6.05l10.89 7.39l9.87 -6.3l-10.9301 -7.13l0 0l0 -0.01z"></path></g><g><polygon points="1663.61,516.88 1670.88,512.39 1679.21,517.55 1671.92,522.18 1663.61,516.88" fill="#ad0000"><animate keyTimes="0;0.23;0.23;0.4866;0.4866;0.7434;0.7434;1;1" calcMode="linear" dur="5000ms" repeatCount="indefinite" attributeName="fill" values="#ad0000;#ad0000;#0f0f0f;#0f0f0f;#ad0000;#ad0000;#0f0f0f;#0f0f0f;#ad0000"></animate></polygon><path fill="#0f0f0f" d="m1670.9301 514.02l5.67 3.53l-4.72 2.99l-5.66 -3.6l4.71 -2.92l0 0l0 -0.0001zm-0.0901 -3.25l-9.83 6.03l10.95 7.03l9.87 -6.29l-10.99 -6.77l0 0l0 -0.0001z"></path></g><g><polygon points="1677.23,508.48 1684.5,504.01 1692.87,508.9 1685.5699,513.52 1677.23,508.48" fill="#0f0f0f"></polygon><path fill="#0f0f0f" d="m1684.55 505.59l5.7 3.35l-4.72 2.98l-5.6899 -3.41l4.71 -2.92l0 0zm-0.1101 -3.16l-9.83 6.02l11 6.67l9.87 -6.28l-11.05 -6.41l0 0l0.01 0z"></path></g><g><polygon points="1690.84,500.11 1698.1,495.64 1706.52,500.26 1699.23,504.87 1690.84,500.11" fill="#ad0000"><animate keyTimes="0;0;0.23;0.23;0.4866;0.4866;0.7434;0.7434;1" calcMode="linear" dur="5000ms" repeatCount="indefinite" attributeName="fill" values="#ad0000;#0f0f0f;#0f0f0f;#ad0000;#ad0000;#0f0f0f;#0f0f0f;#ad0000;#ad0000"></animate></polygon><path fill="#0f0f0f" d="m1698.16 497.17l5.73 3.16l-4.72 2.97l-5.72 -3.23l4.71 -2.91l0 0l0 0.01zm-0.12 -3.06l-9.8199 6.01l11.0601 6.31l9.87 -6.27l-11.11 -6.06l0 0l-0.0001 0.01z"></path></g><g><polygon points="1704.4399,491.75 1711.71,487.29 1720.17,491.64 1712.88,496.24 1704.4399,491.75" fill="#ad0000"><animate keyTimes="0;0.23;0.23;0.4866;0.4866;0.7434;0.7434;1;1" calcMode="linear" dur="5000ms" repeatCount="indefinite" attributeName="fill" values="#ad0000;#ad0000;#0f0f0f;#0f0f0f;#ad0000;#ad0000;#0f0f0f;#0f0f0f;#ad0000"></animate></polygon><path fill="#0f0f0f" d="m1711.78 488.78l5.76 2.98l-4.72 2.97l-5.75 -3.04l4.71 -2.9l0 0l0 -0.01zm-0.14 -2.97l-9.8199 6l11.12 5.96l9.86 -6.25l-11.17 -5.7l0 0l0.01 -0.01z"></path></g><g><polygon points="1718.05,483.41 1725.3101,478.96 1733.8199,483.03 1726.53,487.63 1718.05,483.41" fill="#ad0000"><animate keyTimes="0;0;0.23;0.23;0.4866;0.4866;0.7434;0.7434;1" calcMode="linear" dur="5000ms" repeatCount="indefinite" attributeName="fill" values="#ad0000;#0f0f0f;#0f0f0f;#ad0000;#ad0000;#0f0f0f;#0f0f0f;#ad0000;#ad0000"></animate></polygon><path fill="#0f0f0f" d="m1725.39 480.4l5.79 2.79l-4.72 2.96l-5.78 -2.86l4.71 -2.9l0 0l0 0.01zm-0.16 -2.88l-9.8199 5.98l11.1801 5.6l9.86 -6.24l-11.22 -5.34l0 0l-0.0001 0z"></path></g><g><polygon points="1731.65,475.08 1738.91,470.64 1747.46,474.45 1740.1801,479.03 1731.65,475.08" fill="#0f0f0f"></polygon><path fill="#0f0f0f" d="m1738.99 472.04l5.8199 2.61l-4.72 2.95l-5.8101 -2.67l4.71 -2.89l0 0l0.0001 0zm-0.16 -2.79l-9.8199 5.97l11.24 5.24l9.86 -6.23l-11.28 -4.98l0 0l0 0z"></path></g><g><polygon points="1745.25,466.78 1752.51,462.35 1761.1,465.88 1753.8199,470.45 1745.25,466.78" fill="#ad0000"><animate keyTimes="0;0.23;0.23;0.4866;0.4866;0.7434;0.7434;1;1" calcMode="linear" dur="5000ms" repeatCount="indefinite" attributeName="fill" values="#ad0000;#ad0000;#0f0f0f;#0f0f0f;#ad0000;#ad0000;#0f0f0f;#0f0f0f;#ad0000"></animate></polygon><path fill="#0f0f0f" d="m1752.6 463.7l5.85 2.42l-4.72 2.95l-5.84 -2.49l4.7 -2.88l0 0l0.01 0zm-0.1799 -2.7l-9.8101 5.96l11.3 4.88l9.85 -6.21l-11.34 -4.63l0 0z"></path></g><g><polygon points="1758.84,458.49 1766.1,454.07 1774.74,457.33 1767.46,461.9 1758.84,458.49" fill="#ad0000"><animate keyTimes="0;0;0.23;0.23;0.4866;0.4866;0.7434;0.7434;1" calcMode="linear" dur="5000ms" repeatCount="indefinite" attributeName="fill" values="#ad0000;#0f0f0f;#0f0f0f;#ad0000;#ad0000;#0f0f0f;#0f0f0f;#ad0000;#ad0000"></animate></polygon><path fill="#0f0f0f" d="m1766.2 455.38l5.88 2.24l-4.72 2.94l-5.87 -2.3l4.71 -2.88l0 0zm-0.2 -2.62l-9.8101 5.95l11.36 4.53l9.86 -6.2l-11.4 -4.27l0 0l-0.0099 -0.01z"></path></g></g><g><g><polygon points="1665.05,535.35 1672.36,530.6 1680.6801,535.82 1673.34,540.72 1665.05,535.35" fill="#0f0f0f"></polygon><path fill="#0f0f0f" d="m1672.4 532.28l5.66 3.57l-4.75 3.16l-5.65 -3.64l4.74 -3.1l0 0l0 0.01zm-0.0801 -3.36l-9.89 6.4l10.9301 7.11l9.9301 -6.66l-10.97 -6.85l0 0l-0.0001 -0.0001z"></path></g><g><polygon points="1678.74,526.45 1740.8101,486.29 1749.35,490.16 1687.08,531.54 1678.74,526.45" fill="#ad0000"><animate keyTimes="0;0;0.23;0.23;0.4866;0.4866;0.7434;0.7434;1" calcMode="linear" dur="5000ms" repeatCount="indefinite" attributeName="fill" values="#ad0000;#0f0f0f;#0f0f0f;#ad0000;#ad0000;#0f0f0f;#0f0f0f;#ad0000;#ad0000"></animate></polygon><path fill="#0f0f0f" d="m1740.89 487.75l5.8101 2.65l-0.64 0.42l-5.8101 3.83l-53.21 35.23l-5.6801 -3.45l51.34 -33.38l5.79 -3.75l2.39 -1.55l0 0l0.01 0zm-0.15 -2.91l-4.09 2.62l-5.79 3.72l-54.73 35.28l10.99 6.75l54.97 -36.71l5.8101 -3.87l4.11 -2.73l-11.27 -5.06l0 0l0 0z"></path></g><g><polygon points="1747.1899,482.19 1754.5,477.48 1763.08,481.08 1755.75,485.93 1747.1899,482.19" fill="#0f0f0f"></polygon><path fill="#0f0f0f" d="m1754.58 478.9l5.85 2.47l-4.75 3.12l-5.83 -2.53l4.74 -3.06l0 0l-0.01 0zm-0.1699 -2.82l-9.87 6.33l11.29 4.97l9.92 -6.58l-11.33 -4.71l0 0l-0.0101 -0.01z"></path></g><g><polygon points="1760.87,473.39 1768.17,468.69 1776.8,472.02 1769.48,476.85 1760.87,473.39" fill="#0f0f0f"></polygon><path fill="#0f0f0f" d="m1768.26 470.06l5.88 2.28l-4.74 3.12l-5.87 -2.35l4.73 -3.05l0 0zm-0.1801 -2.73l-9.87 6.31l11.35 4.61l9.91 -6.57l-11.39 -4.35l0 0l0 0z"></path></g><g><polygon points="1774.55,464.6 1781.85,459.92 1790.53,462.97 1783.2,467.8 1774.55,464.6" fill="#ad0000"><animate keyTimes="0;0.23;0.23;0.4866;0.4866;0.7434;0.7434;1;1" calcMode="linear" dur="5000ms" repeatCount="indefinite" attributeName="fill" values="#ad0000;#ad0000;#0f0f0f;#0f0f0f;#ad0000;#ad0000;#0f0f0f;#0f0f0f;#ad0000"></animate></polygon><path fill="#0f0f0f" d="m1781.95 461.24l5.91 2.1l-4.75 3.11l-5.9 -2.16l4.74 -3.05l0 0zm-0.2 -2.64l-9.87 6.3l11.4 4.25l9.91 -6.56l-11.45 -3.99l0 0l0.0099 0z"></path></g></g></g><animateTransform attributeName="transform" type="translate" from="1711.9618 496.5802" to="1711.9618 496.5802" calcMode="discrete" dur="5000ms" repeatCount="indefinite"></animateTransform><animateTransform keyTimes="0;0.5;1" calcMode="spline" keySplines="0 0 0.58 1;0.42 0 1 1" dur="5000ms" repeatCount="indefinite" attributeName="transform" values="0;22;0" type="rotate" additive="sum"></animateTransform><animateTransform attributeName="transform" type="translate" from="-1711.9618 -496.5802" to="-1711.9618 -496.5802" calcMode="discrete" dur="5000ms" repeatCount="indefinite" additive="sum"></animateTransform></g><g transform="matrix(0 0 0 0 1455.99 212.71)"><g><polygon points="1322.62,185.22 1455.99,212.71 1297.49,124.1 1322.62,185.22" fill="#fff"></polygon><path fill="#fff" d="m1215.8199 135.99c8.5 42.59 57.7 73.35 109.87 68.71c52.1801 -4.64 87.58 -42.92 79.0699 -85.51c-8.5 -42.59 -57.7 -73.35 -109.87 -68.71c-52.1801 4.64 -87.58 42.92 -79.0699 85.51l0 0z"></path></g><g><path fill="#0f0f0f" d="m1254.35 105.76l12.85 -4.67l11.11 30.54l11.16 -4.06l-11.11 -30.54l12.85 -4.67l26.8101 73.71l-12.85 4.67l-11.26 -30.96l-11.16 4.06l11.26 30.96l-12.85 4.67l-26.8101 -73.71l0 0z"></path><path fill="#0f0f0f" d="m1298.28 89.19l12.64 -4.6l4.52 12.43l-12.64 4.6l-4.52 -12.43zm6.58 17.76l12.4301 -4.52l20.53 56.44l-12.4301 4.52l-20.53 -56.44z"></path><path fill="#0f0f0f" d="m1319.46 84.47l-0.77 -2.11l15.16 -5.52l0.77 2.11l13.27 50.26l-6.3199 2.3l-22.12 -47.04l0.0099 0zm21.03 56.85l14.53 -5.28l5.3199 14.64l-14.53 5.28l-5.3199 -14.64z"></path></g><animateTransform attributeName="transform" type="translate" from="1455.99 212.71" to="1455.99 212.71" calcMode="discrete" dur="5000ms" repeatCount="indefinite"></animateTransform><animateTransform keyTimes="0;0.2;0.32;0.3734;0.8;0.8566;0.9566;1" calcMode="spline" keySplines="0 0 1 1;0.42 0 0.58 1;0 0 0.58 1;0 0 1 1;0 0 0.58 1;0.42 0 1 1;0 0 1 1" dur="5000ms" repeatCount="indefinite" attributeName="transform" values="0 0;0 0;1.1 1.1;1 1;1 1;1.1 1.1;0 0;0 0" type="scale" additive="sum"></animateTransform><animateTransform attributeName="transform" type="translate" from="-1455.99 -212.71" to="-1455.99 -212.71" calcMode="discrete" dur="5000ms" repeatCount="indefinite" additive="sum"></animateTransform></g></g></g><g clip-path="url('#eaf-14851-2')"><ellipse fill="none" stroke="#fff" stroke-width="12" stroke-dasharray="36" stroke-dashoffset="36" paint-order="stroke" rx="196.0455" ry="194.6125" transform="matrix(1.0545 -0.205 -0.3236 0.6351 1490.9949 332.5)"><animate keyTimes="0;1" calcMode="linear" dur="5000ms" repeatCount="indefinite" attributeName="stroke-dashoffset" values="36;179"></animate></ellipse></g></g></g></g></svg>