<?xml version="1.0" encoding="UTF-8"?>
<svg xmlns="http://www.w3.org/2000/svg" viewBox="0 0 42 21">
  <defs>
    <style>
      .cls-1 {
        fill: #fff;
      }

      .cls-2 {
        fill: #0f0f0f;
      }
    </style>
  </defs>
  <g id="Layer_2">
    <rect class="cls-1" width="42" height="21" rx="1.21" ry="1.21"/>
  </g>
  <g id="Layer_1">
    <path class="cls-2" d="M21,2c-4.69,0-8.5,3.81-8.5,8.5s3.81,8.5,8.5,8.5,8.5-3.81,8.5-8.5S25.69,2,21,2ZM24.57,12.99l-.87.87c-.72.72-1.88.72-2.6,0l-3.47-3.47c-.72-.72-.72-1.88,0-2.6l.87-.87c.24-.24.63-.24.87,0l1.3,1.3c.24.24.24.63,0,.87l-.87.87,1.73,1.73.87-.87c.24-.24.63-.24.87,0l1.3,1.3c.24.24.24.63,0,.87h0Z"/>
  </g>
</svg>