<?xml version="1.0" encoding="UTF-8"?>
<svg id="Layer_1" xmlns="http://www.w3.org/2000/svg" xmlns:xlink="http://www.w3.org/1999/xlink" viewBox="0 0 1920 270">
  <defs>
    <style>
      .cls-1 {
        fill: #c9c9c9;
        opacity: .75;
      }

      .cls-2 {
        fill: #fff;
      }

      .cls-3 {
        fill: none;
      }

      .cls-4 {
        fill: url(#_Áåçûìÿííûé_ãðàäèåíò_2);
      }

      .cls-5 {
        fill: #ad0000;
      }

      .cls-6 {
        fill: url(#_Áåçûìÿííûé_ãðàäèåíò_2-3);
      }

      .cls-7 {
        fill: #0f0f0f;
      }

      .cls-8 {
        fill: url(#_Áåçûìÿííûé_ãðàäèåíò_2-2);
      }

      .cls-9 {
        fill: #545454;
      }

      .cls-10 {
        fill: #f54444;
      }

      .cls-11 {
        clip-path: url(#clippath);
      }
    </style>
    <clipPath id="clippath">
      <rect class="cls-3" x="-2" y="-1" width="1923" height="272"/>
    </clipPath>
    <linearGradient id="_Áåçûìÿííûé_ãðàäèåíò_2" data-name="Áåçûìÿííûé ãðàäèåíò 2" x1="1372.9" y1="214.11" x2="1372.9" y2="214.11" gradientUnits="userSpaceOnUse">
      <stop offset=".03" stop-color="#fff"/>
      <stop offset=".54" stop-color="#383838"/>
      <stop offset=".97" stop-color="#252525"/>
    </linearGradient>
    <linearGradient id="_Áåçûìÿííûé_ãðàäèåíò_2-2" data-name="Áåçûìÿííûé ãðàäèåíò 2" x1="1276.86" y1="118.37" x2="1292.42" y2="72.08" xlink:href="#_Áåçûìÿííûé_ãðàäèåíò_2"/>
    <linearGradient id="_Áåçûìÿííûé_ãðàäèåíò_2-3" data-name="Áåçûìÿííûé ãðàäèåíò 2" x1="1400.54" y1="110.16" x2="1400.54" y2="110.16" xlink:href="#_Áåçûìÿííûé_ãðàäèåíò_2"/>
  </defs>
  <g class="cls-11">
    <rect class="cls-7" width="1920" height="270"/>
    <g>
      <polygon class="cls-2" points="23.8 329 1981.59 334.13 2092 -227.86 -92 -297.15 23.8 329"/>
      <polygon class="cls-7" points="-212.13 363.71 1976.57 341.26 2003 204.03 -302 -28 -212.13 363.71"/>
    </g>
    <g>
      <g>
        <path class="cls-7" d="M1358.21,138.1c-.98-.3-1.97-.38-2.97-.32,5.97,2.4,8.85,11.38,6.45,20.6-2.12,8.13-7.66,13.8-13.23,14.15.23.09.46.2.7.27,6.45,1.94,13.7-4.25,16.2-13.83,2.5-9.58-.7-18.93-7.15-20.87Z"/>
        <path class="cls-7" d="M1367.27,180.85c-1.08-.33-2.19-.46-3.29-.44,7.94,2.73,11.84,14.41,8.71,26.4-2.76,10.58-10.07,17.9-17.32,18.03.13.04.25.11.38.15,8.2,2.47,17.43-5.4,20.61-17.59,3.18-12.19-.89-24.08-9.09-26.55Z"/>
        <path class="cls-5" d="M1296.09,138.6c-11.55,44.26,3.23,87.42,33,96.41,2.23.67,4.48,1.11,6.74,1.37-1.03-.22-2.05-.47-3.07-.78-29.78-8.98-44.55-52.15-33-96.41,10.69-40.95,40.16-68.46,68.09-65.24-28.98-6.22-60.61,21.91-71.76,64.66Z"/>
        <path class="cls-7" d="M1372.03,85.13c-1.08-.33-2.19-.46-3.29-.44,7.94,2.73,11.84,14.41,8.71,26.4-2.76,10.58-10.07,17.9-17.32,18.03.13.04.25.11.38.15,8.2,2.47,17.43-5.4,20.61-17.59,3.18-12.19-.89-24.08-9.09-26.55Z"/>
        <path class="cls-7" d="M1393.91,129.99c-1.08-.33-2.19-.46-3.29-.44,7.94,2.73,11.84,14.41,8.71,26.4-2.76,10.58-10.07,17.9-17.32,18.03.13.04.25.11.38.15,8.2,2.47,17.43-5.4,20.61-17.59,3.18-12.19-.89-24.08-9.09-26.55Z"/>
        <path class="cls-7" d="M1330.83,110.96c-1.08-.33-2.19-.46-3.29-.44,7.94,2.73,11.84,14.41,8.71,26.4-2.76,10.58-10.07,17.9-17.32,18.03.13.04.25.11.38.15,8.2,2.47,17.43-5.4,20.61-17.59,3.18-12.19-.89-24.08-9.09-26.55Z"/>
        <path class="cls-7" d="M1328.77,167.08c-1.08-.33-2.19-.46-3.29-.44,7.94,2.73,11.84,14.41,8.71,26.4-2.76,10.58-10.07,17.9-17.32,18.03.13.04.25.11.38.15,8.2,2.47,17.43-5.4,20.61-17.59,3.18-12.19-.89-24.08-9.09-26.55Z"/>
        <path class="cls-5" d="M1374.59,75.31c-2.23-.67-4.48-1.11-6.74-1.37-27.93-3.22-57.41,24.3-68.09,65.24-11.55,44.26,3.23,87.42,33,96.41,1.02.31,2.04.56,3.07.78,28.98,6.22,60.61-21.91,71.76-64.66,11.55-44.26-3.23-87.42-33-96.41ZM1351.42,102.72c2.76-10.58,10.07-17.9,17.32-18.03,1.1-.02,2.2.11,3.29.44,8.2,2.47,12.27,14.36,9.09,26.55-3.18,12.19-12.41,20.06-20.61,17.59-.13-.04-.25-.1-.38-.15-7.94-2.73-11.84-14.41-8.71-26.4ZM1337.86,193.63c-3.18,12.19-12.41,20.06-20.61,17.59-.13-.04-.25-.1-.38-.15-7.94-2.73-11.84-14.41-8.71-26.4,2.76-10.58,10.07-17.9,17.32-18.03,1.1-.02,2.21.11,3.29.44,8.2,2.47,12.27,14.36,9.09,26.55ZM1339.92,137.51c-3.18,12.19-12.41,20.06-20.61,17.59-.13-.04-.25-.1-.38-.15-7.94-2.73-11.84-14.41-8.71-26.4,2.76-10.58,10.07-17.9,17.32-18.03,1.1-.02,2.21.11,3.29.44,8.2,2.47,12.27,14.36,9.09,26.55ZM1342.01,151.93c2.12-8.13,7.66-13.8,13.23-14.15,1-.06,1.99.02,2.97.32,6.45,1.95,9.65,11.29,7.15,20.87-2.5,9.58-9.75,15.78-16.2,13.83-.24-.07-.47-.18-.7-.27-5.97-2.4-8.85-11.38-6.45-20.6ZM1376.36,207.4c-3.18,12.19-12.41,20.06-20.61,17.59-.13-.04-.25-.1-.38-.15-7.94-2.73-11.84-14.41-8.71-26.4,2.76-10.58,10.07-17.9,17.32-18.03,1.1-.02,2.21.11,3.29.44,8.2,2.47,12.27,14.36,9.09,26.55ZM1403,156.54c-3.18,12.19-12.41,20.06-20.61,17.59-.13-.04-.25-.1-.38-.15-7.94-2.73-11.84-14.41-8.71-26.4,2.76-10.58,10.07-17.9,17.32-18.03,1.1-.02,2.21.11,3.29.44,8.2,2.47,12.27,14.36,9.09,26.55Z"/>
      </g>
      <polygon class="cls-4" points="1372.9 214.11 1372.9 214.11 1372.89 214.11 1372.9 214.11"/>
      <path class="cls-2" d="M1374.69,102.42c-.48-.14-.96-.26-1.44-.38-.03,0-.07-.02-.1-.03,0,0,0,0,0,0-18.96-4.44-39.8,13.91-47.11,41.92-7.19,27.56,1.32,54.44,19.06,61.8,0,0,0,0,0,0,0,0,.01,0,.02,0,.78.32,1.56.62,2.37.86.81.25,1.64.43,2.46.59,6.97,2.1,13.95,4.2,20.92,6.31-18.69-6.49-27.85-34.06-20.47-62.33,7.27-27.87,27.94-46.19,46.82-42-7.13-2.12-14.27-4.25-21.4-6.37-.38-.13-.76-.28-1.15-.39Z"/>
      <g>
        <path class="cls-2" d="M1290.87,250.66c-13.55,3.54-24.4-6.45-25.05-7.07.02.01.04.02.05.04-.59-.45-1.18-.92-1.81-1.44-8.33-6.93-10.46-11.87-16.44-18.23-6.09-6.48-12.11-10.09-15.66-12.2-5.37-3.18-17.45-10.77-33.08-9.84-11.78.7-23.12,4.59-34.1,8.91.55,6.71,1.2,13.56,1.97,20.56.54,4.86,1.11,9.63,1.72,14.33,5.76-2.96,15.04-6.79,27.01-7.93,5.41-.52,18.43-1.61,32.35,4.1,4.5,1.85,5.23,2.93,16.5,8.21,4.33,2.03,9.55,4.38,16.51,6.23,2.08.56,3.81.93,4.93,1.15,2.57-.23,6.19-.61,10.51-1.27,7.14-1.09,10.69-1.69,14.27-3.14,2.99-1.21,7.63-3.73,12.26-9.55-2.63,2.69-6.58,5.74-11.95,7.14Z"/>
        <path class="cls-2" d="M1288.25,193.88c-3.05-1.61-5.28-2.62-8.31-3.98-15.73-7.05-22.56-8.04-31.38-14.85-4.61-3.56-6.07-6.01-6.26-8.52-.35-4.46,3.38-9.37,3.57-9.57h0c2.63-3.26,10.21-11.86,21.65-15.07-2.69.63-5.4,1.29-8.16,2.01-8.8,2.29-17.1,4.82-24.89,7.48-.96.31-2.37.8-3.99,1.54-4.6,2.1-10.96,5-13.94,11.49-2.73,5.96-2,13.58,1.79,18.54,2.14,2.8,4.75,4.1,6.17,4.79,14.29,6.94,32.62,14.34,38.2,16.8,7.04,3.1,14.15,6.23,20.3,10.85,6.15,4.62,11.33,10.93,13.13,18.41.62,2.6.81,5.42-.2,7.9-2.25,5.56-10.35,6.23-12.88,6.5-8.13.86-14.52-2.83-17.16-4.59-.02-.01-.04-.02-.05-.04.65.62,11.5,10.61,25.05,7.07,5.36-1.4,9.32-4.44,11.95-7.14,2.13-2.18,3.39-4.14,3.8-4.8,1.81-2.91,2.56-5.44,3-6.85,2.51-7.96,2.57-17.14-1.93-24.16-3.33-5.2-8.64-8.12-19.44-13.83Z"/>
        <polygon class="cls-9" points="1270.62 141.16 1270.63 141.16 1270.62 141.16 1270.62 141.16"/>
        <path class="cls-8" d="M1270.62,141.16c-1.07.19-2.1.45-3.12.73,1.04-.24,2.09-.5,3.12-.73Z"/>
        <path class="cls-2" d="M1356.05,201.37c-.1-.02-.19-.07-.29-.09-15.24-18.95-27.4-32.5-32.94-37.75-4.8-4.54-9.58-7.96-9.58-7.96-2.67-1.92-5.46-3.65-8.32-5.27-19-10.78-31.61-9.51-31.61-9.51-.91.09-1.8.21-2.68.36,0,0,0,0,0,0-1.03.23-2.08.48-3.12.73-11.44,3.2-19.02,11.81-21.65,15.07t0,0c4.83-4.74,8.12-6.1,9.8-6.57.13-.03.43-.12.79-.21,1.51-.38,4.64-1.1,7.74-1.19,6.17-.18,12.12,2.14,17.67,4.84,15.72,7.65,28.99,21.56,43.96,35.84,3.53,3.37,6.59,6.28,8.97,8.54,1.22,1.38,2.53,2.62,3.93,3.73.02.02.06.06.08.08.01,0,.03,0,.04.01,1.94,1.52,4.02,2.77,6.27,3.7,0,0,0,0,0,0,0,0,.01,0,.02,0,.78.32,1.56.62,2.37.86.81.25,1.64.43,2.46.59,6.97,2.1,13.95,4.2,20.92,6.31-6.01-2.09-11.03-6.36-14.83-12.13Z"/>
        <path class="cls-1" d="M1254.09,150.2c3.85-1.9,8.58-3.39,12.98-3.6,1.83-1.03,3.65-2.1,5.48-3.13-7.81.56-14.76,3.37-20.82,7.96.8-.44,1.59-.86,2.36-1.24Z"/>
        <path class="cls-1" d="M1270.7,146.72c4.68.47,9.29,2.12,13.64,4.27,2.25-1.29,4.52-2.54,6.81-3.76-4.63-2-9.46-3.48-14.48-3.78-2.03,1.02-4,2.13-5.97,3.27Z"/>
        <path class="cls-1" d="M1293.33,148.22c-2.35,1.23-4.67,2.51-6.98,3.82,2.65,1.43,5.19,3.02,7.57,4.62,1.27.85,2.5,1.75,3.73,2.67,2.66-1.44,5.28-2.93,7.92-4.41-1.52-.92-3.05-1.82-4.59-2.7-2.48-1.4-5.03-2.77-7.65-4Z"/>
        <path class="cls-1" d="M1299.3,160.58c3.56,2.8,6.91,5.86,10.15,9.02,3.42-1.5,6.82-3.04,10.11-4.81-3.81-3.22-7.9-6.1-12.14-8.74-2.71,1.51-5.41,3.04-8.13,4.53Z"/>
        <path class="cls-1" d="M1321.1,166.12c-3.3,1.81-6.73,3.4-10.18,4.92,1.1,1.1,2.19,2.2,3.27,3.32,2.16,2.23,4.28,4.49,6.4,6.76,3.98-.79,7.96-1.59,11.85-2.73-2.28-2.82-4.61-5.57-7.1-8.19-1.35-1.42-2.77-2.77-4.23-4.07Z"/>
        <path class="cls-1" d="M1322.12,182.75c3.66,3.92,7.34,7.83,11.11,11.65,3.93-.03,7.86-.18,11.78-.11-3.86-4.66-7.5-9.54-11.28-14.3-3.81,1.16-7.71,1.98-11.62,2.75Z"/>
        <path class="cls-1" d="M1346.63,196.24c-3.84-.14-7.69,0-11.53.05,4.3,4.23,8.96,7.74,14.03,10.73.28.06.55.12.83.18l10.05,3.03c-4.89-4.16-9.17-9.03-13.38-13.99Z"/>
        <path class="cls-1" d="M1230.46,152.92s-.01,0-.02,0c-.08.12-.17.24-.27.35-.32.33-.66.48-.71.5-.31.14-3.72,2.25-6.67,5.16,1.26-.34,2.52-.67,3.78-.99,5.53-1.41,11.11-2.59,16.67-3.86,4.06-6.36,10.36-8.56,11.92-9.06-7.25,1.98-14.17,4.11-20.71,6.35-.96.31-2.37.8-3.99,1.54Z"/>
        <path class="cls-1" d="M1240.51,170.15c-1.37-4.13-.67-8.09.28-10.91-3.53.79-7.06,1.57-10.58,2.43-2.77.67-5.54,1.37-8.26,2.21-1.11.34-2.21.72-3.28,1.17-1.53,4.67-.12,10.25,2.2,13.92,1.01,1.59,2.68,3.61,11.21,8.32.12.07.24.13.36.2,4.39-3.45,8.82-6.85,13.4-10.04-2.42-1.94-4.31-4.2-5.34-7.29Z"/>
        <path class="cls-1" d="M1249.83,180.16c-4.45,3.05-8.76,6.31-13.01,9.63,5.38,2.73,9.24,4.31,9.57,4.44,4.79,1.93,8.74,3.5,12.04,4.79,3.41-3.68,6.88-7.47,10.7-10.77-8.53-3.05-10.37-3.06-15.59-5.96-1.3-.72-2.53-1.42-3.71-2.13Z"/>
        <path class="cls-1" d="M1274.02,190.07c-1.75,1.41-3.4,2.94-4.98,4.47-2.09,2.02-4.09,4.14-6.08,6.26,9.78,3.81,12.41,4.82,17.03,7.8.75.48,1.45.96,2.12,1.43,2.17-1.6,4.83-2.79,6.92-3.91,2.74-1.46,5.32-3.32,7.97-5.05-1.64-.99-3.54-2.05-5.85-3.32-1.63-.9-6.9-3.75-17.13-7.68Z"/>
        <path class="cls-1" d="M1301.01,203.82c-3.23,1.93-6.23,4.29-9.55,6.08-1.8.97-3.63,1.88-5.35,2.98-.04.03-.08.06-.12.08,3.85,3.2,6.02,5.99,7.5,8.28,1.31,2.02,3.03,4.69,4.02,7.8,3.76-1.38,7.76-2.13,11.67-3.13.06-.43.13-.86.17-1.31.51-6.07-1.4-12.55-5.05-17.41-.98-1.3-2.04-2.37-3.28-3.38Z"/>
        <path class="cls-1" d="M1298.23,232.61c1.32,3.65.87,7.77-1,11.28-.31.58-.65,1.11-1.01,1.62.19.04.39.07.58.12,5.35-4.54,9.89-9.96,11.73-16.59-3.52.81-7.07,1.54-10.38,2.85.03.24.05.49.07.73Z"/>
        <path class="cls-1" d="M1190.47,206.77c-6.85,1.07-13.73,2.89-20.08,5.78.94,8.64,2.13,17.26,3.14,25.9,1.64-.61,3.36-1,5.1-1.27,4.66-2.05,9.7-3.32,14.7-4.02,5.86-.82,11.8-.76,17.62.21l-2.8-27.06c-5.85-.78-11.75-.46-17.67.46Z"/>
        <path class="cls-1" d="M1215.24,207.84c.85,5.1.95,10.28,1.44,15.45.38,3.95,1.16,7.84,1.47,11.76,5.81,1.72,11.35,4.22,16.71,7.05.35.18.69.38,1.03.56-.62-8.57-.77-17.18-2.12-25.68-5.69-3.89-11.79-7.11-18.54-9.15Z"/>
        <path class="cls-1" d="M1236.67,219.05c1.11,8.32,1.23,16.74,1.9,25.11,4.05,2.3,8.08,4.73,12.26,6.76,1.05-5.33,2.28-10.63,3.29-15.98-.85-1.03-1.71-2.06-2.56-3.09-4.75-4.52-9.64-8.92-14.89-12.8Z"/>
        <path class="cls-1" d="M1259.94,241.64c-.92-.98-1.82-1.99-2.71-3.01-.92,4.58-2.17,9.1-3.66,13.53.38.16.75.33,1.14.48,3.4,1.36,6.93,2.3,10.49,3.17,1.03-2.11,2.16-4.18,3.38-6.18-1.29-.92-2.52-1.93-3.69-2.97-1.76-1.56-3.39-3.25-4.94-5.01Z"/>
        <path class="cls-1" d="M1271.03,251.21c-1.06,1.74-2.11,3.48-3.12,5.24.77.18,1.55.37,2.32.56,1.8-.21,3.83-.47,6.05-.81,2.99-.46,5.33-.83,7.32-1.21-3.14-.28-6.27-1.05-9.2-2.16-1.17-.44-2.29-1-3.37-1.62Z"/>
      </g>
      <path class="cls-6" d="M1400.57,110.17s0,0,0,0c-.02,0-.04-.01-.05-.02.02,0,.04.01.05.02Z"/>
      <path class="cls-2" d="M1400.57,110.17s-.04-.01-.05-.02c-.48-.18-.96-.35-1.45-.5-.6-.18-1.21-.34-1.82-.48-18.88-4.19-39.55,14.13-46.82,42-7.38,28.27,1.78,55.84,20.47,62.33.33.11.65.24.99.34.34.1.68.18,1.02.27,0,0,0,0,0,0,19.09,4.89,40.24-13.53,47.61-41.79,7.31-28.01-1.61-55.34-19.95-62.15Z"/>
      <g>
        <path class="cls-7" d="M1393.57,143.98c-.98-.3-1.97-.38-2.97-.32,5.97,2.4,8.85,11.38,6.45,20.6-2.12,8.13-7.66,13.8-13.23,14.15.23.09.46.2.7.27,6.45,1.95,13.7-4.25,16.2-13.83,2.5-9.58-.7-18.93-7.15-20.87Z"/>
        <path class="cls-7" d="M1402.62,186.74c-1.08-.33-2.19-.46-3.29-.44,7.94,2.73,11.84,14.41,8.71,26.4-2.76,10.58-10.07,17.9-17.32,18.03.13.04.25.11.38.15,8.2,2.47,17.43-5.4,20.61-17.59,3.18-12.19-.89-24.08-9.09-26.55Z"/>
        <path class="cls-5" d="M1331.45,144.48c-11.55,44.26,3.23,87.42,33,96.41,2.23.67,4.48,1.11,6.74,1.37-1.03-.22-2.05-.47-3.07-.78-29.78-8.98-44.55-52.15-33-96.41,10.69-40.95,40.16-68.46,68.09-65.24-28.98-6.22-60.61,21.91-71.76,64.66Z"/>
        <path class="cls-7" d="M1407.39,91.02c-1.08-.33-2.19-.46-3.29-.44,7.94,2.73,11.84,14.41,8.71,26.4-2.76,10.58-10.07,17.9-17.32,18.03.13.04.25.11.38.15,8.2,2.47,17.43-5.4,20.61-17.59,3.18-12.19-.89-24.08-9.09-26.55Z"/>
        <path class="cls-7" d="M1429.26,135.87c-1.08-.33-2.19-.46-3.29-.44,7.94,2.73,11.84,14.41,8.71,26.4-2.76,10.58-10.07,17.9-17.32,18.03.13.04.25.11.38.15,8.2,2.47,17.43-5.4,20.61-17.59,3.18-12.19-.89-24.08-9.09-26.55Z"/>
        <path class="cls-7" d="M1366.18,116.84c-1.08-.33-2.19-.46-3.29-.44,7.94,2.73,11.84,14.41,8.71,26.4-2.76,10.58-10.07,17.9-17.32,18.03.13.04.25.11.38.15,8.2,2.47,17.43-5.4,20.61-17.59,3.18-12.19-.89-24.08-9.09-26.55Z"/>
        <path class="cls-7" d="M1364.13,172.97c-1.08-.33-2.19-.46-3.29-.44,7.94,2.73,11.84,14.41,8.71,26.4-2.76,10.58-10.07,17.9-17.32,18.03.13.04.25.11.38.15,8.2,2.47,17.43-5.4,20.61-17.59,3.18-12.19-.89-24.08-9.09-26.55Z"/>
        <path class="cls-5" d="M1409.95,81.2c-2.23-.67-4.48-1.11-6.74-1.37-27.93-3.22-57.41,24.3-68.09,65.24-11.55,44.26,3.23,87.42,33,96.41,1.02.31,2.04.56,3.07.78,28.98,6.22,60.61-21.91,71.76-64.66,11.55-44.26-3.23-87.42-33-96.41ZM1386.78,108.61c2.76-10.58,10.07-17.9,17.32-18.03,1.1-.02,2.21.11,3.29.44,8.2,2.47,12.27,14.36,9.09,26.55-3.18,12.19-12.41,20.06-20.61,17.59-.13-.04-.25-.1-.38-.15-7.94-2.73-11.84-14.41-8.71-26.4ZM1373.22,199.52c-3.18,12.19-12.41,20.06-20.61,17.59-.13-.04-.25-.1-.38-.15-7.94-2.73-11.84-14.41-8.71-26.4,2.76-10.58,10.07-17.9,17.32-18.03,1.1-.02,2.21.11,3.29.44,8.2,2.47,12.27,14.36,9.09,26.55ZM1375.27,143.39c-3.18,12.19-12.41,20.06-20.61,17.59-.13-.04-.25-.1-.38-.15-7.94-2.73-11.84-14.41-8.71-26.4,2.76-10.58,10.07-17.9,17.32-18.03,1.1-.02,2.2.11,3.29.44,8.2,2.47,12.27,14.36,9.09,26.55ZM1377.36,157.81c2.12-8.13,7.66-13.8,13.23-14.15,1-.06,1.99.02,2.97.32,6.45,1.95,9.65,11.29,7.15,20.87-2.5,9.58-9.75,15.78-16.2,13.83-.24-.07-.47-.18-.7-.27-5.97-2.4-8.85-11.38-6.45-20.6ZM1411.71,213.29c-3.18,12.19-12.41,20.06-20.61,17.59-.13-.04-.25-.1-.38-.15-7.94-2.73-11.84-14.41-8.71-26.4,2.76-10.58,10.07-17.9,17.32-18.03,1.1-.02,2.2.11,3.29.44,8.2,2.47,12.27,14.36,9.09,26.55ZM1438.35,162.42c-3.18,12.19-12.41,20.06-20.61,17.59-.13-.04-.25-.1-.38-.15-7.94-2.73-11.84-14.41-8.71-26.4,2.76-10.58,10.07-17.9,17.32-18.03,1.1-.02,2.21.11,3.29.44,8.2,2.47,12.27,14.36,9.09,26.55Z"/>
      </g>
    </g>
    <g>
      <polygon class="cls-5" points="1737.44 293.97 1751.52 292.39 1782.54 21.3 1753.51 6.82 1737.44 293.97"/>
      <path class="cls-5" d="M1752.77,27.22l-334.99,33.01c-.47.05-.86.42-.86.84v198.03c0,.42.37.82.83.89l319.22,54.5c.46.08.85-.34.87-.94l15.74-285.34c.02-.6-.34-1.05-.82-1Z"/>
      <path class="cls-5" d="M1753.23,6.69l-334.99,33.01c-.47.05-.86.42-.86.84v198.03c0,.42.37.82.83.89l319.22,54.5c.46.08.85-.34.87-.94l15.74-285.34c.02-.6-.34-1.05-.82-1Z"/>
      <polygon class="cls-2" points="1421.6 226.4 1734.43 273.91 1744.22 17.92 1421.73 46.58 1421.6 226.4"/>
      <polygon class="cls-7" points="1421.72 58.06 1743.6 34.27 1744.23 17.71 1421.73 46.43 1421.72 58.06"/>
      <path class="cls-2" d="M1431.34,48.36c-1.91.16-3.45,1.61-3.46,3.23,0,1.62,1.54,2.81,3.44,2.67,1.9-.15,3.45-1.59,3.46-3.23,0-1.64-1.54-2.83-3.44-2.67Z"/>
      <path class="cls-7" d="M1442.84,47.38c-1.91.16-3.45,1.63-3.46,3.27,0,1.64,1.53,2.86,3.44,2.71,1.9-.15,3.45-1.61,3.46-3.27,0-1.66-1.53-2.87-3.44-2.71Z"/>
      <path class="cls-2" d="M1454.91,46.34c-1.91.16-3.46,1.65-3.47,3.32,0,1.67,1.53,2.9,3.43,2.76,1.9-.15,3.46-1.63,3.47-3.32.01-1.68-1.52-2.92-3.43-2.76Z"/>
      <polygon class="cls-7" points="1554.79 145.13 1714.97 151.16 1718.61 48.32 1556.42 58.22 1554.79 145.13"/>
      <polygon class="cls-5" points="1535.66 232.22 1728.3 258.83 1731.98 161.1 1537.06 152.47 1535.66 232.22"/>
      <polygon class="cls-5" points="1536.93 160.15 1731.63 170.51 1731.99 160.95 1537.07 152.36 1536.93 160.15"/>
      <g>
        <path class="cls-5" d="M1632.46,65.33c-18.23.89-33.4,17.66-33.87,37.46-.47,19.8,13.78,36.26,31.84,36.78,18.05.52,33.22-16.25,33.87-37.46s-13.6-37.67-31.84-36.78Z"/>
        <polygon class="cls-2" points="1619.5 126.75 1651.56 101.12 1620.76 78.39 1619.5 126.75"/>
      </g>
      <g>
        <polygon class="cls-5" points="1438.01 219.36 1529.17 231.69 1531.89 60.74 1438.52 66.79 1438.01 219.36"/>
        <polygon class="cls-5" points="1438.2 76.75 1531.7 72.23 1531.89 60.74 1438.23 66.51 1438.2 76.75"/>
        <g>
          <path class="cls-2" d="M1527.06,63.77l-5.46,5.7c-.22.23-.23.6-.01.81.11.11.25.15.4.14.15,0,.29-.07.4-.18l5.46-5.7c.22-.24.23-.6.01-.81-.22-.21-.58-.19-.8.05Z"/>
          <path class="cls-2" d="M1522.49,64.04c-.22-.21-.58-.19-.8.05-.22.23-.23.6-.01.81l5.29,5.12c.11.11.25.15.4.14.15,0,.29-.07.4-.19.22-.23.23-.6.01-.81l-5.29-5.12Z"/>
        </g>
        <g>
          <path class="cls-2" d="M1517.86,64.43l-6.74.39s-.06.03-.06.06v.73s.01.06.05.05l6.74-.39s.06-.03.06-.06v-.73s-.01-.06-.05-.05Z"/>
          <path class="cls-2" d="M1517.82,66.76l-6.74.37s-.06.03-.06.06v.73s.01.06.05.05l6.74-.37s.06-.03.06-.06v-.73s-.01-.06-.05-.05Z"/>
          <path class="cls-2" d="M1517.79,68.88l-6.74.36s-.06.03-.06.06v.73s.01.06.05.05l6.74-.35s.06-.03.06-.06v-.73s-.01-.06-.05-.05Z"/>
        </g>
        <path class="cls-7" d="M1453.05,81.26c-5.04.21-9.14,4.12-9.16,8.73h0c-.02,4.61,4.04,8.26,9.06,8.16h0c5.03-.1,9.13-4.01,9.16-8.73.03-4.72-4.02-8.37-9.06-8.16Z"/>
        <polygon class="cls-5" points="1438.19 108.12 1531.11 107.38 1531.14 105.98 1438.19 106.87 1438.19 108.12"/>
        <polygon class="cls-5" points="1438.08 139.72 1530.52 142.79 1530.54 141.39 1438.08 138.46 1438.08 139.72"/>
        <polygon class="cls-5" points="1437.97 170.8 1529.94 177.62 1529.96 176.22 1437.98 169.54 1437.97 170.8"/>
        <path class="cls-2" d="M1519.75,84.5c-2.13.07-3.88,1.86-3.91,3.99-.03,2.13,1.67,3.81,3.79,3.75,2.13-.05,3.88-1.84,3.91-3.99.03-2.15-1.66-3.83-3.79-3.75Z"/>
        <path class="cls-7" d="M1495.12,80.6l-27.91,1.13c-.4.02-.72.33-.73.71v.06c0,.37.32.67.72.65l27.9-1.08c.4-.02.72-.34.73-.73v-.06c0-.39-.32-.69-.71-.67Z"/>
        <path class="cls-7" d="M1507.26,86.43l-40.1,1.32c-.4.01-.72.33-.73.7v.06c0,.37.32.67.71.66l40.09-1.25c.4-.01.72-.34.73-.74v-.06c0-.39-.31-.7-.71-.69Z"/>
        <path class="cls-7" d="M1507.17,93.03l-40.06,1.01c-.4.01-.72.32-.73.7v.06c0,.37.32.67.71.66l40.05-.94c.4,0,.72-.34.73-.73v-.06c0-.39-.31-.71-.71-.7Z"/>
        <polygon class="cls-2" points="1443.71 131.01 1461.81 131.41 1461.93 114.33 1443.78 114.32 1443.71 131.01"/>
        <path class="cls-2" d="M1519.2,120.38c-2.12-.02-3.86,1.7-3.89,3.83-.03,2.13,1.66,3.88,3.77,3.92,2.11.03,3.86-1.68,3.89-3.83.03-2.15-1.66-3.9-3.77-3.92Z"/>
        <path class="cls-7" d="M1494.7,115.43l-27.76-.04c-.39,0-.72.3-.72.68v.06c0,.37.32.68.71.68l27.75.09c.39,0,.72-.31.73-.7v-.06c0-.39-.31-.7-.71-.7Z"/>
        <path class="cls-7" d="M1506.78,121.77l-39.88-.36c-.39,0-.72.3-.72.67v.06c0,.37.32.68.71.69l39.87.43c.39,0,.72-.31.73-.71v-.06c0-.39-.31-.72-.71-.72Z"/>
        <path class="cls-7" d="M1506.69,128.38l-39.84-.67c-.39,0-.72.29-.72.67v.06c0,.37.32.68.71.69l39.83.74c.39,0,.72-.31.73-.7v-.06c0-.39-.31-.72-.71-.73Z"/>
        <path class="cls-7" d="M1452.68,145.31c-4.99-.2-9.05,3.38-9.07,7.98-.02,4.61,4,8.59,8.97,8.9,4.97.31,9.03-3.27,9.07-7.98.03-4.72-3.98-8.7-8.97-8.9Z"/>
        <path class="cls-2" d="M1518.69,153.98c-2.11-.1-3.84,1.55-3.87,3.67-.03,2.13,1.65,3.95,3.75,4.07,2.1.12,3.84-1.53,3.87-3.67.03-2.15-1.65-3.97-3.75-4.07Z"/>
        <path class="cls-7" d="M1494.32,148.07l-27.62-1.14c-.39-.02-.72.28-.72.65v.06c0,.37.32.69.71.71l27.61,1.19c.39.02.72-.29.72-.67v-.06c0-.39-.31-.72-.7-.73Z"/>
        <path class="cls-7" d="M1506.33,154.89l-39.68-1.94c-.39-.02-.72.27-.72.64v.06c0,.37.32.69.71.71l39.67,2.01c.39.02.72-.29.72-.68v-.06c0-.39-.31-.73-.7-.75Z"/>
        <path class="cls-7" d="M1506.24,161.49l-39.64-2.25c-.39-.02-.71.26-.72.64v.06c0,.37.31.7.71.72l39.63,2.32c.39.02.72-.28.72-.67v-.06c0-.39-.31-.73-.7-.75Z"/>
        <path class="cls-2" d="M1516.5,207.26c-1.94-.22-3.53,1.21-3.56,3.18-.03,1.97,1.52,3.75,3.45,3.99,1.93.23,3.53-1.19,3.56-3.18.03-1.99-1.51-3.77-3.45-3.99Z"/>
        <path class="cls-2" d="M1502.1,205.66c-1.94-.22-3.53,1.18-3.55,3.12-.02,1.94,1.52,3.69,3.46,3.92,1.93.23,3.52-1.16,3.55-3.12.03-1.95-1.52-3.71-3.46-3.92Z"/>
        <path class="cls-2" d="M1485.68,203.83c-1.94-.22-3.52,1.15-3.54,3.04-.02,1.9,1.53,3.62,3.47,3.85,1.93.23,3.52-1.13,3.54-3.05s-1.53-3.64-3.47-3.85Z"/>
      </g>
      <g>
        <polygon class="cls-2" points="1543.89 178.35 1725.13 191.74 1725.5 182.02 1544.03 170.31 1543.89 178.35"/>
        <polygon class="cls-5" points="1557.97 179.39 1580 181.02 1580.19 172.64 1558.13 171.22 1557.97 179.39"/>
        <polygon class="cls-5" points="1622.36 184.15 1632.92 184.93 1633.17 176.06 1622.6 175.38 1622.36 184.15"/>
        <polygon class="cls-5" points="1640.3 185.47 1656.09 186.64 1656.37 177.56 1640.56 176.54 1640.3 185.47"/>
        <polygon class="cls-7" points="1590.45 181.79 1597.72 182.33 1597.93 173.79 1590.65 173.32 1590.45 181.79"/>
        <polygon class="cls-7" points="1671.08 187.74 1692.43 189.32 1692.75 179.9 1671.38 178.53 1671.08 187.74"/>
        <polygon class="cls-2" points="1543.66 190.41 1724.59 206.32 1724.95 196.6 1543.81 182.37 1543.66 190.41"/>
        <polygon class="cls-7" points="1698.23 204 1715.07 205.48 1715.42 195.85 1698.56 194.52 1698.23 204"/>
        <polygon class="cls-7" points="1564.58 192.25 1614.74 196.66 1614.97 187.96 1564.75 184.02 1564.58 192.25"/>
        <polygon class="cls-7" points="1602.03 182.65 1605.21 182.88 1605.43 174.27 1602.25 174.07 1602.03 182.65"/>
        <polygon class="cls-5" points="1659.58 200.64 1662.75 200.91 1663.04 191.77 1659.86 191.52 1659.58 200.64"/>
        <polygon class="cls-5" points="1630.58 198.09 1633.76 198.37 1634.01 189.49 1630.83 189.24 1630.58 198.09"/>
        <polygon class="cls-5" points="1550.66 191.06 1553.84 191.34 1554 183.2 1550.82 182.95 1550.66 191.06"/>
        <polygon class="cls-5" points="1638.07 198.74 1641.24 199.02 1641.5 190.08 1638.33 189.83 1638.07 198.74"/>
        <polygon class="cls-5" points="1651.3 199.91 1656.63 200.38 1656.91 191.29 1651.58 190.87 1651.3 199.91"/>
        <polygon class="cls-7" points="1610.43 183.27 1613.61 183.5 1613.84 174.81 1610.66 174.61 1610.43 183.27"/>
      </g>
      <g>
        <polygon class="cls-2" points="1543.4 204.47 1652.37 215.84 1652.65 206.8 1543.55 196.44 1543.4 204.47"/>
        <polygon class="cls-5" points="1551.87 205.36 1565.12 206.74 1565.29 198.51 1552.03 197.25 1551.87 205.36"/>
        <polygon class="cls-5" points="1590.58 209.4 1596.93 210.06 1597.14 201.53 1590.79 200.93 1590.58 209.4"/>
        <polygon class="cls-5" points="1601.37 210.52 1610.86 211.51 1611.09 202.86 1601.59 201.95 1601.37 210.52"/>
        <polygon class="cls-7" points="1571.4 207.39 1575.77 207.85 1575.95 199.52 1571.58 199.1 1571.4 207.39"/>
        <polygon class="cls-7" points="1619.87 212.45 1632.71 213.79 1632.96 204.93 1620.11 203.71 1619.87 212.45"/>
        <polygon class="cls-2" points="1543.18 216.52 1651.96 229.4 1652.23 220.36 1543.33 208.49 1543.18 216.52"/>
        <polygon class="cls-7" points="1636.11 227.53 1646.23 228.73 1646.5 219.74 1636.37 218.63 1636.11 227.53"/>
        <polygon class="cls-7" points="1555.76 218.01 1585.91 221.58 1586.11 213.15 1555.92 209.86 1555.76 218.01"/>
        <polygon class="cls-7" points="1578.36 208.12 1580.27 208.32 1580.46 199.95 1578.55 199.77 1578.36 208.12"/>
        <polygon class="cls-5" points="1612.87 224.81 1614.78 225.03 1615.01 216.34 1613.1 216.13 1612.87 224.81"/>
        <polygon class="cls-5" points="1595.44 222.74 1597.35 222.97 1597.56 214.43 1595.65 214.22 1595.44 222.74"/>
        <polygon class="cls-5" points="1547.39 217.05 1549.3 217.27 1549.45 209.18 1547.54 208.98 1547.39 217.05"/>
        <polygon class="cls-5" points="1599.94 223.27 1601.84 223.5 1602.06 214.92 1600.15 214.72 1599.94 223.27"/>
        <polygon class="cls-5" points="1607.89 224.22 1611.1 224.6 1611.33 215.93 1608.12 215.58 1607.89 224.22"/>
        <polygon class="cls-7" points="1583.41 208.65 1585.32 208.85 1585.52 200.43 1583.61 200.25 1583.41 208.65"/>
      </g>
      <path class="cls-5" d="M1558.22,167.22l-13.65-.82c-.38-.02-.69.28-.7.67,0,.4.29.73.67.76l13.65.84c.38.02.69-.28.7-.68,0-.4-.29-.75-.67-.77Z"/>
      <path class="cls-5" d="M1557.68,193.74l-13.6-1.23c-.38-.03-.69.26-.69.65,0,.4.29.74.67.78l13.6,1.25c.38.03.69-.26.69-.66,0-.4-.29-.75-.67-.79Z"/>
    </g>
    <g>
      <path class="cls-7" d="M1799.17,96.87c-19.8,16.8-39.22,32.26-58.02,46.45-.57.51-3.58,3.1-7.54,2.54-1.29-.18-2.32-.65-3.06-1.08-4.06-3.65-8.11-7.31-12.17-10.96-.47-.56-1.32-1.74-1.55-3.43-.16-1.18.04-2.23.36-3.12-.45,1.04-.9,2.08-1.34,3.12,0,0,0,0,0,0-.38.94-.62,2.08-.44,3.36.23,1.69,1.08,2.87,1.55,3.43,4.06,3.65,8.11,7.31,12.17,10.96.74.43,1.77.9,3.06,1.08,3.95.56,6.97-2.03,7.54-2.54,18.8-14.19,38.22-29.65,58.02-46.45,20.96-17.78,40.36-35.39,58.27-52.54.27-.3.91-1.07,1.43-2.15,0,0,0,0,0,0,.45-1.08.91-2.15,1.36-3.23-.51,1.01-1.11,1.73-1.37,2.02-17.91,17.15-37.31,34.76-58.27,52.54Z"/>
      <path class="cls-7" d="M1859.2,41.36c.03-.06.05-.13.08-.19-.01.02-.03.03-.04.05-.01.05-.02.09-.04.14Z"/>
      <path class="cls-7" d="M1717.54,126.45s.04-.1.07-.14c0,0,0,0,0-.01-.02.05-.04.1-.06.15Z"/>
      <path class="cls-5" d="M1859.18,36.83s-.07-.18-.15-.35c-.38-.84-7.5-15.55-11.04-22.87-.21-.48-1.49-3.29-3.81-3.58-.51-.06-.94,0-1.29.07-1.89.33-3.2,1.41-3.89,2.1-18.08,17.44-36.51,34.97-55.29,52.57-21.68,20.31-43.23,40.14-64.63,59.52-.16.15-.88.89-1.48,2.03-.02.04-.04.09-.07.14-.13.25-.24.52-.35.81-.33.9-.52,1.95-.36,3.12.23,1.69,1.08,2.87,1.55,3.43,4.06,3.65,8.11,7.31,12.17,10.96.74.43,1.77.9,3.06,1.08,3.95.56,6.97-2.03,7.54-2.54,18.8-14.19,38.22-29.65,58.02-46.45,20.96-17.78,40.36-35.39,58.27-52.54.26-.29.86-1.01,1.37-2.02.15-.29.28-.61.4-.95.02-.04.03-.09.04-.14.28-.84.44-1.8.32-2.86-.08-.65-.24-1.18-.37-1.53Z"/>
      <path class="cls-7" d="M1887.03,100.87s0,0,0,0c-.02.02-.03.03-.05.05.02-.01.03-.03.05-.04Z"/>
      <path class="cls-7" d="M1914.5,204.25c-12.69,5.96-25.86,11.83-39.51,17.56-33.2,13.94-65.19,25.35-95.48,34.73-.24.08-1.65.55-3.05-.23-.87-.49-1.3-1.22-1.46-1.54-6.63-19.02-12.48-34.48-16.94-45.88-4.86-12.42-8.39-20.82-9.74-24.03-2.67-6.33-5.37-12.5-8.07-18.52-.65.23-1.3.47-1.95.69-.1.06-.65.38-1.38.48,2.9,6.44,5.8,13.05,8.67,19.85,1.35,3.21,4.88,11.61,9.74,24.03,4.46,11.4,10.31,26.86,16.94,45.88.16.32.59,1.05,1.46,1.54,1.4.78,2.81.31,3.05.23,30.29-9.38,62.28-20.79,95.48-34.73,13.65-5.73,26.82-11.6,39.51-17.56.14-.07.43-.22.73-.48,0,0,0,0,0,0,.96-.88,1.91-1.76,2.87-2.63,0,0-.01,0-.02,0-.35.33-.7.53-.86.6Z"/>
      <path class="cls-5" d="M1907.63,166.04c-6.17-23.23-12.88-45.26-19.9-66.08-.22.35-.46.65-.7.9-.02.02-.03.03-.05.05-.22.22-.42.39-.62.54-.89.77-1.77,1.55-2.66,2.32h0c-.45.4-.85.63-1.04.73-21.65,11.3-45.18,22.66-70.55,33.66-25.04,10.86-49.09,20.17-71.88,28.19,2.7,6.02,5.4,12.19,8.07,18.52,1.35,3.21,4.88,11.61,9.74,24.03,4.46,11.4,10.31,26.86,16.94,45.88.16.32.59,1.05,1.46,1.54,1.4.78,2.81.31,3.05.23,30.29-9.38,62.28-20.79,95.48-34.73,13.65-5.73,26.82-11.6,39.51-17.56.16-.08.51-.27.86-.6.21-.2.43-.44.6-.77.64-1.2.23-2.39.16-2.58-2.58-11.2-5.4-22.62-8.49-34.25Z"/>
      <path class="cls-7" d="M1728.64,154.05s0,0,0,0h0Z"/>
      <path class="cls-7" d="M1815.18,135.52c-25.75,11.17-50.47,20.71-73.83,28.88-.16.1-1.5.89-2.88.29-.6-.26-.97-.68-1.17-.94-1.75-3.88-3.51-7.77-5.26-11.65-.06-.08-.22-.33-.35-.7-.01-.04-.23-.71-.11-1.4.12-.65.51-1.14.9-1.48,0,0,0,0,0,0-.98.85-1.96,1.7-2.94,2.54,0,0,0,0,0,0-.42.34-.89.85-1.02,1.58-.13.69.09,1.36.11,1.4,0,0,0,0,0,0,.06.11.65,1.35,5.61,12.34.19.26.56.68,1.17.94.53.23,1.05.25,1.5.19.73-.1,1.28-.42,1.38-.48.65-.23,1.3-.46,1.95-.69,22.79-8.02,46.84-17.33,71.88-28.19,25.37-11,48.9-22.36,70.55-33.66.18-.1.59-.33,1.04-.73h0c.89-.77,1.77-1.54,2.66-2.32-.28.21-.52.34-.64.41-21.65,11.3-45.18,22.66-70.55,33.66Z"/>
      <path class="cls-5" d="M1731.7,151.41s0,0,0,0h0Z"/>
      <path class="cls-5" d="M1880.9,75.21c-.4-1.61-1.61-2.79-3.03-2.99-1.15-.16-2.07.37-2.38.57-21.2,13.07-44.1,26.29-68.7,39.34-25.44,13.49-50.01,25.36-73.44,35.84-.06.03-.45.21-.86.57-.39.34-.78.83-.9,1.48-.13.69.09,1.36.11,1.4,0,0,0,0,0,0,.06.11.65,1.35,5.61,12.34.19.26.56.68,1.17.94,1.38.6,2.72-.19,2.88-.29,23.36-8.17,48.08-17.71,73.83-28.88,25.37-11,48.9-22.36,70.55-33.66.65-.35,1.13-.82,1.31-1,.62-.64.96-1.35,1.07-1.62.74-1.8.22-3.4.08-3.77-2.43-6.75-4.86-13.51-7.3-20.26Z"/>
      <path class="cls-2" d="M1780.91,129.41c-3.06-1.56-6.26-3.1-9.62-4.59-9.85-4.37-19.26-7.57-27.91-9.93-.9-.32-2.48-.74-4.44-.56,0,0-1.16.1-2.25.47-3.33,1.14-8.1,3.49-6.89,7.61,2.93,11.22,6.8,22.19,11.57,32.77.19.42.54,1.78,1.76,2.63,1.88,1.32,4.53.59,5.94.15,4.5-1.38,17.46-6.22,34.61-13.1.61-.3,2.82-1.49,3.6-3.98.49-1.56.19-2.89,0-3.72-1.06-4.43-5.06-6.99-6.35-7.75Z"/>
      <path class="cls-10" d="M1739.2,119.86c-2.14.63-3.37,2.87-2.74,5.01.63,2.14,2.87,3.37,5.01,2.74,2.14-.63,3.37-2.87,2.74-5.01-.63-2.14-2.87-3.37-5.01-2.74Z"/>
      <path class="cls-10" d="M1747.38,145.31c-2.14.63-3.37,2.87-2.74,5.01.63,2.14,2.87,3.37,5.01,2.74,2.14-.63,3.37-2.87,2.74-5.01-.63-2.14-2.87-3.37-5.01-2.74Z"/>
      <path class="cls-10" d="M1774.35,134.86c-2.14.63-3.37,2.87-2.74,5.01.63,2.14,2.87,3.37,5.01,2.74,2.14-.63,3.37-2.87,2.74-5.01-.63-2.14-2.87-3.37-5.01-2.74Z"/>
      <g>
        <path class="cls-2" d="M1759.06,95.39c-1.21,1.14-2.68,2.8-4.28,4.44,2.57.99,5.14,1.99,7.72,2.98,3.78,1.46,7.7,2.82,11.6,4.24,2.8,1.26,5.61,2.48,8.42,3.72,5.52-4.53,11.07-9.15,16.66-13.89,1.65-1.4,3.27-2.8,4.91-4.2-9.78-4.06-19.57-8.11-29.35-12.17-5.22,4.97-10.41,9.96-15.66,14.89Z"/>
        <path class="cls-2" d="M1807.59,49.44h0c10.71,3.85,21.42,7.69,32.13,11.54,6.06-5.59,11.98-11.15,17.73-16.65.38-.43,1.52-1.8,1.97-3.69-10.03-3.89-20.06-7.79-30.08-11.68-7.5,6.53-14.54,13.57-21.73,20.48Z"/>
        <path class="cls-2" d="M1780.98,74.57l29.83,12.29c7.32-6.36,14.45-12.7,21.37-18.99-10.25-4.18-20.51-8.36-30.76-12.55-6.79,6.44-13.62,12.83-20.44,19.25Z"/>
      </g>
      <g>
        <path class="cls-2" d="M1817.22,130.68c7.52-3.29,15-6.68,22.4-10.26,1.24-.6,2.47-1.2,3.71-1.81.06-8.93.11-17.86.17-26.79-8.59,4.94-17.43,9.88-26.5,14.81l.22,24.04Z"/>
        <path class="cls-2" d="M1806.78,112.12c-6.01,3.19-11.97,6.28-17.89,9.29.19,7.04.39,14.08.58,21.12,1.37-.6,2.8-1.13,4.25-1.7,4.68-1.83,9.23-4,13.85-5.97,1.41-.6,2.82-1.22,4.24-1.83-.04-7.84-.09-15.69-.13-23.53-1.63.87-3.25,1.75-4.89,2.62Z"/>
        <path class="cls-2" d="M1875.48,72.78c-8.12,5-16.49,10.03-25.1,15.06.3,8.96.59,17.93.89,26.89,5.84-2.86,11.67-5.72,17.54-8.52,3.15-1.5,6.34-2.99,9.49-4.55-.15-9.82-.3-19.64-.46-29.45-1.14-.15-2.05.37-2.36.57Z"/>
      </g>
      <path class="cls-2" d="M1890.96,182.13c-4.06,2-8.13,3.96-12.22,5.89-8.23,3.89-16.53,7.67-24.86,11.34-.74.33-1.49.65-2.23.97-.88-3.38-1.79-6.76-2.72-10.13-.97-3.53-1.78-7.16-2.96-10.62,9.4-4.18,18.75-8.48,28.03-12.92,4.98-2.38,9.93-4.81,14.87-7.28,1.96-.98,3.97-1.94,5.98-2.92-.33-1.23-.67-2.46-1.01-3.69-1.51.78-3.01,1.56-4.51,2.31-4.41,2.19-8.84,4.36-13.27,6.51-7.22,3.51-14.48,6.92-21.77,10.28-.1-.7-.38-1.41-.58-2.11-.42-1.54-.84-3.08-1.26-4.62-.84-3.08-1.67-6.16-2.47-9.25-1.53-5.93-2.94-11.88-4.29-17.85,3.59-1.57,7.18-3.13,10.76-4.74,9.09-4.09,18.15-8.28,27.12-12.63-.5-1.25-.98-2.51-1.46-3.77-16.85,8.21-33.86,16-51.08,23.4-18.24,7.83-36.76,14.97-55.41,21.75-5.29,1.92-10.6,3.78-15.9,5.68-1.65.59-3.33,1.15-5.01,1.73.22.97.43,1.93.65,2.89,1.19-.38,2.36-.77,3.53-1.14,4.7-1.49,9.38-3.06,14.04-4.67,6.22-2.15,12.42-4.38,18.59-6.67,2.23,6.75,4.41,13.51,6.5,20.31,1.05,3.43,2.07,6.86,3.1,10.3.38,1.26.64,2.8,1.16,4.1-2.56,1.05-5.12,2.11-7.7,3.14-5.13,2.04-10.28,4.01-15.43,6.02-3.66,1.43-7.48,2.71-11.1,4.35.28.75.55,1.51.82,2.27,3.29-.95,6.5-2.23,9.69-3.38,4.63-1.67,9.23-3.45,13.82-5.23,9.19-3.55,18.33-7.22,27.44-10.97,7.8-3.21,15.55-6.53,23.26-9.93.77,3.45,1.88,6.85,2.82,10.25.03.1.06.2.09.3-8.68,3.94-17.38,7.82-26.23,11.41-10.73,4.34-21.58,8.34-32.53,12.1-2.99,1.03-6,2-9,3.03-1.97.68-4.02,1.26-6,1.99.29.85.59,1.7.88,2.55,1.62-.41,3.23-.92,4.81-1.38,2.75-.8,5.48-1.67,8.21-2.55,5.55-1.79,11.06-3.69,16.55-5.66,11.07-3.98,22.02-8.27,32.83-12.9,3.84-1.64,7.67-3.31,11.47-5.03.62,2.2,1.23,4.39,1.87,6.58-15.13,6.61-30.34,13.02-45.73,19.01-4.83,1.88-9.67,3.71-14.51,5.55-2.42.92-4.85,1.83-7.27,2.74-1.78.66-3.65,1.19-5.23,2.23.21.59.42,1.18.64,1.77,1.63-.17,3.17-.8,4.75-1.34,2.26-.78,4.51-1.56,6.76-2.36,4.32-1.52,8.61-3.1,12.9-4.69,8.58-3.2,17.12-6.5,25.61-9.91,16.9-6.78,33.59-14.01,50.09-21.72,4.63-2.17,9.25-4.37,13.84-6.61,3.46-1.69,7.16-3.28,10.55-5.23-.31-1.17-.61-2.33-.92-3.5-3.2,1.38-6.3,3.12-9.4,4.65ZM1805.08,193.43c-.03-.12-.06-.23-.1-.36-.45-1.63-.92-3.26-1.39-4.88-.96-3.35-2-6.68-3.02-10.01-1.99-6.48-4.06-12.93-6.23-19.36,2.32-.87,4.64-1.74,6.95-2.63,13.99-5.35,27.88-10.98,41.63-16.92,1.29,5.85,2.68,11.67,4.17,17.47.8,3.09,1.61,6.18,2.47,9.25.43,1.54.88,3.07,1.33,4.6.25.84.39,1.76.84,2.46-.81.37-1.62.75-2.43,1.12-14.64,6.66-29.35,13.13-44.22,19.25Z"/>
      <path class="cls-2" d="M1902.55,193.12c-4.4,2.18-8.83,4.33-13.27,6.43-8.93,4.22-17.95,8.27-27.04,12.14-18.1,7.7-36.49,14.72-55.12,21.03-8.97,3.04-18.08,5.76-27.02,8.91.32.79.64,1.58.96,2.37,7.97-1.96,15.84-4.51,23.6-7.08,9.34-3.09,18.61-6.35,27.82-9.79,18.47-6.91,36.67-14.52,54.57-22.81,5-2.31,9.97-4.68,14.92-7.1,1.06-.52,2.14-1.03,3.22-1.53-.31-1.14-.62-2.29-.93-3.44-.57.3-1.14.59-1.72.88Z"/>
      <path class="cls-2" d="M1738.22,122.44c-1.59.47-.87,2.94.73,2.47,1.59-.47.87-2.94-.73-2.47Z"/>
      <path class="cls-2" d="M1746.44,147.6c-1.87.55-1.02,3.46.85,2.91,1.87-.55,1.02-3.46-.85-2.91Z"/>
      <path class="cls-2" d="M1772.81,139.24c.76,1.22,2.9.43,2.12-1.32-.76-1.22-2.9-.43-2.12,1.32Z"/>
    </g>
  </g>
</svg>