<?xml version="1.0" encoding="UTF-8"?>
<svg xmlns="http://www.w3.org/2000/svg" viewBox="0 0 42 21">
  <defs>
    <style>
      .cls-1 {
        fill: #fff;
      }

      .cls-2 {
        fill: #0f0f0f;
      }
    </style>
  </defs>
  <g id="Layer_2">
    <rect class="cls-1" width="42" height="21" rx="1.21" ry="1.21"/>
  </g>
  <g id="Layer_1">
    <path class="cls-2" d="M29,7.51c0-.68-.37-1.3-.96-1.64l-6.55-3.64c-.56-.31-1.25-.31-1.82,0l-6.55,3.64c-.59.33-.96.96-.96,1.64v10.06c0,1.03.83,1.87,1.86,1.87h2.38c.5.01.9-.39.9-.89v-7c0-.52.42-.94.94-.94h4.68c.52,0,.94.42.94.94v7.03c0,.49.4.9.89.9h2.37c1.04.01,1.88-.82,1.88-1.86V7.51h0Z"/>
  </g>
</svg>