<?xml version="1.0" encoding="UTF-8"?>
<svg id="Layer_1" xmlns="http://www.w3.org/2000/svg" viewBox="0 0 35.66 5.28">
  <defs>
    <style>
      .cls-1 {
        fill: #fff;
      }
    </style>
  </defs>
  <path class="cls-1" d="M0,1.17c0-.06,0-.1.01-.15,0-.04.03-.08.05-.1.03-.03.06-.05.11-.06.05-.01.11-.02.19-.02h1.06c.09,0,.16.01.21.04.05.03.08.06.1.1.02.04.03.08.03.13,0,.05,0,.09,0,.12v2.63s0,.08,0,.12-.02.09-.05.12c-.03.04-.06.07-.12.1-.05.03-.12.04-.22.04H.37c-.08,0-.14,0-.19-.02s-.08-.03-.11-.06-.04-.06-.05-.1c0-.04-.01-.09-.01-.15V1.17Z"/>
  <path class="cls-1" d="M2.21.68c0-.05,0-.1.01-.14,0-.04.03-.08.05-.1.03-.03.06-.05.11-.06s.11-.02.19-.02h1.04c.07,0,.13,0,.18.02.04.01.08.03.1.06.03.03.04.06.05.1s.01.09.01.15v3.24c0,.05,0,.1-.01.14,0,.04-.03.07-.05.1s-.06.05-.11.06c-.05.01-.1.02-.18.02h-1.04c-.08,0-.14,0-.19-.02s-.08-.03-.11-.06-.04-.06-.05-.1c0-.04-.01-.09-.01-.15V.68Z"/>
  <path class="cls-1" d="M6.16,1.86s.08-.05.13-.07c.05-.02.1-.03.16-.03.15,0,.27.05.36.16.08.1.13.26.13.46v1.75s0,.05-.01.06c0,.01-.02.03-.03.03s-.02.01-.04.01c-.01,0-.03,0-.04,0h-.15s-.07-.01-.08-.04c-.01-.02-.02-.05-.02-.08v-1.78c0-.09-.02-.16-.05-.21-.03-.05-.08-.07-.16-.07-.04,0-.07,0-.11.03s-.07.04-.09.06v1.74c0,.06,0,.1,0,.14,0,.04-.02.08-.04.1-.02.03-.06.05-.1.06s-.1.02-.18.02h-1.1c-.06,0-.11,0-.15-.02-.04-.01-.07-.03-.1-.06-.02-.03-.04-.06-.05-.1,0-.04-.01-.09-.01-.15V.68c0-.05,0-.1.01-.14,0-.04.03-.08.05-.1.03-.03.06-.05.11-.06s.11-.02.19-.02h1.04c.07,0,.13,0,.17.02.05.01.08.03.11.06s.04.06.05.1.01.09.01.15v1.17Z"/>
  <path class="cls-1" d="M8.36,4.25c-.09,0-.17,0-.26-.02s-.17-.03-.25-.05c-.08-.02-.15-.06-.22-.1-.07-.04-.13-.09-.18-.15-.05-.06-.09-.13-.12-.21-.03-.08-.04-.17-.04-.27,0-.14.03-.26.08-.35.05-.1.12-.18.21-.24.09-.06.19-.12.3-.15.11-.04.23-.06.35-.07v-.16c0-.06,0-.11-.02-.15-.02-.04-.04-.06-.06-.08-.02-.02-.05-.03-.08-.04-.03,0-.06,0-.08,0-.03,0-.06,0-.1.01-.04,0-.07.02-.1.03-.03.01-.06.03-.1.04-.03.02-.06.03-.08.04,0,0-.02.01-.03.02,0,0-.02,0-.02,0-.01,0-.03-.01-.04-.03l-.08-.13s-.01-.02-.01-.04c0-.01,0-.02.02-.03.01,0,.02-.02.03-.02.05-.04.12-.07.2-.11.08-.04.17-.07.27-.1.1-.03.21-.05.33-.07s.24-.03.36-.03c.12,0,.23,0,.35.01.11,0,.22.02.32.05.1.03.19.06.28.11.08.05.16.11.22.19s.11.18.14.29.05.25.05.42v1.06c0,.05,0,.1-.01.14,0,.04-.03.07-.05.1s-.06.05-.11.06c-.05.01-.11.02-.19.02h-1.27ZM8.24,2.94c-.11,0-.21.01-.29.04-.08.03-.14.07-.19.11-.05.05-.08.1-.1.17-.02.06-.03.13-.03.19s.01.13.03.19c.02.06.05.11.1.16.05.04.11.08.19.1.08.03.17.04.29.04v-1Z"/>
  <path class="cls-1" d="M10.43,2.14c0-.05,0-.1.01-.14,0-.04.03-.08.05-.1.03-.03.06-.05.11-.06.05-.01.11-.02.19-.02h.97c.07,0,.13,0,.18.02.05.01.08.04.11.07.02-.02.05-.03.08-.05.03-.02.06-.03.1-.05.04-.01.07-.03.11-.03s.08-.01.12-.01c.15,0,.26.05.34.15.02-.02.05-.03.07-.05.03-.02.07-.04.1-.05s.08-.03.12-.03c.04,0,.09-.01.13-.01.15,0,.27.05.36.16.08.1.13.26.13.46v1.75s0,.05-.01.06-.02.03-.03.03-.02.01-.04.01c-.01,0-.03,0-.04,0h-.15s-.07-.01-.08-.04c-.01-.02-.02-.05-.02-.08v-1.78c0-.09-.02-.16-.05-.21-.03-.05-.08-.07-.16-.07-.02,0-.04,0-.06.01-.02,0-.04.02-.06.03s-.04.02-.06.04c-.01.01-.03.02-.04.03.01.06.02.13.02.2v1.75s0,.05-.01.06c0,.01-.02.03-.03.03s-.02.01-.04.01c-.01,0-.03,0-.04,0h-.15s-.07-.01-.08-.04c-.01-.02-.02-.05-.02-.08v-1.78c0-.09-.02-.16-.05-.21-.03-.05-.08-.07-.16-.07-.04,0-.07,0-.11.03s-.07.04-.09.06v1.74c0,.06,0,.1-.01.14,0,.04-.03.08-.05.1-.03.03-.06.05-.11.06-.05.01-.11.02-.19.02h-1.02c-.08,0-.14,0-.19-.02s-.08-.03-.11-.06-.04-.06-.05-.1c0-.04-.01-.09-.01-.15v-1.77Z"/>
  <path class="cls-1" d="M14.18,3.75c0-.08.01-.15.04-.21.03-.07.07-.12.12-.17.05-.05.11-.09.17-.12.07-.03.14-.04.21-.04s.15.01.21.04c.07.03.12.07.17.12s.09.11.12.17c.03.07.04.14.04.21s-.01.15-.04.21c-.03.07-.07.12-.12.18-.05.05-.11.09-.17.12-.07.03-.14.04-.21.04s-.15-.01-.21-.04c-.07-.03-.12-.07-.17-.12-.05-.05-.09-.11-.12-.18s-.04-.14-.04-.21Z"/>
  <path class="cls-1" d="M17.9,3.6c-.06.03-.12.06-.18.08-.06.02-.13.04-.19.05v.18c0,.05,0,.1-.02.14-.01.04-.03.08-.06.1-.03.03-.06.05-.11.07-.04.02-.1.02-.17.02h-1.05c-.08,0-.14,0-.19-.02s-.08-.03-.11-.06-.04-.06-.05-.1c0-.04-.01-.09-.01-.15V1.17c0-.06,0-.1.01-.15,0-.04.03-.08.05-.1.03-.03.06-.05.11-.06.05-.01.11-.02.19-.02h1.06c.11,0,.23,0,.34.03.11.02.21.05.31.09s.19.1.27.17c.08.07.16.16.22.26.06.1.11.22.14.36.03.14.05.29.05.47,0,.15,0,.29-.03.41-.02.12-.05.24-.08.34-.03.1-.07.19-.12.27-.05.08-.1.14-.16.2l.48.63s.02.04.02.06c0,.02,0,.04-.02.06s-.03.03-.05.04l-.14.08s-.02.01-.03.02c-.01,0-.02,0-.04,0-.02,0-.04,0-.05-.02-.02-.01-.03-.03-.05-.06l-.33-.65ZM18.17,2.25c0-.14-.01-.27-.04-.4-.03-.12-.06-.23-.12-.32s-.12-.17-.2-.23c-.08-.06-.18-.1-.29-.12v2.24c.11-.03.21-.07.29-.14s.15-.15.2-.25c.05-.1.09-.22.12-.35.03-.13.04-.28.04-.43Z"/>
  <path class="cls-1" d="M19.89,4.25c-.09,0-.17,0-.26-.02s-.17-.03-.25-.05c-.08-.02-.15-.06-.22-.1-.07-.04-.13-.09-.18-.15-.05-.06-.09-.13-.12-.21-.03-.08-.04-.17-.04-.27,0-.14.03-.26.08-.35s.12-.18.21-.24.19-.12.3-.15c.11-.04.23-.06.35-.07v-.16c0-.06,0-.11-.02-.15-.02-.04-.04-.06-.06-.08-.02-.02-.05-.03-.08-.04-.03,0-.06,0-.08,0-.03,0-.07,0-.1.01-.04,0-.07.02-.1.03-.03.01-.06.03-.1.04-.03.02-.05.03-.08.04,0,0-.02.01-.03.02s-.02,0-.02,0c-.01,0-.03-.01-.04-.03l-.08-.13s-.01-.02-.01-.04c0-.01,0-.02.02-.03.01,0,.02-.02.03-.02.05-.04.12-.07.2-.11.08-.04.17-.07.27-.1.1-.03.21-.05.33-.07s.24-.03.36-.03.23,0,.35.01c.11,0,.22.02.32.05.1.03.19.06.28.11.08.05.15.11.22.19.06.08.11.18.14.29s.05.25.05.42v1.06c0,.05,0,.1-.02.14,0,.04-.03.07-.05.1s-.06.05-.11.06-.11.02-.19.02h-1.27ZM19.77,2.94c-.11,0-.21.01-.29.04-.08.03-.14.07-.19.11-.05.05-.08.1-.1.17-.02.06-.03.13-.03.19s0,.13.03.19c.02.06.05.11.1.16.05.04.11.08.19.1s.17.04.29.04v-1Z"/>
  <path class="cls-1" d="M23.71,1.86s.08-.05.13-.07c.05-.02.1-.03.16-.03.15,0,.27.05.36.16s.13.26.13.46v1.75s0,.05-.01.06-.02.03-.03.03c0,0-.02.01-.04.01-.01,0-.03,0-.04,0h-.15s-.07-.01-.08-.04c-.01-.02-.02-.05-.02-.08v-1.78c0-.09-.02-.16-.05-.21-.03-.05-.08-.07-.16-.07-.04,0-.07,0-.11.03-.04.02-.07.04-.09.06v1.74c0,.06,0,.1,0,.14,0,.04-.02.08-.05.1-.02.03-.06.05-.1.06-.04.01-.1.02-.18.02h-1.1c-.06,0-.11,0-.15-.02-.04-.01-.07-.03-.1-.06-.02-.03-.04-.06-.05-.1,0-.04-.01-.09-.01-.15V.68c0-.05,0-.1.01-.14,0-.04.03-.08.05-.1.03-.03.06-.05.11-.06s.11-.02.19-.02h1.04c.07,0,.13,0,.17.02.05.01.08.03.11.06s.04.06.05.1.01.09.01.15v1.17Z"/>
  <path class="cls-1" d="M25.91,4.25c-.09,0-.17,0-.26-.02-.09-.01-.17-.03-.25-.05-.08-.02-.15-.06-.22-.1-.07-.04-.13-.09-.18-.15s-.09-.13-.12-.21c-.03-.08-.04-.17-.04-.27,0-.14.03-.26.08-.35.05-.1.12-.18.21-.24s.19-.12.3-.15c.11-.04.23-.06.35-.07v-.16c0-.06,0-.11-.02-.15-.02-.04-.04-.06-.06-.08-.02-.02-.05-.03-.08-.04-.03,0-.06,0-.08,0-.03,0-.07,0-.1.01-.04,0-.07.02-.1.03-.03.01-.06.03-.09.04-.03.02-.06.03-.08.04,0,0-.02.01-.03.02s-.02,0-.02,0c-.01,0-.03-.01-.04-.03l-.08-.13s-.01-.02-.01-.04c0-.01,0-.02.01-.03.01,0,.02-.02.03-.02.05-.04.12-.07.2-.11.08-.04.17-.07.27-.1.1-.03.21-.05.33-.07s.24-.03.36-.03.24,0,.35.01c.11,0,.22.02.32.05s.19.06.28.11.16.11.22.19c.06.08.11.18.14.29.03.12.05.25.05.42v1.06c0,.05,0,.1-.01.14,0,.04-.03.07-.05.1s-.06.05-.11.06c-.05.01-.11.02-.19.02h-1.27ZM25.8,2.94c-.11,0-.21.01-.29.04-.08.03-.14.07-.19.11-.05.05-.08.1-.1.17-.02.06-.03.13-.03.19s.01.13.03.19c.02.06.05.11.1.16.05.04.11.08.19.1.08.03.17.04.29.04v-1Z"/>
  <path class="cls-1" d="M27.99,2.14c0-.05,0-.1.01-.14,0-.04.03-.08.05-.1.03-.03.06-.05.11-.06.05-.01.11-.02.19-.02h1.04c.07,0,.13,0,.18.02.04.01.08.04.11.06.03.03.04.06.05.11,0,.04.01.09.01.15v.18l.53-.51s.07-.05.1-.05c.02,0,.03,0,.05.01.01,0,.03.02.03.02l.11.11s.04.05.04.08c0,.02,0,.04-.01.05-.01.02-.03.04-.05.05l-.79.61v1.2c0,.05,0,.1-.01.15,0,.04-.03.08-.05.1-.03.03-.07.05-.12.06s-.12.02-.21.02h-1c-.08,0-.14,0-.19-.02s-.08-.03-.11-.06c-.03-.03-.05-.06-.05-.1,0-.04-.01-.09-.01-.15v-1.77Z"/>
  <path class="cls-1" d="M30.09,4.87s0-.03,0-.04c0,0,.01,0,.02,0,0,0,.02,0,.03,0,0,0,.02,0,.04,0,.01,0,.03,0,.06,0,.02,0,.05,0,.09,0,.2,0,.3-.12.3-.37v-2.34s0-.07,0-.11c0-.04.02-.07.04-.11.02-.03.06-.06.1-.08s.11-.03.19-.03h1.04c.08,0,.14,0,.19.02.05.01.08.04.11.06.03.03.04.06.05.1,0,.04.01.09.01.15v1.84c0,.19-.02.35-.06.49s-.1.26-.17.35-.15.17-.25.23-.19.1-.29.14-.2.05-.31.06c-.1,0-.2.02-.3.02-.21,0-.38-.01-.53-.04s-.26-.07-.35-.12c0,0-.02,0-.03-.02,0,0-.02-.03-.02-.06v-.18ZM30.72.79c0-.11.02-.21.06-.31s.1-.18.17-.25.16-.13.25-.17c.1-.04.2-.06.31-.06s.21.02.31.06c.1.04.18.1.25.17s.13.16.17.25.06.2.06.31-.02.21-.06.31c-.04.1-.1.18-.17.25s-.16.13-.25.17-.2.06-.31.06-.21-.02-.31-.06-.18-.1-.25-.17-.13-.15-.17-.25c-.04-.1-.06-.2-.06-.31Z"/>
  <path class="cls-1" d="M34.19,4.33c-.12,0-.24,0-.36-.03s-.23-.05-.34-.09c-.11-.04-.21-.09-.3-.16s-.17-.15-.24-.25c-.07-.1-.12-.21-.16-.34-.04-.13-.06-.27-.06-.44s.02-.31.06-.43c.04-.13.09-.24.16-.34.07-.1.15-.18.24-.25s.19-.12.3-.16c.11-.04.22-.07.34-.09s.24-.03.36-.03c.11,0,.22,0,.34.02.11.01.23.04.33.07s.21.08.31.15.18.14.25.23c.07.1.13.21.17.34s.06.29.06.47-.02.34-.06.48c-.04.14-.1.25-.17.35-.07.1-.16.18-.25.24-.1.06-.2.11-.31.15-.11.04-.22.06-.34.07-.12.01-.23.02-.34.02ZM34.92,3.76s.1-.01.15-.03c.05-.02.09-.06.13-.12s.07-.13.09-.23c.02-.1.04-.22.04-.37,0-.14-.01-.26-.04-.35-.02-.09-.05-.16-.09-.22s-.08-.09-.13-.11c-.05-.02-.1-.03-.14-.03-.04,0-.08,0-.13.02-.05.02-.09.05-.13.1-.04.05-.07.12-.1.22-.03.1-.04.22-.04.38s.01.29.03.39c.02.1.05.17.09.22.04.05.08.08.13.1.05.02.1.02.15.02Z"/>
</svg>