<svg xmlns="http://www.w3.org/2000/svg" viewBox="0 0 1000 1000" overflow="hidden" preserveAspectRatio="xMidYMid meet" id="eaf-fa37-0"><!-- Created with Expressive Animator v1.3.1 | https://expressive.app/expressive-animator/ --><defs><clipPath id="eaf-fa37-1"><rect x="0" y="0" width="1000" height="1000"></rect></clipPath><clipPath id="eaf-fa37-2"><path d="m-246.0519 179.1631l89.2191 -153.9326l204.1039 -34.3771l77.1853 67.7023l-370.5083 120.6075z" transform="matrix(1.5289 -0.2696 0.2121 1.2027 1543.2043 192.5528)"></path></clipPath></defs><g clip-path="url('#eaf-fa37-1')" style="isolation: isolate;"><g><g transform="matrix(1.45 0 0 1.45 -1630.4926 -14.8053)"><g transform="translate(0 0)"><g><rect fill="#0f0f0f" width="497.91" height="449.63" rx="32.65" transform="translate(1242.04 154.68)"></rect><polygon points="1313.37,559.74 1292.63,571.71 1271.89,583.69 1271.89,559.74 1271.89,535.79 1292.63,547.77 1313.37,559.74" fill="#fff"></polygon><rect fill="#fff" width="311.2" height="4.26" transform="translate(1340.8401 557.61)"></rect><rect fill="#fff" width="28.84" height="4.26" transform="translate(1668.05 557.61)"></rect><g><path fill="#ad0000" d="m1718.59 607l-454.9 0c-13.41 0 -24.27 -10.87 -24.27 -24.27l0 -40.46c0 -13.41 10.87 -24.27 24.27 -24.27l454.9 0c13.41 0 24.27 10.87 24.27 24.27l0 40.46c0 13.41 -10.87 24.27 -24.27 24.27zm-450.64 -4.26l446.39 0c13.41 0 24.27 -10.87 24.27 -24.27l0 -31.95c0 -13.41 -10.87 -24.27 -24.27 -24.27l-446.39 0c-13.41 0 -24.27 10.87 -24.27 24.27l0 31.95c0 13.41 10.87 24.27 24.27 24.27z"></path><g><path fill="#ad0000" d="m1718.58 606.75l-455.17 0c-13.23 0 -23.98 -10.76 -23.98 -23.98l0 -406.79c0 -13.22 10.76 -23.98 23.98 -23.98l455.17 0c13.23 0 23.98 10.76 23.98 23.98l0 406.79c0 13.22 -10.76 23.98 -23.98 23.98zm-455.1699 -449.31c-10.22 0 -18.54 8.32 -18.54 18.54l0 406.79c0 10.22 8.3199 18.54 18.54 18.54l455.17 0c10.22 0 18.54 -8.32 18.54 -18.54l0 -406.79c0 -10.22 -8.3199 -18.54 -18.54 -18.54l-455.17 0z"></path><path fill="#ad0000" d="m1721.6 154.72l-461.2001 0c-11.74 0 -21.26 9.52 -21.26 21.26l0 15.85l503.73 0l0 -15.85c0 -11.74 -9.52 -21.26 -21.26 -21.26l-0.0099 0z"></path></g><g><path fill="#fff" d="m1278.33 172.13c0 4.8 -3.89 8.68 -8.6801 8.68c-4.79 0 -8.6801 -3.89 -8.6801 -8.68c0 -4.79 3.89 -8.68 8.6801 -8.68c4.79 0 8.6801 3.89 8.6801 8.68z"></path><path fill="#fff" d="m1302.23 172.13c0 4.8 -3.89 8.68 -8.6801 8.68c-4.79 0 -8.6801 -3.89 -8.6801 -8.68c0 -4.79 3.89 -8.68 8.6801 -8.68c4.79 0 8.6801 3.89 8.6801 8.68z"></path><path fill="#fff" d="m1326.13 172.13c0 4.8 -3.89 8.68 -8.6801 8.68c-4.79 0 -8.6801 -3.89 -8.6801 -8.68c0 -4.79 3.89 -8.68 8.6801 -8.68c4.79 0 8.6801 3.89 8.6801 8.68z"></path></g></g></g><g transform="matrix(0.9511 0.309 -0.309 0.9511 323.9098 -436.3695)"><path fill="#fff" d="m1450.3199 117.61c9.21 1.85 11.66 9.14 5.45 16.19l-30.63 34.76c-6.21 7.05 -13.75 5.53 -16.75 -3.37l-14.79 -43.91c-3 -8.9 2.08 -14.67 11.29 -12.82l45.42 9.14l0.01 0.01z"></path><path fill="#ad0000" d="m1420.1 174.21c-1.62 0.55 -3.27 0.67 -4.88 0.34c-3.8 -0.77 -6.8101 -3.89 -8.47 -8.81l-14.79 -43.91c-1.66 -4.92 -1.16 -9.23 1.41 -12.14c2.5601 -2.91 6.78 -3.95 11.86 -2.93l10.36 2.59l-0.84 3.35l-10.29 -2.57c-3.75 -0.75 -6.8 -0.11 -8.51 1.84c-1.71 1.95 -1.97 5.05 -0.73 8.75l14.79 43.91c1.25 3.7 3.33 6.01 5.87 6.53c2.54 0.51 5.36 -0.82 7.9399 -3.74l30.63 -34.76c2.58 -2.93 3.54 -5.89 2.72 -8.35c-0.8201 -2.46 -3.39 -4.23 -7.21 -5l-12.3199 -2.46l0.67 -3.39l12.33 2.46c5.09 1.02 8.5699 3.61 9.8101 7.29c1.2401 3.68 0.03 7.84 -3.4 11.74l-30.63 34.76c-1.97 2.24 -4.13 3.76 -6.33 4.5l0.0099 0z"></path><path fill="#ad0000" d="m1425.1801 147.24c-3.26 1.1 -6.67 0.43 -8.54 -1.97c-2.51 -3.22 -1.3199 -8.36 2.66 -11.46c3.97 -3.1 9.25 -3 11.76 0.22l0 0c2.51 3.22 1.3199 8.36 -2.65 11.46c-1.01 0.79 -2.11 1.37 -3.23 1.75zm-1.53 -11.91c-0.76 0.26 -1.52 0.66 -2.23 1.21c-2.4301 1.89 -3.37 4.92 -2.0601 6.61c1.3199 1.69 4.48 1.51 6.91 -0.38c2.4301 -1.89 3.37 -4.92 2.0601 -6.61c-0.9399 -1.2 -2.8101 -1.46 -4.6899 -0.83l0.0099 0z"></path><polygon points="1431.5699,134.78 1428.29,135.89 1419.6,110.08 1433.24,112.63 1432.6,116.03 1424.75,114.56 1431.5699,134.78" fill="#ad0000"></polygon><animateTransform attributeName="transform" type="translate" from="0 0" to="0 0" calcMode="discrete" dur="5000ms" repeatCount="indefinite"></animateTransform><animateMotion keyTimes="0;0.31;0.6;1" calcMode="spline" keySplines="0.42 0 1 1;0 0 1 1;0 0 0.58 1" dur="5000ms" repeatCount="indefinite" attributeName="transform" keyPoints="0;0.3242;0.6441;1" path="m1636.6456 137.9529q24.179 -2.5429 33.125 19.4871q-11.918 20.1745 -34.8656 15.835q-25.5323 -18.2928 1.7405 -35.3221" additive="sum"></animateMotion><animateTransform keyTimes="0;0.31;0.6;1" calcMode="linear" dur="5000ms" repeatCount="indefinite" attributeName="transform" values="18;41;5;18" type="rotate" additive="sum"></animateTransform><animateTransform attributeName="transform" type="translate" from="-1425.9612 -140.5554" to="-1425.9612 -140.5554" calcMode="discrete" dur="5000ms" repeatCount="indefinite" additive="sum"></animateTransform></g></g><g transform="translate(0 0)"><g transform="matrix(0.9272 -0.3746 0.3746 0.9272 57.0766 506.0709)"><g><path fill="#fff" d="m1128 233.12l-0.23 -54.36c-0.02 -5.25 6.0699 -8.17 10.15 -4.86l66.3 53.87c1.14 0.93 1.91 2.22 2.1899 3.66l9.9301 52c1.04 5.44 -5.02 9.43 -9.61 6.32l-76 -51.51c-1.7 -1.15 -2.72 -3.07 -2.73 -5.13l-0.0001 0.01z"></path><path fill="#ad0000" d="m1133.59 231.1c-0.13 -0.17 -0.21 -0.39 -0.22 -0.62l-1.21 -52.05c-0.01 -0.58 0.45 -1.07 1.03 -1.08c0.58 -0.01 1.0699 0.45 1.08 1.03l1.21 52.05c0.01 0.58 -0.45 1.07 -1.03 1.08c-0.35 0 -0.67 -0.16 -0.86 -0.41z"></path><polygon points="1143.65,189.37 1196.24,231.38 1201.2,267.78 1145.16,229.52 1143.65,189.37" fill="#0f0f0f"></polygon></g><g><path fill="#fff" d="m1149.22 234.19l79.28 -8.29c2.0601 -0.22 4.11 0.4 5.72 1.7l61.09 49.64c5.39 4.38 2.78 13.1 -4.14 13.79l-69.23 6.88c-1.8101 0.18 -3.63 -0.28 -5.14 -1.3l-71.15 -48.23c-6.01 -4.07 -3.66 -13.43 3.5601 -14.18l0.01 -0.01z"></path><path fill="#ad0000" d="m1139.59 239.34c-0.12 -0.15 -0.1899 -0.34 -0.21 -0.55c-0.05 -0.58 0.38 -1.1 0.96 -1.15l87.97 -7.95c0.58 -0.05 1.09 0.38 1.15 0.96c0.05 0.58 -0.38 1.1 -0.96 1.15l-87.97 7.95c-0.37 0.03 -0.72 -0.13 -0.9301 -0.41l-0.01 0z"></path><path fill="#ad0000" d="m1214.62 273.76c-0.8199 -1.06 -1.25 -2.27 -1.24 -3.54c0 -1.96 1.04 -3.77 2.92 -5.11c1.77 -1.26 4.11 -1.95 6.58 -1.94c5.23 0.01 9.48 3.2 9.47 7.1c0 3.9 -4.27 7.07 -9.5 7.05c-2.47 0 -4.8 -0.71 -6.5699 -1.97c-0.66 -0.47 -1.21 -1 -1.65 -1.58l-0.01 -0.01zm14.79 -5.78c-1.22 -1.59 -3.6899 -2.69 -6.54 -2.7c-2.03 0 -3.9301 0.55 -5.35 1.55c-1.3101 0.93 -2.03 2.13 -2.03 3.39c0 1.26 0.71 2.46 2.02 3.4c1.41 1.01 3.3101 1.57 5.34 1.58c4.0601 0 7.37 -2.21 7.38 -4.94c0 -0.82 -0.29 -1.6 -0.8199 -2.28l0 0z"></path></g><animateTransform attributeName="transform" type="translate" from="0 0" to="0 0" calcMode="discrete" dur="5000ms" repeatCount="indefinite"></animateTransform><animateMotion keyTimes="0;0.34;0.6566;1" calcMode="spline" keySplines="0.42 0 1 1;0 0 1 1;0 0 0.58 1" dur="5000ms" repeatCount="indefinite" attributeName="transform" keyPoints="0;0.3471;0.7174;1" path="m1269.85 269.7744q-40.8491 1.4044 -56.8679 -34.5518q29.1136 -38.7444 65.618 -14.935q21.6208 24.9744 -8.7501 49.4868" additive="sum"></animateMotion><animateTransform keyTimes="0;0.34;0.6566;1" calcMode="linear" dur="5000ms" repeatCount="indefinite" attributeName="transform" values="-22;0;-35;-22" type="rotate" additive="sum"></animateTransform><animateTransform attributeName="transform" type="translate" from="-1212.9821 -235.2225" to="-1212.9821 -235.2225" calcMode="discrete" dur="5000ms" repeatCount="indefinite" additive="sum"></animateTransform></g><path fill="#fff" d="m1722.1801 385.19l-3.87 -1c-0.91 -0.23 -2.0601 0.2 -2.5601 0.99l-1.17 1.56c-0.6 0.7 -0.73 1.92 -0.26 2.72l2.03 3.44c0.47 0.8 0.2 1.84 -0.6 2.3l-5.33 3.14c-0.79 0.46 -1.84 0.19 -2.3101 -0.6l-2.03 -3.45c-0.48 -0.8 -1.59 -1.29 -2.5 -1.1l-1.9301 0.27c-0.92 0.06 -1.87 0.84 -2.1 1.74l-1 3.86c-0.23 0.89 -1.17 1.44 -2.0601 1.21l-5.99 -1.56c-0.89 -0.23 -1.4301 -1.16 -1.2 -2.06l1 -3.86c0.23 -0.9 -0.21 -2.05 -1 -2.55l-1.5601 -1.18c-0.7 -0.61 -1.92 -0.73 -2.71 -0.26l-3.45 2.03c-0.8 0.46 -1.83 0.19 -2.3 -0.6l-3.13 -5.34c-0.47 -0.79 -0.2 -1.83 0.6 -2.3l3.4399 -2.02c0.8 -0.47 1.3 -1.59 1.11 -2.5l-0.27 -1.93c-0.0601 -0.93 -0.85 -1.87 -1.75 -2.11l-3.87 -1.01c-0.89 -0.23 -1.4399 -1.16 -1.21 -2.06l1.55 -5.98c0.23 -0.9 1.16 -1.44 2.05 -1.21l3.87 1.01c0.9 0.23 2.05 -0.21 2.55 -0.99l1.17 -1.56c0.61 -0.7 0.72 -1.92 0.25 -2.73l-2.02 -3.44c-0.47 -0.79 -0.2 -1.84 0.6 -2.31l5.33 -3.13c0.8 -0.47 1.83 -0.2 2.3 0.6l2.03 3.45c0.46 0.8 1.59 1.29 2.49 1.1l1.9399 -0.27c0.9301 -0.06 1.88 -0.85 2.11 -1.75l1 -3.87c0.23 -0.9 1.15 -1.44 2.05 -1.21l5.99 1.56c0.89 0.23 1.4399 1.16 1.21 2.06l-1 3.87c-0.23 0.9 0.21 2.05 0.99 2.55l1.55 1.17c0.71 0.61 1.92 0.72 2.72 0.25l3.45 -2.03c0.8 -0.47 1.84 -0.2 2.3101 0.6l3.13 5.33c0.47 0.8 0.2 1.84 -0.6 2.31l-3.45 2.02c-0.8 0.47 -1.29 1.61 -1.1 2.51l0.26 1.94c0.0601 0.92 0.85 1.87 1.76 2.11l3.87 1c0.9 0.23 1.4399 1.16 1.21 2.06l-1.55 5.98c-0.23 0.9 -1.16 1.44 -2.05 1.21l0.0101 0.02zm-20.13 -18.57c-4.36 -1.13 -8.8 1.48 -9.9301 5.83c-1.13 4.36 1.48 8.8 5.84 9.93c4.35 1.13 8.8 -1.48 9.9301 -5.84c1.13 -4.35 -1.49 -8.8 -5.83 -9.93l-0.01 0.01z" transform="translate(0 0)"><animateTransform attributeName="transform" type="translate" from="0 0" to="0 0" calcMode="discrete" dur="5000ms" repeatCount="indefinite"></animateTransform><animateMotion keyTimes="0;0.2866;0.46;0.7234;1" calcMode="linear" dur="5000ms" repeatCount="indefinite" attributeName="transform" keyPoints="0;0.2947;0.4503;0.7188;1" path="m1699.9852 374.4697q35.8733 3.6803 59.9868 -11.3131q11.8879 -14.8771 5.4654 -30.6566q-17.3454 -18.0409 -53.0915 -10.9413q-24.3194 13.7237 -12.3607 52.911" additive="sum"></animateMotion><animateTransform keyTimes="0;1" calcMode="linear" dur="5000ms" repeatCount="indefinite" attributeName="transform" values="0;360" type="rotate" additive="sum"></animateTransform><animateTransform attributeName="transform" type="translate" from="-1699.9852 -374.4697" to="-1699.9852 -374.4697" calcMode="discrete" dur="5000ms" repeatCount="indefinite" additive="sum"></animateTransform></path><g transform="matrix(0.9903 0.1392 -0.1392 0.9903 44.3021 -247.3296)"><polygon points="1719.35,206.09 1693.4301,193.11 1709.61,241.74 1722.59,215.82 1719.35,206.09" fill="#fff"></polygon><path fill="#fff" d="m1742.01 241.75l48.63 -16.18c5.37 -1.79 8.28 -7.59 6.49 -12.96l-16.1801 -48.63c-1.79 -5.37 -7.59 -8.28 -12.96 -6.49l-48.63 16.18c-5.37 1.79 -8.27 7.59 -6.49 12.96l16.1801 48.63c1.79 5.37 7.59 8.27 12.96 6.49zm8.4399 -47.68l6.16 -9.12l4.24 12.73l4.24 12.73l-10.39 -3.61l-10.39 -3.62l6.15 -9.12l-0.01 0.01z"></path><polygon points="1750.45,194.07 1756.61,184.95 1760.84,197.68 1765.08,210.42 1754.6899,206.81 1744.3,203.19 1750.45,194.07" fill="#ad0000"></polygon><animateTransform attributeName="transform" type="translate" from="1790.64 193.11" to="1790.64 193.11" calcMode="discrete" dur="5000ms" repeatCount="indefinite"></animateTransform><animateTransform keyTimes="0;0.49;1" calcMode="spline" keySplines="0.42 0 0.58 1;0.42 0 0.58 1" dur="5000ms" repeatCount="indefinite" attributeName="transform" values="8;-18;8" type="rotate" additive="sum"></animateTransform><animateTransform attributeName="transform" type="translate" from="-1790.64 -193.11" to="-1790.64 -193.11" calcMode="discrete" dur="5000ms" repeatCount="indefinite" additive="sum"></animateTransform></g><g transform="matrix(0 0 0 0 1179.0759 484.4741)"><path fill="#fff" d="m1186.54 497.47c0 0 4.1801 -26.67 -3.66 -28.27c-9.76 -2 -11.8101 14.28 -6.53 18.63c5.28 4.35 -3.0699 -12.63 -10.64 -7.44c-5.91 4.06 -4.37 15.2 20.83 17.08l0.0001 0z"></path><g><rect fill="#fff" width="3.09" height="9.84" transform="matrix(0.9487 -0.3161 0.3161 0.9487 1166.2018 450.9803)"></rect><rect fill="#fff" width="3.09" height="9.84" transform="matrix(0.9487 -0.3161 0.3161 0.9487 1166.2018 450.9803)"></rect><rect fill="#fff" width="3.09" height="9.84" transform="matrix(0.2004 -0.9797 0.9797 0.2004 1143.6398 478.88)"></rect><rect fill="#fff" width="9.84" height="3.09" transform="matrix(0.6637 -0.748 0.748 0.6637 1154.0979 510.3872)"></rect><rect fill="#fff" width="3.09" height="9.84" transform="matrix(0.9486 -0.3165 0.3165 0.9486 1185.7581 509.6106)"></rect><rect fill="#fff" width="3.09" height="9.84" transform="matrix(0.2002 -0.9798 0.9798 0.2002 1204.2525 491.2908)"></rect><rect fill="#fff" width="9.84" height="3.09" transform="matrix(0.6634 -0.7483 0.7483 0.6634 1195.098 464.0033)"></rect></g><animateTransform attributeName="transform" type="translate" from="1179.0759 484.4741" to="1179.0759 484.4741" calcMode="discrete" dur="5000ms" repeatCount="indefinite"></animateTransform><animateTransform keyTimes="0;0.39;1" calcMode="linear" dur="5000ms" repeatCount="indefinite" attributeName="transform" values="0;71;71" type="rotate" additive="sum"></animateTransform><animateTransform keyTimes="0;0.0034;0.2434;0.39;1" calcMode="spline" keySplines="0 0 1 1;0 0 0.58 1;0.42 0 1 1;0 0 1 1" dur="5000ms" repeatCount="indefinite" attributeName="transform" values="0 0;0 0;1 1;0 0;0 0" type="scale" additive="sum"></animateTransform><animateTransform attributeName="transform" type="translate" from="-1179.0759 -484.4741" to="-1179.0759 -484.4741" calcMode="discrete" dur="5000ms" repeatCount="indefinite" additive="sum"></animateTransform><animate keyTimes="0;0.2434;0.39;1" calcMode="linear" dur="5000ms" repeatCount="indefinite" attributeName="opacity" values="1;1;0;0"></animate></g><g transform="matrix(0 0 0 0 1252.0429 447.1088)" visibility="hidden"><path fill="#fff" d="m1186.54 497.47c0 0 4.1801 -26.67 -3.66 -28.27c-9.76 -2 -11.8101 14.28 -6.53 18.63c5.28 4.35 -3.0699 -12.63 -10.64 -7.44c-5.91 4.06 -4.37 15.2 20.83 17.08l0.0001 0z"></path><g><rect fill="#fff" width="3.09" height="9.84" transform="matrix(0.9487 -0.3161 0.3161 0.9487 1166.2018 450.9803)"></rect><rect fill="#fff" width="3.09" height="9.84" transform="matrix(0.9487 -0.3161 0.3161 0.9487 1166.2018 450.9803)"></rect><rect fill="#fff" width="3.09" height="9.84" transform="matrix(0.2004 -0.9797 0.9797 0.2004 1143.6398 478.88)"></rect><rect fill="#fff" width="9.84" height="3.09" transform="matrix(0.6637 -0.748 0.748 0.6637 1154.0979 510.3872)"></rect><rect fill="#fff" width="3.09" height="9.84" transform="matrix(0.9486 -0.3165 0.3165 0.9486 1185.7581 509.6106)"></rect><rect fill="#fff" width="3.09" height="9.84" transform="matrix(0.2002 -0.9798 0.9798 0.2002 1204.2525 491.2908)"></rect><rect fill="#fff" width="9.84" height="3.09" transform="matrix(0.6634 -0.7483 0.7483 0.6634 1195.098 464.0033)"></rect></g><animateTransform attributeName="transform" type="translate" from="1252.0429 447.1088" to="1252.0429 447.1088" calcMode="discrete" dur="5000ms" repeatCount="indefinite"></animateTransform><animateTransform keyTimes="0;0.4966;0.8866;1" calcMode="linear" dur="5000ms" repeatCount="indefinite" attributeName="transform" values="0;0;71;71" type="rotate" additive="sum"></animateTransform><animateTransform keyTimes="0;0.5;0.74;0.8866;1" calcMode="spline" keySplines="0 0 1 1;0 0 0.58 1;0.42 0 1 1;0 0 1 1" dur="5000ms" repeatCount="indefinite" attributeName="transform" values="0 0;0 0;1 1;0 0;0 0" type="scale" additive="sum"></animateTransform><animateTransform attributeName="transform" type="translate" from="-1179.0759 -484.4741" to="-1179.0759 -484.4741" calcMode="discrete" dur="5000ms" repeatCount="indefinite" additive="sum"></animateTransform><animate keyTimes="0;0.74;0.8866;1" calcMode="linear" dur="5000ms" repeatCount="indefinite" attributeName="opacity" values="1;1;0;0"></animate><animate keyTimes="0;0.4966;0.4966;1" calcMode="linear" dur="5000ms" repeatCount="indefinite" attributeName="visibility" values="hidden;hidden;visible;visible"></animate></g><g transform="matrix(0.848 -0.5299 0.5299 0.848 -17.6525 723.3592)"><g><ellipse fill="#fff" rx="35.28" ry="35.28" transform="matrix(0.0551 -0.9985 0.9985 0.0551 1252.5005 392.4603)"></ellipse><path fill="#0f0f0f" d="m1227.42 418.95c-2.77 -2.63 -5.12 -5.72 -6.98 -9.18c-4.61 -8.58 -5.61 -18.45 -2.8 -27.78c5.79 -19.26 26.1801 -30.22 45.4399 -24.43c9.33 2.81 17.01 9.08 21.63 17.66c4.61 8.58 5.61 18.45 2.8 27.78c-2.8101 9.33 -9.08 17.01 -17.66 21.63c-8.58 4.61 -18.45 5.61 -27.78 2.8c-5.5699 -1.68 -10.55 -4.59 -14.64 -8.48l-0.0099 0zm48.63 -51.16c-3.8199 -3.64 -8.47 -6.36 -13.67 -7.92c-17.99 -5.41 -37.03 4.82 -42.4399 22.81c-2.62 8.72 -1.6899 17.93 2.62 25.95c4.3101 8.02 11.48 13.88 20.2 16.5c8.71 2.62 17.9301 1.69 25.9399 -2.62c8.02 -4.31 13.87 -11.48 16.5 -20.2l0 0c2.62 -8.71 1.6899 -17.93 -2.62 -25.95c-1.74 -3.23 -3.9399 -6.11 -6.52 -8.58l-0.0099 0.01z"></path></g><path fill="#0f0f0f" d="m1233.86 412.2c-7.1899 -6.84 -10.36 -17.4 -7.3101 -27.53l2.3101 0.69c-1.91 6.33 -1.23 13.03 1.9 18.86c3.13 5.83 8.34 10.08 14.6801 11.99c13.08 3.93 26.91 -3.5 30.85 -16.58l2.3101 0.69c-4.3199 14.35 -19.5 22.51 -33.85 18.2c-4.21 -1.27 -7.9 -3.47 -10.88 -6.32l-0.0101 0z"></path><ellipse fill="#0f0f0f" rx="3.77" ry="3.77" transform="translate(1248.3401 381.82)"></ellipse><ellipse fill="#0f0f0f" rx="3.77" ry="3.77" transform="translate(1261.75 385.18)"></ellipse><animateTransform attributeName="transform" type="translate" from="0 0" to="0 0" calcMode="discrete" dur="5000ms" repeatCount="indefinite"></animateTransform><animateMotion keyTimes="0;0.29;0.5834;0.81;1" calcMode="spline" keySplines="0.42 0 1 1;0 0 1 1;0 0 1 1;0 0 0.58 1" dur="5000ms" repeatCount="indefinite" attributeName="transform" keyPoints="0;0.2443;0.5713;0.8335;1" path="m1252.5005 392.4603q7.3157 23.5399 29.3946 31.0927q30.2317 -17.5365 28.756 -48.46q-16.1009 -21.5415 -42.4147 -8.5958l-15.7359 25.9631" additive="sum"></animateMotion><animateTransform keyTimes="0;0.29;0.5834;0.81;1" calcMode="linear" dur="5000ms" repeatCount="indefinite" attributeName="transform" values="-32;-47;0.3;-14.8;-32" type="rotate" additive="sum"></animateTransform><animateTransform attributeName="transform" type="translate" from="-1252.5005 -392.4603" to="-1252.5005 -392.4603" calcMode="discrete" dur="5000ms" repeatCount="indefinite" additive="sum"></animateTransform></g></g><g clip-path="url('#eaf-fa37-2')"><ellipse fill="none" stroke="#fff" stroke-width="12" stroke-dasharray="36" stroke-dashoffset="36" paint-order="stroke" rx="196.0455" ry="194.6125" transform="matrix(1.0545 -0.205 -0.3236 0.6351 1490.9949 332.5)"><animate keyTimes="0;1" calcMode="linear" dur="5000ms" repeatCount="indefinite" attributeName="stroke-dashoffset" values="36;179"></animate></ellipse></g></g></g></g></svg>