<?xml version="1.0" encoding="UTF-8"?>
<svg xmlns="http://www.w3.org/2000/svg" viewBox="0 0 42 21">
  <defs>
    <style>
      .cls-1 {
        fill: #fff;
      }

      .cls-2 {
        fill: #0f0f0f;
      }
    </style>
  </defs>
  <g id="Layer_2">
    <rect class="cls-1" width="42" height="21" rx="1.21" ry="1.21"/>
  </g>
  <g id="Layer_1">
    <g>
      <path class="cls-2" d="M28.2,6.5h-.8c-.44,0-.8.36-.8.8v6.93c0,.17.06.34.16.48l.4.53c.32.43.96.43,1.28,0l.4-.53c.1-.14.16-.31.16-.48v-6.93c0-.44-.36-.8-.8-.8h0Z"/>
      <path class="cls-2" d="M26.2,15.96l-.4-.53c-.26-.34-.4-.77-.4-1.2v-6.94c0-.82.5-1.53,1.2-1.83v-1.37c0-.88-.72-1.6-1.6-1.6h-10.4c-.88,0-1.6.72-1.6,1.6v12.8c0,.88.72,1.6,1.6,1.6h10.4c.88,0,1.6-.72,1.6-1.6v-.54c-.15-.11-.29-.25-.4-.4ZM16.6,6.3h2.4c.33,0,.6.27.6.6s-.27.6-.6.6h-2.4c-.33,0-.6-.27-.6-.6s.27-.6.6-.6ZM21.4,13.9h-4.8c-.33,0-.6-.27-.6-.6s.27-.6.6-.6h4.8c.33,0,.6.27.6.6s-.27.6-.6.6ZM22.2,10.7h-5.6c-.33,0-.6-.27-.6-.6s.27-.6.6-.6h5.6c.33,0,.6.27.6.6s-.27.6-.6.6Z"/>
    </g>
  </g>
</svg>